<svg version="1.1" id="Layer_1" xmlns="http://www.w3.org/2000/svg" x="0" y="0" viewBox="0 0 1920 565.53" xml:space="preserve"><style>.st0{fill:#1e3433}</style><g id="Group_1123" transform="translate(-1 -366.24)"><path id="Path_315" class="st0" d="M1091.3 723.5c.03.07.1.25.2.58-.08-.19-.15-.38-.2-.58z"/><path id="Path_316" class="st0" d="M1921 931.77H808.85s179.79-85.83 236.05-136.52c50.77-45.73 47.69-67.41 46.61-71.18 1.12 2.45 7.92 10.08 44.79-23.14 42.16-38 74.51-85.86 116.7-105.56s82.95-56.31 194.02-67.56c72.86-7.4 145.7-8.11 190.4-8.54 23.46-.23 39.15-.35 43.02-1.32 3.9-.97 54.13-2.15 118.04-3.28 7.52-.14 15.21-.27 23.06-.39 32-.53 66.64 83.62 99.56 83.15l-.1 334.34z"/><g id="Group_1116" transform="translate(1794.89 366.24)"><path id="Path_318" class="st0" d="M126.11 186.82c-.24.41-.78 3.68-1.02 4.07-2.24-5.11-4.49-10.62-6.68-16.19 2.42.87 4.89 1.58 7.4 2.11v-1.36c-3.23-4.29-7.43-13.47-11.35-23.08 1.41.52 3.69 1.42 7.29 2.91-6.2-5.43-18.79-41.12-18.79-41.12s-7.64 22.77-21.67 41.64c2.07 0 7.65-2.59 7.65-2.59l1.94-.13c-4.02 9.02-8.69 17.73-13.98 26.07 3.89-1.23 7.71-2.69 11.42-4.39-2.04 4.77-4.26 9.76-6.69 14.82-2.55-4.01-5.64-10.87-8.55-18 1.2.45 3.11 1.2 6.15 2.46-5.22-4.57-15.86-34.71-15.86-34.71s-6.44 19.21-18.3 35.14c1.74 0 6.44-2.18 6.44-2.18l1.65-.1c-3.18 7.12-6.83 14.01-10.93 20.65a93.11 93.11 0 01-5.15-11.87c1.49.51 3.4 1.18 5.43 1.98-1.67-1.38-4.14-6.24-6.33-11.14 1.68-.1 3.37.19 4.92.84-3.28-3.04-9.9-23.01-9.9-23.01a98.254 98.254 0 01-11.42 23.3c2.07-.32 4.11-.76 6.13-1.31a81.61 81.61 0 01-7.54 11.59c2.04-.27 4.06-.64 6.06-1.11-2.13 4.61-4.58 9.06-7.33 13.33 1.36 0 5.04-1.95 5.04-1.95l1.28-.1a162.75 162.75 0 01-7 15.47c-.7 1.36-1.43 2.74-2.19 4.08 1.24-.41 2.46-.89 3.66-1.43.91-.42 1.87-.89 2.84-1.35-.49 1.2-.98 2.39-1.5 3.6-.22.52-.45 1.04-.69 1.56-.25.59-.51 1.2-.79 1.8A211.83 211.83 0 015.5 240.9a80.27 80.27 0 009.55-3.83c-3.33 8.35-7.16 17.02-11.45 25.5-1.17 2.29-2.36 4.57-3.59 6.82.21-.07.42-.08.63-.16l-.24.3 125.71-31.64v-51.07zm-45.54 4.95c-.83 1.69-1.67 3.39-2.55 5.11-.86-2.22-1.72-4.49-2.55-6.75 1.74.63 3.47 1.2 5.1 1.64zm-39.08 2.25l-.13.21c.11-.03.24-.08.35-.11.6.28 1.27.59 2.04.96-.36-.39-.69-.82-.97-1.28 2.62-.87 5.85-2.21 8.96-3.6-2.11 5.33-4.5 10.93-7.17 16.61-2.1-4.54-3.97-9.18-5.61-13.91.57.23 1.42.6 2.53 1.12z"/></g><g id="Group_1117" transform="translate(1628.621 381.73)"><path id="Path_319" class="st0" d="M203.92 155.26c-2.74-5.03-5.32-10.18-7.7-15.34-1.15-2.47-2.26-4.92-3.31-7.36-1.42-3.24-2.76-6.44-4.03-9.61 3.1 1.48 6.29 2.75 9.56 3.83a230.015 230.015 0 01-15.24-30.74c2.11 1.06 4.28 1.99 6.5 2.77-2.08-3.69-4-7.52-5.7-11.3-.42-.9-.82-1.79-1.2-2.67.56.27 1.28.6 1.99.87.64.3 1.32.49 2.03.56-.46-.7-.92-1.41-1.34-2.12-.46-.75-.92-1.51-1.34-2.25-.52-.87-1-1.76-1.46-2.63-1.62-2.98-3.04-5.94-4.28-8.73 2.29.51 6.29 1.37 7.16 1.37-3.56-4.6-6.64-9.56-9.19-14.79h.03s6.66 1.72 7.76 1.72a97.975 97.975 0 01-11.43-23.31s-6.63 19.98-9.9 23.01c1.93-.79 4.04-1.05 6.1-.76-2.42 5.69-5.52 12.2-7.5 13.84 2.48-.97 4.76-1.76 6.33-2.3-1 2.74-2.06 5.55-3.1 8.07-2.76-3.39-6.46-11.46-9.91-19.93 1.18.45 3.1 1.2 6.14 2.46-5.22-4.58-15.86-34.71-15.86-34.71s-6.45 19.21-18.3 35.15c1.74 0 6.45-2.18 6.45-2.18l1.65-.1c-2.87 6.41-6.12 12.65-9.73 18.68-2.22-5.11-4.49-10.63-6.67-16.19a47.81 47.81 0 008.8 2.35c-3.34-3.07-8.22-13.6-12.75-24.69 1.41.52 3.69 1.42 7.29 2.91C115.56 35.68 102.96 0 102.96 0s-7.64 22.76-21.68 41.64c2.07 0 7.64-2.59 7.64-2.59l1.94-.13c-4 9.02-8.68 17.74-13.97 26.08 3.89-1.22 7.71-2.69 11.42-4.39-2.03 4.77-4.25 9.76-6.69 14.82-2.55-4.01-5.65-10.87-8.56-18 1.2.45 3.11 1.2 6.15 2.46-5.22-4.58-15.86-34.71-15.86-34.71S56.9 44.4 45.05 60.33c1.74 0 6.45-2.18 6.45-2.18l1.65-.1c-3.18 7.12-6.84 14.02-10.94 20.65-1.98-3.84-3.7-7.81-5.14-11.88 1.49.51 3.39 1.18 5.42 1.98-1.68-1.38-4.12-6.24-6.32-11.13 1.68-.1 3.36.19 4.91.84-3.27-3.04-9.9-23.01-9.9-23.01a98.322 98.322 0 01-11.42 23.31c2.06-.32 4.11-.76 6.12-1.31a79.495 79.495 0 01-7.53 11.58c2.04-.27 4.06-.64 6.07-1.11-2.13 4.61-4.58 9.06-7.33 13.33 1.37 0 5.04-1.94 5.04-1.94l1.28-.1c-2.62 6.71-5.7 13.24-9.21 19.54 2.23-.78 4.4-1.71 6.5-2.77-4.31 10.61-9.4 20.89-15.23 30.74 3.26-1.07 6.45-2.35 9.54-3.83-1.92 4.79-4 9.7-6.24 14.61-2.7 5.96-5.63 11.92-8.8 17.71.21-.07.42-.08.63-.16l-.24.3H203.2l-.25-.39c.35.1.66.15.97.25zm-39.55-77.18c-.73 1.73-1.45 3.29-2.11 4.59-.86-1.93-1.72-3.87-2.56-5.83 1.53.5 3.09.92 4.67 1.24zm-33.01-1.15c-1.01 2.15-2.07 4.36-3.18 6.59-.69-1.44-1.38-2.91-2.07-4.48 1.65-.61 3.45-1.33 5.25-2.11zm-50.79.67c-.83 1.69-1.68 3.39-2.55 5.1-.86-2.21-1.72-4.48-2.55-6.74 1.74.63 3.47 1.21 5.1 1.64zm-39.09 2.25l-.13.21c.11-.03.24-.08.35-.11.61.28 1.27.59 2.06.96-.37-.39-.7-.82-.99-1.28 2.63-.87 5.86-2.21 8.97-3.6-2.11 5.32-4.5 10.92-7.18 16.61-2.1-4.54-3.97-9.18-5.6-13.91.58.24 1.41.6 2.52 1.12z"/></g><path id="Rectangle_1328" class="st0" d="M1920.99 831.77h-.29"/><g id="Group_1118" transform="translate(1362.295 378.052)"><path id="Path_320" class="st0" d="M1.57 52.24c1.93.9 4.18.85 6.07-.14 2.06-1.01 5.8-2.86 5.8-2.86L10.73 57l1.46.68 1.92-5.82s-.36 6.32-.23 8.45c.11 2.49-.13 4.98-.71 7.4-.57 2.38-.39 3.5.09 4.49s.34 2.63.41 3.89.59 1.24 1.05 1.86c.43.39.54 1.02.27 1.53-.25.6-.5.62-.34.99s.21.62.32.92-1.51 5.91-1.38 7.07-.76 3.51-.76 5.29-.3 6.73.18 8.88 1.72 5.08 2.17 7.77 1.24 9.25 1.26 10.3c-.01.68.03 1.35.14 2.02.09.39 1.21.25 1.21.25s.18 1.38.28 3.14c.65 4.68 1.59 9.32 2.82 13.88.82 3.25 1.31 6.58 1.44 9.94.12.93-.01 1.87-.39 2.72-.05.1-1.31-.71-2.27-.94s-2.66-.04-2.52.76 1.56.32 2.08.25c.93-.05 1.86.02 2.77.21.05.14-2.73 1.33-3.23 1.81s-3.57 2.02-4.92 1.85-5.77-.84-6.5.37-.59 1.99.14 2.73 3.07 1.85 6.96 1.81c4.03.08 8.05.47 12.02 1.17 1.92.39 5.31-.59 5.52-3.04s-.14-5.11-.64-5.7c-.31-.37-.8-.55-1.28-.46-.07.02-.89-7.4-.92-9.3s.34-8.7.48-10.33c0-2.54-.21-5.07-.64-7.58-.23-.85-.76-4.19-.76-4.19s3.11 4.03 4.85 6.16 6.09 7.47 6.55 8.24c.6 1.4 1.13 2.83 1.58 4.28.55 1.49.9 3.05 1.05 4.63-.03.55-2.32 1.47-2.59 2.59s-.55 1.35.55 1.4 1.63-2.5 1.63-2.5-.14 2.08-.14 2.38-.85 5.24-1.53 5.98-1.26 1.01-1.35 1.7.82 2.63 1.19 2.47 8.43-2.63 10.05-5.11 4.24-6.11 4.51-6.66.92-2.55-.18-3.03c-.45-.16-.87-.37-1.26-.64 0 0-3-3.57-3.32-3.83a6.7 6.7 0 00-1.88-.39s-2.34-5.52-3.21-7.38-5.34-11.98-6.32-13.51c-.65-1-1.4-1.93-2.22-2.79-.12-.26-.28-.51-.46-.74-.3-.37-.43-.32-.43-.69s.25-3.87.37-5.24c.14-1.19.35-2.38.62-3.55 1.31-2 2.37-4.14 3.18-6.39 1.31-3.67 3.03-8.13 3.48-9.78.5-1.81.87-3.65 1.1-5.52-.02-.62.82-.53.69-1.4-.09-.54-.24-1.06-.46-1.56l-.14-3.11 1.37-4.63c.77 1.62 1.27 3.35 1.47 5.13.04 2.15-.37 2.43-.37 2.43l.82-.05c.28-1.43.23-2.9-.14-4.3-.64-1.88-1.15-3.2-1.15-3.2s5.86.82 6.55-1.92-.46-4.63-.46-5.22 2.38-5.45 2.15-6.69 1.51-11.82 1.51-14.29.18-9.85-3.39-12-3.48-1.7-3.48-1.7-.32-1.28-2.43-2.33-3.53 1.19-3.53 1.19a5.997 5.997 0 00-2.52-3.62c-2.06-1.28-6.09-2.7-6.37-3.02s-.41.05-1.51-1.92a1.902 1.902 0 00-2.45-1.12c-.08.03-.17.07-.25.11 0 0-.21-2.36-.27-2.33s.21-.3.32-.78 2.22-8.08 1.76-10.19-1.13-4.53-3.47-5.78C27.03 1.04 25.6.5 24.11.29c-.47-.07-.94-.16-1.4-.27v.34L21.79.2l.12.25s-1.92-.07-2.2-.09-.8-.07-.8-.07l.41.32s-.92.25-1.19.32-1.4.18-1.4.18l1.01.53-1.35.11.14.14c-.17.14-.36.26-.55.37-.09.02-.87.07-.87.07l.3.39-.3.23.23.3-.89.39.69.25-.9.91.53.02c-.47 1.05-.79 2.15-.97 3.28-.14 1.08-.19 2.17-.15 3.26 0 0-1.21-.16-1.21 0 .02.84.19 1.67.5 2.45.17.32.43.6.73.8l.14.16c.1.2.2.41.28.62v.92s-2.52-.3-2.96.62-1.58 4.26-1.88 4.99c-.5 1.16-.76 2.42-.76 3.69.09 1.37.11 1.72.11 1.72-.56-.12-1.11.23-1.23.79 0 .01 0 .02-.01.03a8.914 8.914 0 01-1.22 3c-.43.66-2.31 1.28-3.18 3.68a47.19 47.19 0 00-1.99 6.35c-.43 2.2-.75 4.43-.96 6.66-.05 1.26-.16 3.5 1.56 4.4zm11.5-22.88c-.03-.3 1.92-1.56 2.41-2.41.45-.9.69-1.89.7-2.9.03-.86.15-1.77.15-1.77.79.14 1.55.43 2.23.86.61.55 1.92 2.23 1.96 3.27s-.43 1.83-.89 1.86c-.97.03-1.93.16-2.87.37-.74.32-1.44.73-2.08 1.22-.42.29-1.58-.2-1.61-.5z"/></g><g id="Group_1119" transform="translate(1408.464 382.958)"><path id="Path_321" class="st0" d="M55 23.79c.91.4 1.51 1.28 1.53 2.27-.13.93-1.66-.53-1.66-.53s-.38-1.74.13-1.74z"/><path id="Path_322" class="st0" d="M25.63 33.42c.04.3.05.61.04.92-.03-.31-.04-.62-.04-.92z"/><path id="Path_323" class="st0" d="M48.26 25.92l-.18.12c-.31-.59-.56-1.22-.75-1.86-.17-.79.81 1.17.93 1.74z"/><path id="Path_324" class="st0" d="M.2 80.25c.46.48 1.01.87 1.29.83s.92.39 1.29.19 1.1.29 1.69-.02 1.57-.25 2.09-.82-.17-.73.77-1.86a11.4 11.4 0 002.81-4.44c.77-2.36 1.09-4.25 4.96-6.78 3.9-2.85 7.54-6.04 10.88-9.54.33-.39.64-.79.92-1.22 0 0 .96 11.7.15 14.64s-1.42 3.79-.77 4.25c.44.29.92.51 1.43.64 0 0-2.7 8.04-2.89 8.96s-.79 13.54-1.32 15.05-.85 1.21-.88 2.45-.59 2.02-.66 3.4.15 2.25.81 2.8.75 1.93 1.1 2.81-.18 1.72.15 2.73 3.31 11.24 3.49 12.27c.32.93.72 1.84 1.18 2.71.16.6 1.41 7.68 1.73 8.76s1.01 3.19.68 4.02-.18 1.24-.07 1.24a7.32 7.32 0 01-4.76 3.7c-3.2.67-5.66 1.95-3.18 3.26s5.95.6 9.24.67 6.25.3 7.88-.25 2.48-1.08 2.13-2.69-.46-1.5-.46-1.5.16-2.78-.44-3.22-.07-.42-.35-1.15-.35-1.12-.64-1.77.35-1.26.42-2.3-1.29-3.88-2.02-5.74-1.27-9.01-1.58-10.34-2.48-9.08-2.48-9.08c2.02 1.52 3.95 3.16 5.77 4.92 1.82 1.93 6.78 8.34 8.42 9.54s4.95 3.88 4.74 4.48c-.36.78-.06 1.7.68 2.14.92.39.31.5 1.1 1.45.65.86 1.24 1.76 1.75 2.71-.11 1.45-.44 2.87-.97 4.23-.74 1.52-1.75 2.62-1.45 3.45s1.89 1.33 4.12-1.38c1.98-2.35 4.21-4.46 6.67-6.3 1.49-1.05 3.07-3.77 2.37-4.73a3.938 3.938 0 00-2.24-1.43 9.816 9.816 0 01-2.98-1.83c-.13-.41-.57-2.8-1.54-2.85s-1.23.05-1.8-1.15c-.3-.72-.84-1.31-1.54-1.66-.61-.46-2.19-4.69-5.57-8.36-1.99-2.31-4.1-4.52-6.32-6.62-1.23-1.01-3.03-2.2-3.03-2.76s-.7-.55-1.05-.55-.22-.96-.62-.96 1.1-.46.44-1.01-.31-1.88.08-2.3.97-.64.53-1.15.61-.55.57-1.06 4.25-11.9 4.56-12.69.75-.55.83-1.33.7-3.12.7-3.12l1.14.23 1.41-4.09c.24.94.41 1.89.52 2.85 0 .69 1.67 4.59 1.82 5.29s.68 1.22 1.38.92l.7-.3s.63.64 1.01.16c.24-.34.41-.73.48-1.15 0 0 .57.09.81-.26.16-.42.24-.88.22-1.33 0 0 .77-.02.5-.83-.34-1.52-.79-3.01-1.34-4.46-.63-1.06-1.18-2.16-1.63-3.31-.45-2.03-.64-4.1-.56-6.17.19.89.35 1.53.46 1.87.64 1.9 1.17 3.84 1.58 5.81l1.36-.41-1.36-2.45s-1.41-5.57-.79-5.01 5.23.17 7.41-3.53c1.69-3.07 3-6.32 3.92-9.7.18.24.43.43.71.53a18.1 18.1 0 01-.57 7.81l-1.4 3.74h1.28s1.79-4.01 1.66-5.61c-.08-1.01-.26-4.02-.39-6.12.8-.65 1.15-1.7.89-2.7-.16-.5-.85-2.21-1.36-3.45-.19-3.34-1.77-7.68-2.27-10.92.19.03.39.03.57-.02.49-.14.96-.33 1.41-.57.06.45.37 2.98.37 3.47-.05.65-.13 1.3-.25 1.94h.57l.26-1.14c.05-1.57-.08-3.14-.38-4.68l-.2.11c.18-.18.29-.42.32-.67-.07-1.25-.3-2.49-.7-3.68l-.19-.15c-.5-.96-1.11-1.87-1.81-2.7-2.53-3.17-9.3-5.34-9.3-5.34.07-1.18-.19-2.35-.75-3.39-.89-1.32-2.4-1.01-3.15-.86-.61.12.26 2.27.61 3.08-.41-.4-.9-.7-1.44-.87-1.17-.48-3.1.59-4.17 1.28-.07-.4-.15-.82-.19-1.1-.09-.62-.51-.73-.66-1.24s-1.4-5.82-1.1-7.58.42-11.28-3.66-13.88A11.691 11.691 0 0032.43.61c-2.61.85-4.12 3.52-4.52 8.14s-1.29 10.34-2.72 12.8-2.15 2.92-1.84 5.45c.08 1.12.29 2.22.64 3.29-.15-1.05-.24-2.11-.26-3.17.09-.53.16 2.42.66 3.67l.51 1.26s-.33-1.65-.37-2.41.35 2.67.68 3.63c.1.39.26.76.46 1.1 0 .54-.01 1.23-.06 1.93-.11 1.54-.42 1.98-.2 2.07s.31.6.31.6-1.82 7.88-2.57 9.03-3.29 3.74-4.81 6.36-5.02 8.18-6.45 9.49c-1.43 1.31-4.65 5.1-5.92 6.25S1.32 73.91.73 76.03s-.99 3.73-.53 4.22zm25.47-45.92c-.03-.3-.04-.61-.04-.92.04.31.05.62.04.92zm29.2-8.81s-.38-1.74.13-1.74c.91.4 1.51 1.28 1.53 2.27-.13.94-1.66-.53-1.66-.53zm-6.62.4l-.18.12c-.31-.59-.56-1.22-.75-1.86-.16-.79.82 1.17.93 1.74z"/></g><g id="Group_1120" transform="translate(1488.29 421.373)"><path id="Path_325" class="st0" d="M31.12 47.1c.1-1.04.01-2.09-.27-3.1-.32-1.64-1.55-1.05-1.55-1.05s-.14-1.64-.37-3.51-.64-4.7-.96-6.89c-.35-2.32-.84-4.62-1.46-6.89-.46-1.51-3.38-3.15-4.56-4.06-.3-.22-.63-.41-.97-.57a7.07 7.07 0 00-.44-2.32c-.73-.44-1.59-.61-2.43-.48-.64.17-1.13.7-1.26 1.35-.9-.26-1.82-.47-2.74-.62l-.35-1.14v-.91c0-.46-.12-1.11-.12-1.4 0-.16-.05-.74-.09-1.25.07-.24.19-.7.37-1.5.32-1.48-.09-1.6-.03-2.95.04-1.66-.2-3.32-.7-4.91-.64-1.65-1.67-3.11-3-4.27C9.53.08 8.65-.12 7.82.1c0 0-.67.23-.91.12s-.17.4-.35.37-.29.21-.46.15-.53.43-.62.43C4.71.95 3.91.88 3.11.96 1.77 1.1 2.41.9.36 1.9a9.018 9.018 0 00-3.69 3.5 9.741 9.741 0 00-1 3.67c.02 1.06.32 2.1.88 3 .23.29.46.93.32.99-.14.03-.29.02-.43-.02l.08.09c.08.09.44.08.44.08l-.05.29c-.13.4-.34.77-.61 1.09-.22.24-.26.6-.09.88.15.24.76.46.76.46.05.12.07.25.08.38-.04.36-.01.72.09 1.07.15.29.84.23.84.23-.17.15-.31.32-.44.5-.18.27.31.56.43.67.23.27.41.58.55.91.04.37.18.73.4 1.04.29.27 1.43.14 1.43.14l-.02.17c-.01.17-.43 1.05-.38.97s.73-.97.73-.97-.52 1.14-.65 1.44-.67 1.6-.76 1.84A6 6 0 00-1 25.35c0 .05.02.11.05.15 0 0 .05-.12.17-.64.24-.64.54-1.26.88-1.86.23-.5.93-2.1.94-2.01s-.79 2.46-1.25 3.54c-.69 1.43-1.49 2.81-2.4 4.11-.36.38-.78.68-1.25.91l.43.06-.49.33c.14 0 .29-.01.43-.03.15-.03.94-.64.79-.36-.12.23-.22.46-.3.7l.67-.64-.09.24c-.09.24-.52 1.16-.52 1.16l.3-.33c.19-.21.34-.44.46-.7 0 0 .09.64.15 1.22 0 .47-.12.93-.33 1.34l.33-.27c.22-.22.36-.51.4-.82.04.23.04.47 0 .7-.17 1.15-.4 2.28-.7 3.41-.45 1.69-.62 3.45-.52 5.2.06 2.31-.33 7.24-.33 7.24-.15.19-.28.41-.36.64-.16.37-.21.79-.12 1.19.09.46-.4.79-.58 1.07s-.7 1.03-.7 1.03l.55.03c-.31.38-.64.73-1 1.06-.66.66-1.2 1.44-1.6 2.28-.23.59-.71 1.57-.78 1.92-.07.35-.53.78.09.84s1.12-.98 1.12-.98-.07.8-.07.92c-.07.32-.19.62-.34.91-.15.14-.23.34-.23.55 0 .3.66.39.84.46.47.07.94.08 1.42.02.36-.06.7-.22.98-.46.49-.28.93-.63 1.32-1.03.37-.94.68-1.91.91-2.9.54.25 1.11.45 1.69.59-.37 1.56-.66 3.15-.87 4.74-.05 1.19-1.14 5.02-1.23 7.21s-.46 6.43-.64 8.53a5.13 5.13 0 001.42 3.74c.72 2.61 1.21 5.28 1.46 7.98-.05 1.46.55 1.14.46 1.92s.91 1.42.41 2.33.14 2.14 0 2.14c-.38 0-.75.17-1 .46-.19.35-.24.76-.14 1.14a29.341 29.341 0 01-4.88 2.69 2.06 2.06 0 00-1.33 3.01c.73 1.05 2.55 1.05 4.7.96 1.43-.11 2.82-.49 4.1-1.14 0 0-.64 1.64-.27 2.42s2.1 1.69 3.47 2.1c1.82.44 3.71.54 5.57.27.82-.32 3.15-.09 4.24-.18s3.19-.05 3.74-1.1-.82-5.02-.82-5.02.27-.68.36-.87-.27-1.14-.18-1.32c.25-.47.42-.98.5-1.51 0-.46-.36-.73-.41-1.05s-.59-1.28-.46-1.55.78-.18.82-1.05c.02-1.25-.09-2.51-.32-3.74-.23-1.05-1-6.02-1.14-6.57s-.91-1.6-.64-2.19-.32-.37-.78-.87-.5-2.37-.23-3.33-1.1-1.92-.96-2.6c.09-.85 0-1.7-.27-2.51-.18-2.12-.05-4.25.36-6.34.27-.37-.09-1 .32-1.14s.73-.96.73-.96l.68-.41c.69-.41.27-1.6.27-1.6l.64-.05-.5-2.42c.19.18.43.3.69.36.32.03.64.07.96.14l1.32 1.19s1 .5 1.14.59c.38.25.75.53 1.1.82.36.32-.14.87-.14.87l1.28-.18c-.2-.53-.46-1.04-.78-1.51-.23-.14-2.74-2.19-2.74-2.19s3.24-.23 4.11-.14 3.28.18 4.15-.27 1.6-3.92 1.82-4.74.41-5.48.41-5.48.68 1.5 1 1.55.55-.09.55-.23-1.03-1.53-.89-1.94zM12.2 95.36c-.09.24-.94.73-.94.94s.46.94.31 1.13-.06 1.03-.06 1.03a5.3 5.3 0 00-1.52.67c-.17.21-.35.41-.55.61-.51.19-1.04.35-1.58.46-.21-.03-.03-.46-.15-.94s-.12-2.1-.21-2.68c-.07-.38-.23-.75-.46-1.07 0 0 .18-1.06-.24-1.49s.18-.49-.09-1.1-.58-.97-.48-1.37.43-.39.24-.88c-.29-1.56-.43-3.15-.43-4.74-.04-1.52-.2-3.04-.49-4.53-.03-.35-.14-.69-.31-1-.17-.43-.31-.88-.39-1.34-.15-.52-.24-.36-.18-.85s.15-.91.18-1.07c.35-.84.57-1.73.64-2.64 0-1.19.3-1.25.43-2.13.18-.87.42-1.72.73-2.55l-.12 1.07s.58 2.8.7 3.62c.22 1.49.6 2.94 1.13 4.35.27.55.5 1.12.7 1.7.15.3.73.7.76 1.19s.43.46.43.46-.21.03.12.37.46.27.52.43.43 3.71.64 5.11.61 3.59.61 4.35-.49 1.31-.3 1.77.45.87.36 1.12zm1.28-81.95c.01-.15.2-2.02.2-2.02.07.52.1 1.05.08 1.58-.04.33-.15.85-.22 1.2-.04-.38-.07-.7-.06-.76zm3.84 6.33c.16-.15.36-.35.6-.6.91-.97 2.06.24 2.06.67.02.28.05.57.11.85-1-.38-2.07-.68-2.77-.92z"/></g><g id="Group_1121" transform="translate(1569.685 405.294)"><path id="Path_326" class="st0" d="M27.5 23.02c.28.03.4.54.45 1.05-.32-.12-.65-.19-.98-.22-.1 0-.19-.01-.29-.02.14-.34.43-.86.82-.81z"/><path id="Path_327" class="st0" d="M-14.96 118.15c.39 2.07 2.29 2.64 4.18 3.09 1.76.27 3.55.18 5.27-.25 1.38-.27 2.78-.38 4.18-.32 1.62.1 5.24.14 6.08-.46s1.12-2.43.63-3.76c-.46-1.26.04-2.67-.02-3.12.32-.06.7-.14 1.18-.24 2.82-.59-1.65-1.29.23-2.59s0-2.59.23-3.41-1.65-1.65-1.29-2.47c.41-2.69.61-5.4.59-8.12.1-.77.29-1.52.59-2.24.33-.86.37-1.81.12-2.7-.47-1.18-.82-.94-.71-2.35s.12-2.35 1.06-3.18 1.41-2.47 2.35-3.88c.34-.51.65-1.04.92-1.6a31.93 31.93 0 001.74 5.04 9.848 9.848 0 003.13 3.9c2.11 1.58 2.81 1.79 3.48 2.64s2.49 3.87 3.34 4.85 1.27 1.3 1.27 1.86c.1.55.4 1.03.84 1.37.25.21.95.21.84 1.16s.6 1.58 1.02 2.42 1.23.46 1.06 1.23-.28 1.44-.28 1.44-.67 2.92-1.09 4.22c-.27 1-.93 1.84-1.83 2.35-.84.56-1.93 1.48-1.23 3.02s3.27 1.27 4.78.77 4.6-3.45 5.2-4.11 5.2-2.92 5.17-3.94a7.728 7.728 0 00-2.25-4.39c1.39-1.64-.57-1.66-.81-2.95s-1.77-2.23-2.23-3.65-2.12-2.23-2.59-4.71-3.41-2.59-3.53-3.77-3.65-4.12-3.29-5.06-.82-.71-.35-1.41-1.65-.82-1.53-1.65-1.3-1.41-1.53-3.41c-.15-1.3-.36-5.12-.48-7.61.42-1.43 1.14-3.42 1.44-4.24.29-1.07.46-2.16.49-3.27 0 0 1.02 1.97.7 2.81-.26 1.1-.41 2.21-.46 3.34-.25.69-.54 1.36-.88 2-.07.14 1.09.25 1.09.25.25-.63.43-1.29.53-1.97.04-.7.04-3.27.04-3.27.27 1.06.48 2.12.63 3.2 0 .56-.18 1.9-.18 1.9l1.12.14c.06-1.07 0-2.14-.18-3.2-.38-1.29-.66-2.61-.84-3.94 0-.4-.03-.8-.11-1.2l1.18.04s9.86-1.32 10.23-10.49.47-7.75.47-7.75-.37 1.32.26 1c.13-.06.27-.14.39-.21.25.88.73.88.79.65.04-.15-.23-.55-.49-.88a1 1 0 00.15-1.24c-.53-1-1.15-1.96-1.84-2.85-.45-.79-.79-1.64-1-2.53.19-2.16.23-4.32.1-6.48-.26-2.79-.84-4.95-1.64-5.9a8.123 8.123 0 00-2.68-1.71c0-.02.01-.03.01-.05.16-1.09-.54-2.13-1.62-2.39-.92-.14-1.14 1.01-1.19 1.74a5.22 5.22 0 01-1.01-.34s-7.33-.28-4.43-4.73c.04-.06.08-.14.13-.21.15.14.29.22.28 0a5.61 5.61 0 010-.58c.05-.12.1-.25.16-.38l.38.62-.07-1.49.36.92.14-2.47-.02.04c.31-1.1.48-2.24.49-3.38v-.01c.18-.82 1.17-1.7.95-3.06-.24-1.61-.86-3.14-1.8-4.47a5.78 5.78 0 00-1.79-2.22c-.87-.58-1.84-.98-2.86-1.2-.25-.08-.5-.16-.76-.22-3.22-.8-6.81-.57-8.23.3S3.4 3.2 2.62 5.5s-.3 3.08-.3 3.08-3.06-.18-3.52.58.71 1.76 2.08 2.18c1.1.34 1.19.24 2.66.7.11.4.1.83-.03 1.23-.32.4-.66.78-1.02 1.14-.25.26-.51.58-.11.95s.79.56.77.83c-.02.35-.12.69-.3.98-.16.14-.23.3.07.6.16.17.36.3.58.37 0 0-.49.65-.32.9.09.14.23.23.39.26.21.23.33.52.35.83-.04.4-.09 1.55 1 1.83.84.18 1.69.25 2.55.23.54.08 1.04.32 1.44.7.17.93.24 1.88.23 2.83a2.39 2.39 0 01-1.53 1.23c-.53.07-.95.26-.91.37s.33.28.46.56-1.76 1.6-1.99 2.13-1.62 6.22-1.7 6.91-1.46 12-1.56 14.53c-.1 2.53-.77 7.03-.63 8.22.14.83.61 1.56 1.3 2.04.32.32-.49 2.25-.49 2.25l-.1.74s-.95 2.39-1.41 3.48a5.022 5.022 0 00-.1 3.58c.42 1.23.88 1.41.88 1.41s-1.93 4.15-2.46 5.17-1.97 4.01-2.35 4.88c-.26 1.07-.45 2.15-.56 3.23-.29 1.06-.28 2.18.04 3.23.32.53-.18.98.1 1.34s.14.84.39 1.3 1.26 9.21 1.3 10.44-.7 3.41-.63 4.74-.74 1.48-.49 2.21c.12.48-.03.99-.39 1.34-.66.34-1.23.82-1.69 1.41-.42.74-1.76.74-2.99 1.23s-3.09 1.58-3.9 1.62-3.07.77-2.69 2.84zm41.64-94.33c.14-.33.43-.85.82-.8.28.03.4.54.45 1.05-.32-.12-.65-.19-.98-.22l-.29-.03z"/></g><g id="Group_1122" transform="translate(1528.664 409.5)"><path id="Path_328" class="st0" d="M34.14 37.92c.11-1.54-1.06-3.48-1.62-5.47s-.45-2.73-1.85-4.97c-.24-.39-.54-.74-.89-1.04.2-.49.37-.98.5-1.49.06-.4-.28-1.84-1.51-1.69-.78.09-1.23 1.09-1.45 1.81-.52-.15-1.03-.34-1.52-.57-.5-.41-.98-.86-1.43-1.33.29-.66.51-1.34.64-2.05.08-1.06.06-2.13-.08-3.19.1.56.24 1.11.42 1.65-.15-1.01-.13-2.03.06-3.03.34-1.29-.56-4.32-.17-3.23s.84 3.98.9 3.58c.05-1.41-.2-2.82-.73-4.13-.84-1.64-1.5-3.38-1.96-5.17-.62-2.24-3.12-4.18-4.05-5.01A20.012 20.012 0 0013.94.04C11.77.02 9.62.34 7.55 1a7.624 7.624 0 00-4.37 3.26c-.61 1.56-1 3.2-1.15 4.87-.02.58.06 1.16.24 1.71.07.14.12.29.15.45l-.17.01.25.2c.05.1.07.21.07.32.01.25-.42 1.38-.62 2.36s-.07 1.89-.27 2.55c-.12.54-.2 1.09-.23 1.64-.14.35-.28.73-.41 1.13-.23.66-.26 1.38-.08 2.06-.71.72-1.59 1.38-2.01 1.91-.62.81-1.13 1.14-1.34 1.55-.38.52-.8 1.01-1.26 1.45.27-.11.52-.26.73-.46.31-.35.58-.73.83-1.13-.2.44-.44.86-.73 1.24-.45.58-1.12 1.09-1.37 1.49-.17.32-.27.67-.29 1.03 0 0 .04-.11.1-.25.01 0 .1.07.45.02.29-.05.58-.12.87-.21-.24.15-.43.35-.57.58-.22.39-.3.66-.09.42.14-.15.33-.23.53-.25-.13.19-.29.36-.46.52-.27.18-.59.25-.91.21 0 0 .07.29.64.24s.35.08.35.08c-.53.66-1.03 1.35-1.48 2.06-.62.99.77 1.97-.01 3.33a4.8 4.8 0 00-.53 2.88c-.12.58-.14 1.18-.07 1.76.07.61 0 1.24-.2 1.82.16.98.45 1.92.86 2.82l.28 2.35a5.14 5.14 0 00-.11 1.79 8.98 8.98 0 001.18 3.28s-.22.1-.56.94 1.62 3.53 1.62 3.53-.56 3.38-.78 4.47-1.91 9.64-2.24 11.43.06 1.84-.67 3.38-.28 3.73.11 5.47S-5 84.1-4.66 85.69c.34 1.59 1.01 6.56 1.34 9.69s.34 3.83-.11 5.02a16.98 16.98 0 00-.2 4.21c-.23 0-.47.01-.7.02.01.7.34 1.32.22 1.32-.44 0-.85.17-1.17.47-.22.35-.28.78-.16 1.18-1.81 1.09-3.7 2.02-5.68 2.78-1.59.38-2.39 2.02-1.54 3.11s2.97 1.08 5.46.99c1.65-.1 3.27-.5 4.77-1.18.86 0 1.72-.05 2.58-.15-.4.69-.34 1.54.14 2.18.99 1.26 3.46 1.26 6.36 1.15 1.92-.12 3.8-.59 5.56-1.37 0 0 6.49.07 7.35-1.99.28-.67-.04-.55-.21-1.13l-.02-.07c.23-.79.16-1.63-.19-2.37-.02-.31-.05-.59-.08-.77-.11-.47-.32-.9-.62-1.28 0 0 .25-1.28-.33-1.79-.02-.02-.03-.03-.05-.04.11-.37.22-1.72.33-1.97s-.45-1.79-.39-2.24c-.08-.98-.1-1.95-.06-2.93.17-1.09-.28-5.77-.17-6.91s-.84-3.73-.56-4.18-.95-3.23-.95-3.23c-.28-.47-.45-1-.5-1.54 0-.7-.56-1.79-.34-2.39.18-.49.2-1.03.06-1.54a8.13 8.13 0 01.28-3.18c.39-1.64.34-4.47 1.01-5.82s1.85-2.09 2.91-4.62.11-7.8.11-7.8c.44.4.95.7 1.51.89.79.11 1.59.06 2.35-.15 0 0 .9 4.02 1.18 4.82.32.95.57 1.92.73 2.91 0 1-.19 1.98-.56 2.91l1.51.15c.37-.84.52-1.77.45-2.68-.28-.9-.67-2.73-.84-3.03s-1.18-5.17-1.18-5.17l2.02-.2c2.02-.2 3.92-2.29 4.98-3.88s.79-4.62.79-4.62.95.15 1.23-.2c.26-.76.13-1.59-.34-2.24-.5-.85-1.45-1.79-1.34-2.44.15-1.04.18-2.09.11-3.13-.11-.45-.34-2.09-.34-2.09s1.98.29 2.09-1.25zm-37.55-9.87c-.08.2-.96.36-.97.36.07-.16.16-.32.27-.46.22-.29.94-.72.91-.57a4 4 0 01-.21.67zm6.73 53.21c.43-2.22.98-4.41 1.64-6.56 0 0 1.2 2.52 1.2 2.72s-.37 3.51-.3 4.9.07 1.33.9 3.32 1.87 1.52 2.02 2.98.67 3.58.75 5.37 0 2.19.07 3.05.15 2.32.22 3.18c-.01.98-.08 1.95-.22 2.92A4.25 4.25 0 019 105l-2.46 2.32H5.12c-.27-.86-.37-1.76-.3-2.65.26-1.54.26-3.1 0-4.64-.3-1.33-.52-8.88-.6-10.01s-.97-4.77-.97-5.57.07-2.19.07-3.19zM1.73 17.28c.06-.37.17-.73.34-1.06v.08c.04.16.09.31.16.46 0 0-.28.5-.6 1.25.04-.26.08-.52.1-.73zm-.09 2.35c.32-.69.67-1.37 1.06-2.02-.19.98-.49 1.93-.88 2.85-.15.29-.33.56-.55.8.13-.6.3-1.38.37-1.63zm22.1 2.9l.88-2.3-.31 2.88c-.21-.22-.41-.43-.57-.58zm5.84 3.74a7.29 7.29 0 00-1.82-1.03c.34-.33.66-.67.96-1.03.79-.94.84 0 .9.74.01.44 0 .88-.04 1.32z"/></g><g id="Group_1116_1_" transform="translate(1794.89 366.24)"><path id="Path_318_1_" class="st0" d="M92.73 209.65v-71.01c-.24.41-.48.82-.72 1.21-2.24-5.11-4.49-10.62-6.68-16.19 2.42.87 4.89 1.58 7.4 2.11v-1.36c-3.23-4.29-7.43-13.47-11.35-23.08 1.41.52 3.69 1.42 7.29 2.91-6.2-5.43-18.79-41.12-18.79-41.12s-7.64 22.77-21.67 41.64c2.07 0 7.65-2.59 7.65-2.59l1.94-.13c-4.02 9.02-8.69 17.73-13.98 26.07 3.89-1.23 7.71-2.69 11.42-4.39-2.04 4.77-4.26 9.76-6.69 14.82-2.55-4.01-5.64-10.87-8.55-18 1.2.45 3.11 1.2 6.15 2.46-5.22-4.57-15.86-34.71-15.86-34.71s-6.44 19.21-18.3 35.14c1.74 0 6.44-2.18 6.44-2.18l1.65-.1c-3.18 7.12-6.83 14.01-10.93 20.65A93.11 93.11 0 014 129.93c1.49.51 3.4 1.18 5.43 1.98-1.67-1.38-4.14-6.24-6.33-11.14 1.68-.1 3.37.19 4.92.84-3.28-3.04-9.9-23.01-9.9-23.01a98.254 98.254 0 01-11.42 23.3c2.07-.32 4.11-.76 6.13-1.31a81.61 81.61 0 01-7.54 11.59c2.04-.27 4.06-.64 6.06-1.11-2.13 4.61-4.58 9.06-7.33 13.33 1.36 0 5.04-1.95 5.04-1.95l1.28-.1a162.75 162.75 0 01-7 15.47c-.7 1.36-1.43 2.74-2.19 4.08 1.24-.41 2.46-.89 3.66-1.43.91-.42 1.87-.89 2.84-1.35-.49 1.2-.98 2.39-1.5 3.6-.22.52-.45 1.04-.69 1.56-.25.59-.51 1.2-.79 1.8a211.83 211.83 0 01-12.25 23.78 80.27 80.27 0 009.55-3.83c-3.33 8.35-7.16 17.02-11.45 25.5-1.17 2.29-2.36 4.57-3.59 6.82.21-.07.42-.08.63-.16l-.24.3h125.7v-8.87h-.29v.03zm-45.24-68.93c-.83 1.69-1.67 3.39-2.55 5.11-.86-2.22-1.72-4.49-2.55-6.75 1.73.63 3.46 1.21 5.1 1.64zM8.4 142.97l-.13.21c.11-.03.24-.08.35-.11.6.28 1.27.59 2.04.96-.36-.39-.69-.82-.97-1.28 2.62-.87 5.85-2.21 8.96-3.6-2.11 5.33-4.5 10.93-7.17 16.61-2.1-4.54-3.97-9.18-5.61-13.91.58.24 1.42.6 2.53 1.12z"/></g><path class="st0" d="M757.3 739.77c.01 0 .02.01.03.01l-.03-.01zm.03.01c.35.04.68.08 1.04.12l-.29.21c-.25-.11-.49-.22-.75-.33zm420.24-42.08c0 .01.01.01.02.01l-.02.02c-.01-.01-.01-.02 0-.03z"/><path class="st0" d="M1187.71 668.29v264.3H97.69l-.09.48-2.64-.48H1.08v-364.3c.97.55 2.5.65 1.64 2.42-.25.51.55 1.45 1.13 2.8.8-1.63 1.34-2.73 1.87-3.82.37.33.73.66 1.08 1 .32 2.94-.59 5.89-2.51 8.14 3.1-.89 5.52-4.85 7.66-.51-1.6 2.04-3.21 4.1-4.75 6.08 2.37 1.49 4.41 2.76 6.27 3.92-2.13 1.75-3.78 3.1-5.46 4.45 2.53.36 2.95 5.96 6.68 1.84.16.7.28 1.26.42 1.85.72-.04 1.45-.08 2.52-.15-.97 1.99-1.84 3.71-2.71 5.53.96-.46 1.93-.92 3.15-1.5.19.63.37 1.27.56 1.92h.81c-.11.55-.22 1.1-.32 1.64v.01c.12.4.24.81.35 1.23.66.66 1.31 1.32 1.97 1.97 1.14-.97 2.27-1.69 3.33-1.28-.13-.28-.26-.56-.41-.84-.51-.93-1.55-1.62-3.03-3.07 2.32.52 3.87.86 6.32 1.41-1.17-1.01-1.68-1.46-2.15-1.87.45-.7.91-1.44 1.45-2.27.49.27 1.1.58 1.7.9.2-.17.39-.32.59-.49-.92-.98-1.83-1.97-2.86-3.06.37-.1.72-.21 1.08-.28.3-.06.62-.09 1.27-.16-1.05-.62-1.87-1.11-3.35-1.98 1.34-.65 2.31-1.11 3.24-1.55-.41-.34-1.04-.87-2.03-1.69 1.1-.27 1.82-.45 2.3-.58.15-2 .3-3.95.45-5.9.25 0 .5.01.76.01v4.18c2.19.1 4.2.18 7.17.31-2.69 1.1-4.54 1.84-6.4 2.6.04.15.1.32.14.48.87-.12 1.73-.24 3.15-.43-1.76 2.54.24 5.7-2.88 7.47-.25.43-.25.96.01 1.38.49.24 1.06.26 1.56.04 2.04-.86 4.02-1.83 6.02-2.77.18.25.37.51.55.75-.96.81-1.93 1.64-2.79 2.36.3.07.96.22 1.65.38-.41.91-.78 1.71-1.14 2.51v.01c.87-.38 1.74-.78 2.73-1.2.67.46 1.68 1.15 2.35 1.6l.63 4.16c1.26-1.24 2.11-2.05 2.97-2.87.28.17.57.32.87.48-.7 2.56-1.41 5.1-2.25 8.21 2.56-2.23 4.85-4.25 7.44-6.5-.31-.53-.93-1.56-1.49-2.6-.38-.73-.7-1.49-1.04-2.25 1-.12 2.02-.16 3.03-.11.5.07.92.67 1.54 1.18-.62-1.97-1.17-3.75-1.9-6.17 2.02.88 3.72 2.7 3.86-.76.06-1.55 2.44-.26 4.14-.6-.8 1.67-1.41 2.92-2.1 4.34.97-.04 1.87-.08 2.78-.12.5 3.88 2.17 5.85 5.22 5.93-1.05 1.65-3.67 3.12-.25 5.33-1.32.31-2.25.52-3.16.73-.12.16-.22.32-.33.49 1.27.38 2.52.75 3.77 1.13.66.2 1.76.28 1.89.63.32.18.61.39.88.61.23-.06.49-.12.78-.19-.96-.4-1.67-.69-2.74-1.15.98-.89 1.83-1.66 2.53-2.29-.83-.99-1.64-1.99-2.48-2.96.21-.27.42-.53.61-.79 1.35.39 2.71.75 4.06 1.15.09-.15.2-.29.3-.42a860.66 860.66 0 00-7.11-4.56c.11-.15.21-.28.31-.42l8.13 1.48 1.13-6.2c.38.03.74.05 1.13.08-.21 2.7-.41 5.38-.64 8.43.67.3 1.62.7 3 1.28-1.65.67-2.83 1.14-3.98 1.61 3.51.77 5.38 2.53 3.7 3.67-1.04.72-2.54.88-4.48 1.47 1.76.72 2.71 1.11 3.65 1.46-1.58 1.34-2.85 2.42-4.13 3.48.3.31.58.61.87.9.67-.35 1.31-.72 1.86-1.04.59 1.36 1.14 2.57 1.75 3.94-.38.22-1.16.65-1.93 1.1.07.21.14.42.19.64.55-.03 1.1-.05 1.67-.07.36-.3.72-.62 1.08-.94 1.12-1.11 1.68-2.65 2.65-3.91.42-.56 1.06-.91 1.76-.95 2.4.48 3.15-.93 3.9-2.49-1.31-.42-2.56-.82-4.37-1.38 3.35-2.04 2.23-3.67.7-5.72-1.24-1.68-1.68-3.86-2.74-6.51 3.27 1.44 6.11 2.68 7.96 3.5-.54-.45-1.76-1.45-2.99-2.44.3-.28.6-.55.9-.83.67-.64 1.34-1.31 2.02-1.95-.5-.24-.99-.48-1.68-.82.75-.81 1.34-1.46 1.56-1.69-.69-.88-1.22-1.6-1.77-2.3 1.08-.07 2.15-.14 3.95-.27-2.44-1.18-4.6-2.22-6.97-3.37h7.34v-5.5c.3-.02.57-.03.87-.06.14 2.32.27 4.63.42 7.21.52.05 1.04.1 1.58.14.9-.44 1.74-.23 2.58.24.46.04.94.09 1.44.13-.89-1.97-1.67-3.68-2.29-5.05 1.1-.79 2.02-1.45 3.35-2.4.31.64.63 1.28.96 1.93.23-.5.47-1.06.75-1.68.85 1.12 1.64 2.17 2.82 3.73.68-1.36 1.31-2.63 2.34-4.66.36-.18 1.76-.78 3.1-1.36 2.2 1.44 2.6 2.77 2.15 4.06.05 1.2.1 2.97.15 5.09.53.07 1 .14 1.45.19-.06 1.55-.55 3.28-.04 4.76.39 1.16 2.01 1.96 3.12 2.96-.63.36-1.55.89-3.01 1.73 2.86.85 4.9 1.45 7.41 2.19-1.87 1.26-4.27 2.08-4.99 3.63-.55 1.16 1.02 3.25 1.83 5.42-1.29-.07-2.99-.17-5.36-.31.01.3.01.6.02.9 1.95 3.56 7.11 2.52 10 5.66-1.59.09-2.7.05-3.78.19-1.02-.03-2.04.22-2.95.71-1.13.98-2.15 1.51-3.1 1.57l.03 1.37.06 3.13c1.89.68 2.61 2.18 2.43 4.8-.27 3.87.99 5.15 5.15 5.16 2.59.01 5.2-.05 8.14-.08-.4-1.64-.93-3.71-1.39-5.68 1.34-.78 2.46-1.43 3.67-2.13.77.78 1.82 1.83 2.74 2.75-.02 1.49-.07 3.07-.12 5.22 1.79-1.36 2.89-2.2 4-3.06.36.27.74.51 1.12.77-1.39 2.99-2.79 5.98-4.24 9.09 2.88-.58 6.73-4.32 8.38 1.95-1.82.75-3.73 1.52-5.02 2.06l-.88 4.85c1.45 1.43 5.84 1.41 4.9 4.92-2.63 1.29-5.02 2.49-7.25 3.6 2.53 3.13 4.55 5.66 6.59 8.16-.22.21-.47.41-.72.62l-7.19-1.31c4.2 2.39.77 4.73.44 7.14 3.51 2.51 6.27 4.56 8.76 4.95-.28-.29-.52-.6-.64-.95.41-.18.83-.38 1.53-.68-.83-.19-1.43-.31-2.36-.52.66-.86 1.22-1.6 1.7-2.21-.82-.68-1.62-1.35-2.42-2.01.12-.24.25-.48.36-.72 1.14.11 2.28.21 3.42.32.06-.12.13-.25.18-.38-2.11-.87-4.22-1.74-6.35-2.61.07-.13.12-.26.18-.38h6.74v-5.14c.31-.02.6-.07.91-.1.23 2.2.45 4.38.72 6.85.57.14 1.39.33 2.59.59-1.23.78-2.1 1.33-2.96 1.87 2.93.1 4.69 1.24 3.5 2.4-.73.73-1.91 1.07-3.37 1.83 1.52.33 2.33.49 3.13.65-1.07 1.29-1.92 2.35-2.8 3.39l.83.59c.48-.38.95-.78 1.34-1.1.67 1 1.28 1.88 1.97 2.9-.27.22-.83.69-1.38 1.15.08.17.17.33.24.49 1.76-.39 3.5-.78 5.99-1.36-1.72 1.77-2.87 2.94-4.02 4.12.18.24.38.48.56.73 3.1-.81 6.19-1.63 8.83-2.32.08-1.77.06-3.54-.07-5.3-.05-.45-1.01-1.08-1.6-1.12-.88.05-1.76.23-2.6.53-.22-.21-.45-.42-.66-.63 1.8-1.76 3.6-3.52 5.77-5.63a7.87 7.87 0 00-1.52-2.49c-.83-.7-2.15-.91-3.64-2.22 1.95-1.11 3.92-2.22 5.61-3.19-.1-.97-.21-1.93-.37-3.42-.87-.62-2.38-1.7-3.73-2.66 2.16-5.26 5.28.07 8.2-.35-1.32-1.69-2.3-2.95-3.36-4.29.23-.9.51-2.07.93-3.78.85.77 1.63 1.5 2.8 2.57.35-1.18.68-2.29 1.2-4.08.27-.18 1.3-.87 2.28-1.53 4.36 1.84 1.62 4.51.01 7.19 2.04-.13 3.29-.2 4.36-.26.19 1.26.05 2.72.66 3.83.48.87 1.9 1.28 2.93 1.91-.45.38-1.11.94-2.15 1.83 2.42.27 4.13.45 6.26.67-1.31 1.28-3.13 2.3-3.48 3.63-.27 1.02 1.3 2.46 2.27 4.08-1.1.14-2.58.32-4.65.58 1.9 3.51 6.29 1.5 9.29 3.75-1.27.3-2.16.44-3 .7-.83.14-1.61.48-2.27 1-1.64 2.06-3.15 2.37-5.03.79-.54-.46-1.27-.66-1.97-.53.77 1.67 1.53 3.36 2.4 5.24.41-.07.84-.18 1.29-.22 2.84-.28 4.12.73 4.43 3.53.35 3.13 1.55 3.98 4.88 3.37 2.08-.36 4.17-.8 6.51-1.25-.56-1.25-1.28-2.84-1.94-4.34.96-.82 1.76-1.5 2.63-2.24.73.51 1.73 1.2 2.6 1.8.2 1.2.4 2.46.66 4.19 1.24-1.35 2-2.18 2.76-3.02.34.15.68.3 1.01.45-.67 2.6-1.36 5.2-2.06 7.9 2.22-.89 4.75-4.45 7 .33-1.35.88-2.77 1.78-3.73 2.4v4c1.38.95 4.88.28 4.64 3.24-1.91 1.42-3.66 2.73-5.27 3.94 2.47 2.13 4.47 3.86 6.47 5.58-.16.2-.33.39-.5.59h-5.95c3.72 1.31 1.31 3.69 1.4 5.67 5.1 2.4 8.46 4.12 11.01 1 1.03 1.05 2.01 2.1 3.29 3.43-1.15.38-2.12.69-3.84 1.24-.45.98-.01 1.59 3.67 2.98-1.26.89-2.28 1.57-3.67 2.53.7.25 1.67.94 2.21.72 1.68-.68 3.26-1.59 4.7-2.7.69-.55 1.39-1.94 1.1-2.52-.78-1.49-3.35-2.22-1.89-4.68.2-.34-1.56-1.63-2.39-2.5-.43-.48-.8-1-1.7-2.14 2.32.73 3.87 1.21 5.42 1.69.08-.12.17-.24.25-.37-.62-.53-1.24-1.07-1.87-1.6.58-.77 1.15-1.55 1.74-2.36.51.39 1 .77 1.48 1.14.25-.21.49-.42.75-.64-.89-.91-1.76-1.84-2.82-2.93.54-.27 1.1-.54 1.66-.82-1.12-3.21-1.12-3.21 1.3-3.09-1.2-.62-2-1.05-3.22-1.69 4.9-1.11 1.68-4.92 3.37-7.32.59 1.66.69 3.49 1.72 4.34 1.02.84 2.98.69 4.92 1.04-1.63.71-2.97 1.29-4.44 1.94.8.41 1.46.74 1.98 1.01-.9 2.88-1.77 5.64-2.8 8.93 2.7-1.21 5.13-2.29 8.4-3.77-1.87 4.49-3.36 8.08-5.06 12.14.16.28.63 1.12 1.1 1.97 3.27-.21 3.15-.16 4.68 3.13.43.95 1.8 1.54 2.76 2.25.92.68 1.88 1.33 3.05 2.14-1.16.48-1.58.66-2.79 1.16 2.93-.13 4.39-.5 5-2.83.33-1.32 2.05-2.34 3.3-3.66-.68-.32-1.32-.7-1.92-1.14-1.14-.95-2.16-2.14-.49-3.33 3.32-2.35 3.35-2.9-.42-5.22 1.17-2.26 2.7-2.64 4.81-.91-.35-1.6-.69-3.21-1.15-5.35 1.29.68 2.05 1.06 2.81 1.47.62-3.43 1.1-3.7 4.39-2.38-.44 1.01-.89 2.02-1.7 3.91 2.57-1.6 4.43-2.76 6.9-4.3-1.93-1.6-3.58-2.98-5.68-4.73 1.59-1.02 3.61-2.34 5.54-3.6-.15-.77-.37-1.91-.66-3.37-.98-.66-2.39-1.59-3.87-2.57 2.26-1 4.79-1.2 7.17-.58-.7-2.28-1.44-4.71-2.18-7.16.2-.14.4-.3.6-.45.62.37 1.24.73 1.85 1.1.46.27 1.07.83 1.35.73.49-.28.87-.73 1.05-1.26.52-1.3.92-2.62 1.28-3.73 1.59.66 2.63 1.08 3.84 1.59-.73 1.61-1.56 3.49-2.47 5.52 1.58-.07 2.92-.14 4.6-.22-.23 1.22-.44 2.31-.64 3.33 1.31.73 2.59 1.47 4.04 2.27-.34.2-.82.46-1.27.76-.22.16-.57.46-.52.6.12.33.41.85.66.87 1.44.07 2.89.03 4.65.03-.05 2.5-6.4 4.62.02 7.96l-5.43.84c.17 1.34 3.37 3.14 5.49 2.35 2.1-.79 2.53.03 3 1.53-1.62 1.35-5.47-.55-5.23 2.59-1.16.38-1.99.65-3 .97-.59-.7-1.32-1.59-2.07-2.49-.31.07-.62.16-.91.23.25 1.67.67 3.32 1.25 4.92.72 1.56 1.9.31 3.01.1 2.98-.58 6.05-.79 9.04-1.35.76-.14 1.35-1.07 2.11-1.73-2.25-.19-3.81-.31-5.58-.47 1.57-1.6 2.8-2.82 3.84-3.88-1.73-1.33-3.12-2.42-5-3.85 2.54-.31 4.34-.54 6.46-.8-.66-.63-1.2-1.17-1.46-1.44 1.32-1.07 2.56-2.08 3.72-3.02l-1.07-3.05h4.64c-.8-1.72-1.5-3.24-2.25-4.8 1.03-.8 1.97-1.54 2.7-2.11.99.6 1.95 1.21 3.06 1.9-.13.53-.31 1.24-.57 2.29.89-.45 1.83-.63 2.13-1.14 1.5-2.57 2.94-1.77 4.36-.03 3.56-1.14 7-2.23 10.2-3.25-1-1.03-1.84-2.2-2.52-3.47-.13-.34 1.73-1.32 2.97-2.21h-6.5c.41-3.06 3.42-3.82 6.06-5.68-1.86-1.39-3.63-2.73-6.01-4.53 1.76-1.11 3.86-2.43 5.6-3.53-.12-1.04-.25-1.98-.42-3.37-.98-.44-1.88-1.03-2.68-1.75-.47-.79-.62-1.72-.4-2.61.04-.24 1.42-.62 2.01-.44 1.52.53 3 1.13 4.45 1.81-.88-2.56-1.72-5.06-2.56-7.56.24-.16.49-.31.73-.47.91.66 1.83 1.31 3.33 2.39.31-1.2.59-2.27.87-3.36-.21-.04-.42-.08-.63-.14 1.11-.71 2.22-1.45 3.4-2.21.1.52.22 1.14.34 1.7.73-.08 1.39-.16 2.53-.3-1.06 2.16-1.96 4-2.95 6.03 1.63-.09 2.92-.14 4.31-.2-.01 2.63-.71 5.62 4.25 5.29-1.17.88-1.98 1.5-3.11 2.35 2.44.22 4.17.38 6.26.56-1.11 1.22-2.26 2.5-3.32 3.68.11.75.23 1.56.38 2.65.28.12 1.1.48 1.93.84.01.18.01.38.03.58-1.47.24-2.94.48-4.43.73.05 1.29 2.82 2.69 5.07 2.43.76-.1 1.53.03 2.21.37 2.29 1.45 4.43 3.09 6.75 4.48.62.38 1.68.16 2.53.2-.1-.81-.3-1.61-.6-2.37-.61-1.27-1.43-2.44-2.32-3.87.38-.46.96-1.13 1.6-1.89-.62-.25-1.45-.35-1.74-.77-.27-.38.03-1.11.08-1.95 1.16.42 2.01.74 2.87 1.07l.4-.74c-2.07-.88-4.14-1.77-6.71-2.86 2.76-.2 4.92-.37 7.31-.54v-5.24l.87-.05c.14 2.31.27 4.62.4 6.91.91.25.9 1.6.12 3.11 1.31.36 2.7.76 4.08 1.15-.05.27-.11.52-.17.79-1.16.49-2.34.97-4.16 1.73 1.41.41 2.2.63 2.86.83-.83 1.26-1.69 2.59-2.55 3.92.34.17.69.35 1.03.52.35-.56.69-1.14 1.1-1.83 1.43.58-.54 3.66 3.75 1.86-1.98 1.65-2.78 2.31-3.58 2.97.14.21.28.42.42.62 2.97-1.54 5.93-3.07 9.3-4.81-1.68-2.14-3.25-4.15-4.88-6.23 1.97-4.81 4.78.21 6.92.22-.86-2.71-1.66-5.19-2.45-7.68.25-.17.52-.34.79-.5.9.71 1.8 1.44 2.87 2.3.88-1.81 1.83-3.74 2.77-5.7 1.36 1.01 2.28 1.68 3.33 2.46-.58 1.35-1.32 3.08-2.28 5.29 1.45-.56 2.45-.96 3.65-1.42.6.51 1.54 1.31 1.97 1.66.3 1.59.53 2.71.81 4.18 1.53-1.2 2.46-1.92 3.78-2.93-.3 2.31-.5 4.05-.75 6.09 1.05-.11 2.11-.08 3.16.07.89.29 1.67.84 2.25 1.58.24.3-.1 1.5-.41 1.59-3.09.87-3.21 3.25-3.39 5.37 2.83 1.55 5.61 3.06 8.38 4.57.23-.24.44-.49.67-.73-.86-.62-1.72-1.24-2.4-1.72.65-1.02 1.31-2.06 2.11-3.33.37.67.69 1.27 1 1.84.34-.18.67-.35 1-.53-.77-1.18-1.53-2.38-2.41-3.74.43-.14 1.18-.4 2.23-.75-1.11-.62-2.04-1.15-3.84-2.16 1.6-.74 2.73-1.24 4.3-1.96-.53-.32-1.38-.83-2.51-1.5.91-.22 1.63-.39 2.46-.6.2-2.32.4-4.72.6-7.12.36 0 .73.02 1.1.03-.09 1.68-.19 3.34-.27 5.18h8.24c-3 1.24-5.25 2.15-7.48 3.06.05.2.11.4.18.59 1.08-.14 2.18-.26 3.26-.39.29.32.57.65.83.97-.77.46-1.56.94-2.46 1.49.51.59 1.09 1.24 1.41 1.62-1.35 2.23-2.59 4.27-3.83 6.31.3.19.58.37.86.55 2.69-1.12 5.39-2.23 8.08-3.39.12-.05-.09-.69.07-.81.67-.62 1.44-1.12 2.29-1.47 1.84-.52 3.78-.75 5.62-1.25.34-.08.47-.84.66-1.25-1.81-.2-3.4-.37-5.83-.63.83-.42 1.62-.92 2.36-1.49 1.11-1.13 2.65-2.23.3-3.69-.9-.72-1.72-1.55-2.43-2.46 1.88-.21 3.6-.41 5.78-.65-.77-.81-1.41-1.49-2.11-2.22 3.23.1 4.39-1.8 3.29-5.47 1.39.07 2.71.14 4.74.25-.63-1.02-1.13-1.67-1.48-2.4-.36-.77-.57-1.6-.88-2.48.95-.74 1.9-1.49 2.74-2.15.86.55 1.74 1.13 2.46 1.6.18 1.3.35 2.58.58 4.28 1.3-1.26 2.16-2.08 3.25-3.14 1.01 3.47.05 5.79-2.32 7.69l.38.76c1.4-.73 2.75-1.91 4.2-2.02 1.21-.09 2.53 1.08 4.14 1.85-1.89 1.21-3.39 2.2-4.67 3.01v3.21c.62 2.15 5.38.31 4.43 4.8-1.18.93-5.04.38-4.12 3.85 1.87 1.6 3.8 3.27 6.16 5.3h-6.97c-.05.22-.1.43-.15.62.83.28 1.64.57 2.45.82-.4 1.56-.76 3.05-1.17 4.68 2.72.94 5.48 1.74 8.28 2.39.9.17 2.07-.97 3.12-1.5l3.28 3.32.67-.17c-.14-.84-.28-1.69-.45-2.63.9-.58 1.93-1.24 3.2-2.05.1.5.21 1.04.32 1.64.72-.05 1.43-.11 2.56-.2-1.06 2.16-1.96 4-2.93 5.97 1.59-.07 2.8-.13 4.27-.2-.1 2.67-.22 5.43 4.24 5.37-1.11.84-1.92 1.46-3.05 2.29 2.43.21 4.16.37 6.3.55a15.4 15.4 0 00-2.57 2.78c-.41 1.1-.66 2.25-.73 3.42.59.25 1.4.62 2.22.97 0 .2.01.4.03.59-1.48.24-2.94.48-4.7.78.1 2.35 3.01 2.29 4.12 2.25 1.75-.08 3.49.3 5.05 1.11 1.67.79 4.64 1.01 5.16-2.21.36-1.04.84-2.04 1.43-2.97-.77.15-1.53.39-2.25.7a3.288 3.288 0 01-4.64-.41c-.08-.09-.15-.2-.22-.3-.41-.51-1.38-.68-2.13-.9-.83-.24-1.69-.38-2.54-.57-.02-.38-.05-.74-.06-1.11 1.66-.12 3.32-.36 4.95-.71 1.51-.6 2.97-1.32 4.36-2.16-2.55-.35-4.14-.56-5.77-.78 1.23-1.58 2.14-2.77 2.79-3.62-1.58-1.12-2.94-2.1-4.3-3.06.34-.34.66-.66 1-.99 1.84-.26 3.68-.53 5.96-.85-1.07-.67-1.84-1.14-2.3-1.42 1.36-.85 2.8-1.73 4.16-2.56-.41-1.3-.73-2.4-1.04-3.39h4.7c-.9-1.93-1.69-3.63-2.34-5.02 1.02-.74 1.94-1.38 2.86-2.04.81.57 1.83 1.28 2.63 1.84.15 1.25.3 2.46.49 4.12 1.28-1.25 2.14-2.08 2.98-2.91.3.15.59.3.89.45-.69 2.56-1.37 5.1-2.1 7.85 1.22-.72 2.49-1.97 3.85-2.1 1.07-.09 2.28 1.23 4.25 2.44-4.38.96-5.74 2.99-5.09 5.84 1.84 1.28 3.58 2.49 5.14 3.57-2.18 1.68-3.86 2.95-5.8 4.43 2.49 1.69 4.55 3.08 7.37 4.98-.9-1.79-1.44-2.83-1.97-3.88 2.75-2.28 3.08-2.14 4.5 2.25.64-.69 1.18-1.23 1.7-1.77.31.08.62.18.91.26-.49 1.83-1 3.67-1.48 5.4.95-.49 2.14-1.1 3.52-1.8.56 1.56 1.91 2.7-.46 3.8-.7.34-.76 1.9-.96 2.49 1.59 1.06 2.77 1.86 4.29 2.87-1.59 1.13-2.93 2.08-4.3 3.05.77 1.66 4.44 1.65 3.44 4.66.68.32 1.55.73 2.2 1.04 1.26-.9 2.45-1.87 3.58-2.93 1.23-1.12 2.21-2.49 2.87-4.02.54-1.66 1.6-1.26 2.79-1.47 1.02-.32 1.99-.77 2.9-1.34-.44-.56-.87-1.11-1.32-1.66-.23-.28-.72-.62-.66-.83.98-3.71-3.18-5.88-3.08-9.54 2.63 1.02 5.26 2.02 7.9 3.01-1.05-3.38-1.92-6.17-2.9-9.39 1.2.21 1.88.34 2.56.45.07-.14.12-.28.18-.42-1.65-.75-3.29-1.48-4.94-2.21.06-.23.13-.45.2-.68 1.27.24 2.55.48 4.49.86l1.48-4.82c.21-.04.42-.07.61-.11.19 1.95.36 3.92.54 6.13.48.13 1.29.32 3.04.74-1.73.48-2.53.7-3.98 1.11 1.82.6 3.12 1 5.14 1.65-1.78.84-2.82 1.32-4.23 1.98l2.52.83-2.14 2.14c1.28.85 2.17 1.42 3.23 2.13-.67.77-1.23 1.43-2.02 2.33 1.94-.42 3.61-.79 5.95-1.31-1.13 1.1-1.79 1.65-2.32 2.29-.75.9-3.01 1.26-1.32 3.18.23.27-.93 1.54-1.41 2.37-.56 1.01-1.08 2.03-1.81 3.43 2 .57 3.8 1.11 5.26 1.53 1.44-1.76 2.75-3.37 4.19-5.13-1.9-.21-3.3-.37-4.71-.54 1.95-1.21 2.88-5.72 6.03-1.6 3.44-1.26 6.76-2.47 9.76-3.57-.86-1.04-1.59-2.19-2.17-3.42-.11-.31 1.39-1.08 2.48-1.88-2.03-.11-3.9-.21-6.09-.34.33-3.01 3.64-3.57 5.99-5.7-1.8-1.33-3.62-2.7-5.88-4.39 1.7-1.02 3.75-2.27 5.86-3.55-.15-.31-1-1.19-.78-1.65.88-1.97-.64-2.28-1.92-2.98-.6-.35-1.01-.97-1.08-1.66.14-1.87 1-2.93 3.19-1.65 1.08.64 2.2 1.23 3.17 1.78-.83-2.72-1.59-5.26-2.37-7.81.19-.13.38-.25.57-.38.92.7 1.85 1.42 3.36 2.58.31-1.4.56-2.52.92-4.14.38-.3 1.37-1.05 2.1-1.6.83.62 1.75 1.29 3 2.21-.61 1.26-1.5 3.11-2.19 4.53 2.35.5 4.51.83 6.57 1.45 2.32.68 4.77-.64 5.45-2.97.15-.5.21-1.02.17-1.53a2.904 2.904 0 012.87-2.94c.38-.01.76.06 1.11.21.36.11.76.53.96.45 1.42-.59 2.28-4.55 1.69-5.37-1.7.6-3.19 1.15-4.73 1.6-.18.05-.55-.54-.87-.75-1.15-.82-2.41-1.47-3.75-1.91-1.28-2.15-.93-2.6 1.64-2.22 2.7.4 5.06-.88 5.09-2.24-1.63-.37-3.12-.7-4.7-1.06 1.44-1.47 2.55-2.64 3.67-3.81-.55.34-1.11.66-1.66 1l-3.53-4.64c2.87-.31 4.78-.5 7.55-.8-1.46-.8-2.13-1.16-3.01-1.64 3.04-.75 4.14-2.5 3.87-5.84 1.27.17 2.52.32 4.4.58-1.05-2.07-1.91-3.73-2.82-5.51 1.1-.62 2.06-1.17 3.05-1.73.77.43 1.74.97 2.95 1.63-.34.66-.72 1.39-1.08 2.11.66.4 1.32.83 1.88 1.18.94-.78 1.82-1.5 2.84-2.34v3.63c.16-.01.31-.01.47-.03-.83 1.45-1.66 2.9-2.9 5.05 3.23-1.17 5.93-4.8 8.11.14-3.71.59-4.09 3.49-4.6 5.82 1.92 1.16 3.91 2.38 5.7 3.46-2.19 1.72-4.01 3.15-5.67 4.46 2.35 2.04 4.27 3.72 6.7 5.81h-7.17c1.2 1.07 2.5 1.81 2.39 2.24-.49 1.18-1.13 2.28-1.92 3.29 1.54.89 3.16 1.64 4.83 2.23 2.11.45 4.26.73 6.41.85-1.46-1.75-2.52-3-4.15-4.94 2.65.86 4.38 1.42 6.12 1.98.25-.3.52-.63.79-.94-.75-.45-1.48-.88-2.05-1.22.42-.82.9-1.77 1.74-3.43.34.7.69 1.42 1.04 2.16 2.9-3.02-1.18-2.85-2.12-4.4 1.04-.21 1.84-.39 3.25-.69-1.4-.8-2.3-1.32-4-2.32 1.56-.77 2.73-1.33 4.12-2.03-.84-.31-1.66-.6-3.05-1.12 5.12-1.33 1.56-5.85 4.8-8.42-.63 5.11 1.35 7.36 6.82 5.92-2.01.83-4.02 1.68-6.02 2.5.06.16.13.31.19.45.85-.14 1.7-.27 3.38-.55-.88 1.37-1.42 2.2-2.1 3.22.34.3.99.82 1.96 1.62l-2.43.73c.24.09.47.19.71.28l-3.09 6.08c3.97-1.59 7-2.81 9.94-4.01-.06 1.37-.29 2.73-.66 4.05-.45 1.07-1.62 1.87-2.11 2.93a6.338 6.338 0 00-.43 4.16c-.75.41-1.5.81-2.49 1.36.57 1.16 1.11 2.25 1.66 3.36.15-.22.32-.46.47-.69 1.88.85 5.45 1.99 5.33 2.5-.63 3.25 2.89 3.83 3.87 5.91.63.94 1.38 1.8 2.22 2.55 1.38-.92 3.13-2.07 5.35-3.53-2.1-.45-3.69-.8-5.28-1.14-.02-.34-.05-.66-.08-1 1.15-.35 2.33-.58 3.53-.69 2.73.05 5.06-1.18 5.05-2.39-1.69-.27-3.25-.54-4.82-.79 1.35-1.58 2.47-2.86 3.31-3.84-1.54-1.29-2.88-2.4-4.2-3.5.17-.34.34-.66.51-.98 2.93.64 5.87 1.29 9.66 2.12-2.38-1.48-4.1-2.57-5.8-3.64 1.35-.93 2.63-1.82 4-2.76-.35-1.04-.75-2.18-1.16-3.39 1.52.13 2.89.23 4.36.34-1.1-4.27-1.05-4.75.54-7.44 1 .7 2 1.41 2.64 1.87.19 1.34.35 2.56.57 4.22 3.31-3.11 3.38-3.11 6.79-.04.35-1.35.63-2.39.9-3.42-.2-.06-.41-.11-.6-.15.94-.7 1.9-1.41 2.71-2.02.89.52 1.86 1.1 3 1.78-.38.9-.76 1.85-1.2 2.8-.42.88-.9 1.75-1.39 2.71 1.94-.17 3.64-.32 5.34-.46.31-2.49.62-4.93.93-7.34.4.02.79.04 1.2.07-.17 1.71-.35 3.41-.53 5.34h7.68c-2.59 1.14-4.81 2.12-7.05 3.11l.25.42c1.07-.07 2.14-.14 3.23-.23-.38.74-.76 1.48-1.34 2.6.21.27.8 1 .96 1.2-.47 1.23-.78 2.04-1.16 3.07.83-.17 1.52-.31 2.21-.44.14.16.27.33.41.5-1.03 1.07-2.05 2.15-3.38 3.53 2.94-1.17 5.57-2.21 8.19-3.25.21.21.43.42.65.63-1.38 2.25-2.86 4.43-4.07 6.75-.45.86-.51 1.88-.17 2.79 1.2 2.47 1.31 2.4-1.53 2.43-.32 0-.66.42-1 .65 1.04 1.49 1.97 2.51 4.23 2.65 1.41.1 4 1.07 3.56 3.63 0 .34.13.67.37.92 1.19 1.32 2.4 2.63 3.62 3.92 1.34 1.43 4.62 1.36 5.64-.35.47-.76 2.48-1.27 1.06-2.7.39-.28.81-.51 1.25-.68.49-.11 1.06.1 1.55-.01 1.07-.23 2.1-.56 3.95-1.08-1.91-.43-3.07-.66-4.42-.96.76-1.03 1.28-1.74 1.82-2.47-.85-1.12-1.63-2.16-2.56-3.38h4.68c-.79-.65-1.35-1.1-1.46-1.2.88-1.34 1.69-2.53 2.78-4.19.12-.01 1.03-.1 2.18-.2-.46-1.79-2.53-3.74.97-5.05.72 1.15 1.5 2.43 2.31 3.7.6-.48 1.24-.98 1.87-1.49.2.07.39.15.59.24-.37 1.62-.73 3.22-1.17 5.09 1.16-.42 2.16-.77 3.38-1.22.46.66.93 1.36 1.48 2.13-.73.41-1.42.86-2.09 1.35-1.43 1.24-1.12 2.8.51 3.56.64.38 1.22.85 1.72 1.41a17.09 17.09 0 004 3.23c-.78-2.53-1.56-5.07-2.33-7.61.17-.12.34-.26.51-.4.92.64 1.87 1.28 3.41 2.33.3-1.24.57-2.42.9-3.81.51-.44 1.39-1.18 2.48-2.08.18.59.39 1.24.64 2 .51-.18 1.05-.37 1.44-.51-.56-1.85-1.1-3.58-1.83-6.02 3.03 1.41 5.49 2.56 8.88 4.14-.96-2.15-1.6-3.59-2.24-5.02.22-.06.46-.11.7-.17-.65-.32-1.31-.66-2.18-1.08.67-.54 1.2-.95 1.76-1.4-.85-.91-3.66-1.88.5-2.88-1.85-.65-3.29-1.15-4.74-1.65.03-.22.06-.43.09-.66h6.03c.16-1.64.28-2.92.41-4.2h.83c.11 2 .22 3.99.35 6.1.66.13 1.34.24 2.43.45-1.07.59-1.84 1.01-2.54 1.4 1.16.52 2.25 1 3.74 1.66-1.66.93-2.62 1.47-3.97 2.23 1.11.22 1.8.36 2.45.49-.87.94-1.69 1.81-2.5 2.68.22.2.46.4.69.59.48-.35.95-.7 1.81-1.33.45 1.45.86 2.73 1.31 4.16l3-.72-3.75 7.39c1.75.97 1.47.77 2.7-.68 1.26-1.5 3.15-2.59 4.92-3.98-.23-.74-.54-1.77-.92-2.98 1.56.1 2.9.18 4.59.3-.79-1.73-1.48-3.25-2.11-4.63 1.9-.01 3.56-.01 5.2-.01.56.62 1.31-4.23 3.64-4.11l.42-.76c-1.66-1.28-3.3-2.57-5.33-4.13.03-2.62 2.99-2.59 5.33-3.18-.87-2.6-.7-5.71-4.7-6.36 2.07-1.4 4.43-1.53 8-.42-1.81-2.57-2.84-5.06-2.22-8.25.99.84 1.82 1.53 3.35 2.82.31-1.59.55-2.77.87-4.37.34-.23 1.29-.82 2.35-1.46.7.49 1.64 1.18 2.73 1.95-.75 1.69-1.5 3.42-2.35 5.36 1.81-.1 3.09-.16 4.56-.23-.34 1.16-.64 2.11-.92 3.08l4.02 2.79c-1.66 1.04-3.4 2.12-5.66 3.53 3.53-.75 6.45-1.36 10.21-2.17-1.9 2.75-3.32 4.79-4.8 6.92 1.33.47 2.33.8 3.33 1.14 0 .18 0 .37.01.54-1.46.22-2.92.46-4.5.7-.01 1.37 2.76 2.88 5.4 2.51.68-.08 1.37.05 1.97.37.24.15.24 1.15-.04 1.42-.28.27-1.17 0-1.6.25-1.17.66-2.25 1.49-3.69 2.46l-2.2.42c-.47-.6-1.13-1.44-1.79-2.3-1.07.84-1.07.84.9 5.62 4.35-.63 4.82-.3 5.56 4.08.43 2.56 1.96 3.48 4.74 3.01 1.4-.22 2.86-.18 4.3-.27.05.31.11.62.16.92-.92.43-1.87.87-2.8 1.29 2.76-.66 4.56.58 6.23 2.37.57.48 1.32.68 2.04.53.69-.46 1.21-1.13 1.48-1.91.17-.96.55-1.87 1.11-2.66.24 1.14 1.04 2.54.59 3.36-1.26 2.26-.11 2.87 2.04 3.5-.83.28-1.66.55-2.77.91 1.62.48 2.87.85 4.12 1.2l-.08.93c-1.02.41-2.03.82-3.67 1.49 1.25.37 2 .58 2.74.8-.8.79-1.63 1.6-2.46 2.44.14.18.28.38.42.56.6-.3 1.22-.6 1.76-.87.5.92.97 1.77 1.46 2.65-.42.33-1 .78-1.56 1.24l.22.44c1.5-.38 3-.76 4.05-1.01-1.8 3.67-3.6 7.32-5.56 11.32a538 538 0 016.35 1.57c-.21-.88-.39-1.67-.46-1.98 1.31-1.15 2.35-2.08 3.73-3.29-1.67-.21-2.88-.35-3.96-.49 1.11-.78 2.23-1.54 3.34-2.31-.33-.46-.66-.94-1-1.42.87.63 1.73 1.26 2.7 1.97 3.29-1.18 6.63-2.38 9.46-3.4a29.82 29.82 0 01-1.63-3.97c-.06-.2 1.11-.7 2.55-1.56h-6.4c.22-3.21 3.68-3.64 5.92-5.93-1.79-1.33-3.59-2.68-5.84-4.34 1.6-1.07 3.63-2.4 5.75-3.82-.87-1.77-.49-5.08-4.82-5.15 1.22-1.4 2.21-3.15 2.73-3.04 1.61.34 3.05 1.4 4.99 1.85a7.23 7.23 0 01-.84-1.48c-.59-2.04-1.13-4.11-1.68-6.18.24-.12.47-.25.7-.38.79.76 1.56 1.52 2.96 2.87.39-1.4.71-2.54 1.22-4.29.27-.16 1.29-.84 2.5-1.63.11.51.24 1.09.37 1.68.73-.04 1.44-.09 2.54-.16a718.02 718.02 0 00-2.68 5.33c2.44.54 4.72 1.03 6.99 1.56 2.82.68 5.02-1.21 5.11-4.41.08-2.4 1.73-3.4 4.28-2.59.22.07.45.31.62.27 1.6-.43 2.56-4.64 1.38-5.98-1.76 2.7-3.17 2.69-5.57.53-1.17-1.04-3.05-1.4-4.63-2.08-.01-.28-.03-.57-.04-.87 2.9-.42 5.79-.84 8.69-1.25.11-.28.23-.55.35-.83-.79-.24-1.57-.49-2.36-.72-.94-.28-1.9-.56-2.81-.83 1.15-1.49 2.13-2.75 2.81-3.63-1.5-1.46-2.79-2.7-4.05-3.92 2.12-.3 4.04-.56 6.58-.91-1.22-.64-1.9-1-2.49-1.31 1.42-.99 2.7-1.89 3.81-2.66-.14-1.22-.26-2.34-.39-3.49 1.53.14 2.81.27 4.49.44-.96-1.94-1.75-3.56-2.56-5.2 1.04-.73 2.11-1.48 3.53-2.48.98 1.92 1.96 3.86 2.93 5.77 1-.85 1.87-1.59 2.75-2.32.3.11.57.22.87.34-.7 2.58-1.42 5.16-2.17 7.89 2.35-1.07 4.85-4.21 7.27.23-3.02 1.02-4.8 2.97-4.47 5.98 1.77 1.13 3.74 2.41 5.39 3.46-2.17 1.76-3.87 3.15-5.52 4.49 2.28 1.94 4.25 3.61 6.2 5.27-.15.21-.31.41-.46.62h-5.93c.01.24.01.49.01.73.66.11 1.32.23 1.69.3.18 1.79-.28 4.38.67 4.95 2.4 1.47 5.46 2.01 8.26 2.94.14-.28.3-.56.43-.84-1.08-1.25-2.18-2.52-3.88-4.49 2.65.85 4.38 1.41 6.1 1.97.3-.34.59-.66.89-.98-.92-.33-1.84-.65-2.18-.76.6-1.42 1.01-2.39 1.52-3.56.59.52 1.2 1.04 1.85 1.62 2.32-2.69-1.87-2.52-2.02-4.32l2.77-.42c-1.49-.9-2.45-1.48-4.14-2.49 1.59-.76 2.79-1.32 4.11-1.94-.9-.44-1.79-.88-2.67-1.31.07-.23.14-.44.21-.66l2.92-.52v-6.95c.27-.06.54-.1.8-.16.28.56.48 1.15.6 1.76.3 3.6.89 4.09 4.69 3.83.69-.07 1.4.06 2.02.38l-6 2.49c.07.17.14.33.2.49.83-.16 1.67-.31 3.36-.62-.85 1.35-1.37 2.19-2.04 3.29.3.24.94.76 1.91 1.55-.98.31-1.66.53-2.35.74.23.1.45.19.68.27-.92 1.79-1.82 3.56-3.11 6.12 3.94-1.59 6.96-2.82 10.58-4.28-1.72 4.08-3.14 7.43-4.87 11.53-3.29.67-.69 2.76.35 4.67 3.73-.9 4.76-.18 5.64 3.87.03.13.23.23.35.34 1.79 1.66 3.58 3.32 5.43 5.05-.62.11-1.26.24-1.91.36.11.27.22.54.32.8 1.85-.69 3.69-1.37 5.83-2.18l-3.03-1.71c1.13-.38 1.96-.65 3.42-1.13-1.69-.73-2.83-1.21-3.98-1.7-.1-.28-.21-.55-.32-.83 1.37-.53 2.77-1.08 4.16-1.61-.68-.41-1.49-.92-2.29-1.41.76-.44 1.53-.89 2.35-1.35.12-2.24.25-4.54.38-6.85.3.03.57.04.85.07v5.4h7.61c-2.63 1.24-4.81 2.26-6.99 3.28.09.11.17.24.25.35 1.17-.13 2.35-.25 3.52-.37l.25.93c-.78.48-1.57.97-2.4 1.49.57.62 1.16 1.27 1.9 2.07-.7.34-1.2.58-1.8.86.95.67 1.86 1.31 2.87 2.02-1.57.87-3.12 1.75-4.65 2.6.18.3.38.59.56.89 5.02-1.5 9.27-4.3 13.38-7.48.02-2.8-2.3-3.46-4.76-3.77.06-3.55 3.05-3.46 5.39-4.11-1.1-2.45-.68-5.72-4.78-6.3 1.47-1 5.41-1.21 8.11-.45a9.296 9.296 0 01-2.21-8.18l3.18 2.74c.39-1.42.69-2.49 1-3.57l-.55-.13c.93-.72 1.86-1.42 2.83-2.17.7.54 1.56 1.18 2.73 2.07-.68 1.56-1.45 3.36-2.27 5.29 1.82-.07 3.1-.13 4.52-.19-.32 1.07-.6 1.97-.93 3.04 1.18.85 2.45 1.76 3.92 2.82-1.5.95-3.27 2.11-5.45 3.51 3.43-.76 6.38-1.4 10.07-2.21-1.92 2.83-3.32 4.9-4.78 7.06 1.26.37 2.22.65 3.16.93.03.21.04.42.07.65-1.43.24-2.87.48-4.51.74.04.14.01 1.18.35 1.31 1.63.51 3.3.92 4.98 1.24.75.05 1.5.18 2.22.39.28.14.18.96.27 1.47-.73.01-1.47.01-2.18.05-.41.03-.97 0-1.17.23-.56.89-1.2 1.72-1.91 2.49-.43.32-1.47-.02-2.84-.1-.19-.23-.86-1.07-1.55-1.9-1 .67-1 .67.84 5.48 4.47-.45 4.94-.11 5.63 4.07.45 2.71 2.14 3.64 5.29 3.1 1.26-.13 2.53-.16 3.8-.1.01.26.04.52.07.78-.9.42-1.8.84-2.14 1 1.73.55 3.7 1.18 5.99 1.9-2.18 1.45-3.92 2.59-5.78 3.82 1.03 1 2.46 1.48 3.88 1.3h.01c0-.09 0-.19-.02-.28l.42.21c1.04-.17 1.97-.73 2.59-1.58 1.6-3 4.33-.65 6.37-2.38-.1-2.16.42-4.52 3.95-5.19.75-.14 1.21-1.5 1.41-2.64-1.54 1.6-2.73 2.8-4.35.24a.451.451 0 00-.21-.2c-.97-.49-1.94-.97-2.91-1.45 1.21-.35 2.42-.69 3.61-1.07.86-.28 1.7-.6 3.17-1.14-2.03-.31-3.17-.48-4.87-.74 4.37-2.59-.01-3.87.1-5.63 1.13-.1 2.39-.22 3.77-.35-.56-.48-.99-.86-1.45-1.25 1.74-.97 4.04-1.58 2.05-4.36 1.28.17 2.2.3 3.3.45.16-1.84-2.71-3.86 1.3-5.2.63 1.1 1.39 2.44 2.12 3.75.56-.48 1.17-1.01 2.21-1.91-.1 1.97-.17 3.37-.24 4.95 1.86-.14 3.85-.28 5.89-.44.13-1.25.24-2.29.36-3.33.32-3.04.87-3.32 4.19-2.69.53.12 1.56-.61 1.87-1.18.77-1.45 1.19-3.06 1.25-4.7-1.06.8-2.11 1.6-3.6 2.76-.34-.32-.83-.77-1.27-1.17l-.07.11c-2.2-1.12-4.15-2.1-6.18-3.15.2-1.1.47-1.73 2.48-1.35 1.73.33 3.76-.61 5.63-1.08.24-.07.58-.7.48-.88-.23-.37-.6-.63-1.03-.72-1.25-.1-2.5-.04-3.98-.04 1.2-1.59 2.18-2.93 3.11-4.17-1.42-1.23-2.67-2.32-4.16-3.61 2.33-.31 4.06-.53 6.41-.83-.91-.68-1.63-1.21-2.48-1.83 3.17-.66 5.04-2.29 3.24-5.7h4.6c-.72-1.69-1.46-3.42-2.1-4.91.98-.69 1.9-1.32 2.88-2.01.8.54 1.84 1.23 2.31 1.54.24 1.58.41 2.82.67 4.62 1.41-1.5 2.2-2.33 2.99-3.16.39.2.77.39 1.15.6-.86 2.4-1.73 4.81-2.72 7.59 2.04.68 5.07-5.5 6.98-.28-1.59 2.07-3.14 4.09-4.7 6.13 2.34 1.41 4.44 2.7 6.34 3.84-2.16 1.73-3.88 3.1-5.52 4.4 1.73 2.59 5.78 2.67 5.66 6.18-3.05-.47-3.05-.47-3.26 2.01-.01.1-.01.22-.08.28-1.59 1.25-1.93 2.74-.12 3.88 1.13.7 2.75.77 4.13 1.17.57.15 1.1.46 1.66.63.63.3 1.33.44 2.03.41 3.25-.85 3.24-.89 5.53 1.59-.65.26-1.26.55-1.91.79-.73.26-1.49.52-2.24.77 1.04.7 2.11 2 3.15 1.98 1.39-.01 2.76-1.05 4.62-1.85-2.93-1.2.22-6.01-4.79-5.63-.12-.87-.25-1.72-.36-2.57 2.77-.33 4.71-1.89 4.68-4.29-.01-1.06-2.25-2.08-3.87-3.45.27-.77.19-2.7 2.97-2.53.32.03.84-.94 1.07-1.53.31-.94.58-1.89.79-2.86-1.1-.71-2.52-1.64-4.01-2.61.49-.88.98-1.78 1.63-2.94 1.93.86 3.71 1.66 6.02 2.68-1.6-2.7-2.97-5.09-2.24-8.25 1 .79 1.89 1.48 3.39 2.66.25-1.52.45-2.65.73-4.25.41-.28 1.41-.94 2.39-1.59.75.55 1.66 1.21 2.72 1.98-.7 1.72-1.45 3.53-2.31 5.66 1.89-.41 3.15-.68 4.77-1.02-.41 1.31-.76 2.44-1.13 3.58 1.27.88 2.55 1.77 4 2.77-1.65 1.02-3.42 2.12-5.8 3.6 3.68-.78 6.61-1.4 9.57-2.03.18.3.36.58.53.87-1.28 1.11-2.56 2.24-4.06 3.56.07.41.25 1.41.49 2.66.41.08 1.45.3 2.49.51 0 .22.01.43.01.66-1.45.31-2.88.62-4.56.98-.08 1.06 2.76 3.15 4.94 2.48 3.42-1.06 2.79.7 2.48 2.46l.01.01c1.3.29 2.61.58 3.79.86l-1.15-4.64.8-.34c.66.34 1.32.67 1.8.93.78-1.27 1.48-2.42 2.01-3.3 1.07.48 1.79.79 2.84 1.25 1.17.82-4.15 3.68 1 3.8a5.37 5.37 0 005.02 5.7c.08 0 .15.01.23.01-.84 1.01-1.55 1.83-2.49 2.94.39.5 1.01 1.29 1.89 2.43-1.03.28-2.03.56-3.91 1.07 2.37.62 4.09 1.07 6.18 1.62-.01.04-.17.6-.31 1.16-2.43-.87-3.93 4.52-6.79.67.1 2.09.1 2.09 4.95 4.66-.53 3.68.82 4.58 5.01 3.38 3.5 3.61 4.94 4.04 10.25 3.02-2.51-1.4-5.02-2.78-7.69-4.26 1.38-.58 2.77-1.16 4.51-1.9.19.07.92.4 2.6 1.1-1-1.28-1.44-1.88-2.27-2.95.88-.1 1.81-.21 2.72-.3 1.82-.18 3.63-.35 5.26-.52.26-1.58.76-2.74.57-3.81-.57-3.05 2.94-2.8 3.43-2.48 1.97 1.23 2.14-.1 2.56-1.1.52-1.26.88-2.58 1.32-3.88-.34-.14-.69-.28-1.03-.42-.7.73-1.4 1.45-2.25 2.32-.52-.46-1.05-.93-1.59-1.39-.1.2-.2.39-.25.49-2.1-1.11-4.02-2.14-6.14-3.26.39-.74.21-1.94 2.44-1.26 2.55.88 5.33-.47 6.21-3.01 0-.01 0-.03.01-.04-1.17.52-2.03 1.2-2.81 1.16-.7-.05-1.35-.91-1.96-1.37.9-1.15 1.89-2.4 2.34-2.98-1.5-1.34-2.75-2.43-4.22-3.73 4.44-2.06 7.27.1 10.42.3-2.01-1.08-4.04-2.18-6.57-3.54 4.27-.49 5.22-2.63 4.04-5.54h4.5c-.82-1.9-1.57-3.63-2.13-4.97 1.07-.8 1.97-1.47 2.79-2.08.9.6 1.91 1.3 2.27 1.54.3 1.64.51 2.85.8 4.45 1.35-1.37 2.16-2.2 2.96-3.02.36.21.74.41 1.11.62-.83 2.52-1.66 5.03-2.55 7.75 2.3-.42 4.62-4.83 6.81-.51-1.5 2.08-2.99 4.14-4.47 6.18 2.47 1.63 4.26 2.81 5.98 3.93-2.07 1.69-3.75 3.06-5.57 4.53 2.27 1.83 4.64 3.51 7.11 5.05 2.34 1.12 4.74 2.09 7.2 2.89.17-.27.34-.52.51-.79-1.6-.92-3.19-1.84-5.09-2.94 1.02-.14 1.83-.25 2.9-.41-.48-.84-.93-1.63-1.47-2.56.4-.44.9-1.01 1.43-1.58-.65-.73-1.26-1.41-2.25-2.54h3.64c.07-.2.15-.41.22-.6-2.13-.77-4.27-1.54-6.41-2.31.03-.15.04-.3.07-.43h7.31c-.18-1.83-.36-3.6-.53-5.36.38-.06.77-.11 1.15-.15.38 2.39.75 4.76 1.15 7.38.52.1 1.27.24 2.52.48-1.28.71-2.16 1.22-3.11 1.75 1.55.6 2.63 1.05 3.72 1.47-.78.87-1.55 1.74-2.38 2.7.49.1 1.21.24 2.49.49-1.13.93-1.97 1.6-2.83 2.32 1.73.77 3.31 1.48 4.88 2.19.07-.14.14-.28.21-.4-.48-.26-.95-.51-1.12-.6 1.81-1.96 3.58-3.87 5.51-5.94-.23-.33-.44-.68-.62-1.04 1.42-.94 2.88-1.81 4.39-2.66 1.08-.6 2.74-.91 3.15-1.76.34-.7-.79-2.01-1.03-3.12-.72-1.23-1.28-2.56-1.66-3.94-.11-.83-2.22-1.84-1.87-2.7-.6-1.06-1.22-2.15-1.83-3.22.31-.39.64-.8.94-1.21 2.89 1.16 5.76 2.31 8.74 3.5 2.21-2.59-1.73-2.73-1.82-4.72.07-.04.51-.31 1.13-.68-.72-.15-1.34-.28-2.31-.49.73-.88 1.33-1.6 1.89-2.29-.7-.52-1.41-1.06-2.94-2.22 1.98-.09 3.11-.14 4.22-.2.07-.13.13-.27.2-.41-2.11-.87-4.22-1.73-6.48-2.67 1.92-1.77 4.34 1.6 5.82-.93.04-.06 1.57-4.33 2.18-4.89v7.15c1.24.27 2.04.44 3.25.69-1.27.76-2.13 1.27-3.17 1.89 1.83.39 3.29.72 4.77 1.04 0 .28.01.56.01.86-1.3.66-2.63 1.31-3.93 1.97.05.17.12.32.18.47.72-.04 1.42-.08 2.78-.18-1.23 1.63-2.18 2.87-3.13 4.12.25.19.52.37.77.55.47-.39.93-.77 1.32-1.11.69.9 1.33 1.72 2.16 2.8-.33.27-.93.75-1.54 1.22.09.17.17.36.26.52 1.74-.39 3.48-.78 6.01-1.36-1.73 1.76-2.88 2.94-4.03 4.11.18.28.36.55.55.83 2.97-.82 5.97-1.5 8.83-2.56.45-.17.73-2.4.21-2.87-2.73-2.5.35-2.08 1.46-3.24h-5.75c.18-3.17 3.57-3.77 5.51-6.14-1.53-1.25-3.23-2.66-5.56-4.57 1.9-1.07 4.03-2.28 6.66-3.74a73.647 73.647 0 01-4.63-5.35c-.3-.41.37-2.07.86-2.18 1.1-.14 2.21-.01 3.24.4.85.34 1.67.78 2.44 1.29-.87-2.62-1.64-4.98-2.43-7.33.3-.18.58-.36.87-.55.82.6 1.65 1.2 2.54 1.84 1.82-.67 2.41-1.61.61-2.88 1.28-.84 2.32-1.55 3.01-2.01 1.05.52 1.95.97 3.04 1.53-.64 1.45-1.46 3.25-2.37 5.29h4.76c-.35 1.16-.66 2.18-.94 3.07.6.63 1.25 1.32 2.11 2.22l2.67-.21c-1.26.96-2.1 1.57-3.27 2.47 2.4.23 4.07.4 6.28.6-1.26 1.28-3.01 2.25-3.2 3.45-.2 1.2 1.13 2.62 2 4.33-1.09.14-2.56.34-4.1.55-.1.82 1.38 2.21 3.29 2.52 1.66.26 3.38.28 5.4.45-1.26 2.88-6.32-.13-5.27 5.16-1.86-2.73-2.46-1.39-2.9-.48-1.83.07-1.6-3.28-4.26-1.73 1.15 2.02 2.21 3.9 2.95 5.22 1.42-.19 2.56-.65 3.17-.31.81.43 1.97.56 1.63 2.53-.66 3.8 2.57 5.27 6.75 3.88 1.57-.52 3.4-.41 5.44-.62-.76-1.56-1.52-3.09-2.25-4.57 1.08-.8 1.98-1.48 2.83-2.11.9.55 1.85 1.14 2.6 1.59.24 1.34.46 2.55.73 3.98 1.2-1.2 1.93-1.94 2.91-2.92.39 1.75.66 2.94.82 3.61-.96 1.69-1.73 3.08-2.5 4.47 2.88-1.01 5.24-3.67 7.56.66-1.25.83-2.8 1.87-4.09 2.72v3.98c.89 1.05 5.1-.21 4.6 3.74-1.94.67-4.54 1.21-4.39 3.91 2 1.69 3.94 3.35 5.88 4.99-.18.2-.37.38-.53.56-2.03-.11-4.05-.21-6.08-.32-.04.27-.07.54-.11.8.77.25 1.54.49 2.53.82-.37 1.42-.75 2.85-1.23 4.71 2.76.81 5.57 1.8 8.48 2.38.79.15 1.87-.99 2.82-1.52 1.08 1.05 2.19 2.13 3.37 3.27-1.2.21-2.43.44-4.47.79 1.01 1.2 2.01 2.36 3.35 3.94-.57.38-1.65 1.1-2.86 1.91.62.37 1.25.73 1.3.76 2.12-1 3.68-2.11 5.43-2.45 2.02-.39 1.73-1.63 1.36-2.54-.78-1.84-1.72-3.61-2.81-5.29-.76-1.25-1.75-2.4-3.06-4.18 2 .57 3.45.97 4.88 1.38.09-.11.16-.22.24-.34-.53-.43-1.05-.88-1.57-1.32.58-.79 1.15-1.57 1.78-2.43.48.41.96.8 1.44 1.2l.76-.63c-.89-.92-1.76-1.85-2.8-2.94.53-.28 1.1-.6 1.91-1.06-.97-.39-1.69-.7-3.11-1.29 1.38-.82 2.41-1.42 3.4-2.01-.42-.19-1.18-.52-2.5-1.1 4.7-1.37 1.94-4.85 3.74-7.26.16 1.28.33 2.56.48 3.91.75.31 1.63.69 2.27.96 1.73-.95 3.39-1.85 5.2-2.84.45.18 1.25.5 2.04.81.78-1.32-3-2.1-.13-2.71 2.25-.19 4.51-.38 6.62-.57.27-1.64.52-2.75.65-3.88a3.022 3.022 0 013.32-2.69c.14.02.28.04.42.08.58.14 1.67.11 1.83-.17.94-1.65 1.52-3.48 1.71-5.37-1.05.75-2.11 1.5-3.4 2.4l-1.46-1.24c-.11.18-.24.36-.31.48-2.12-1.07-4.12-2.11-6.88-3.53 1.65-.36 2.73-.6 3.82-.85 1.68-.38 3.37-.74 5.03-1.22.28-.09.37-.76.55-1.17-.44-.15-1.15-.55-1.25-.45-1.56 1.62-2.44-.44-3.69-.3 1.11-1.42 2.1-2.69 3.05-3.92-1.39-1.2-2.61-2.25-4.1-3.53 2.27-.33 4.12-.59 6.56-.95-1.16-.74-1.95-1.25-3.06-1.96 4.41-.2 4.82-2.56 3.71-5.38h4.53c-.82-1.91-1.56-3.64-2.14-4.98 1.07-.8 2-1.47 3.07-2.27.24.28.6.69.96 1.11zm1485.83-471.08c.36.05.7.09 1.07.12l-.3.21c-.25-.11-.5-.22-.77-.33z"/><path id="Path_317" d="M906.1 882s82.74-36.06 139.05-86.74c56.3-50.67 46.45-71.79 46.45-71.79s2.81 15.48 45.04-22.52 74.6-85.86 116.83-105.57c-4.05 24.88-2.51 30.43-47.55 57.18-23.21 13.78-9.59 57.54-29.78 77.17-10.65 10.35-60.31 21.36-60.31 21.36s-11.45 28.86-25.34 38.01C996.75 850.79 906.1 882 906.1 882z" fill="#115458"/></g></svg>