<?xml version="1.0" encoding="utf-8"?>
<!-- Generator: Adobe Illustrator 25.2.1, SVG Export Plug-In . SVG Version: 6.00 Build 0)  -->
<svg version="1.1" id="Layer_1" xmlns="http://www.w3.org/2000/svg" xmlns:xlink="http://www.w3.org/1999/xlink" x="0px" y="0px"
	 viewBox="0 0 1920 565.53" style="enable-background:new 0 0 1920 565.53;" xml:space="preserve">
<style type="text/css">
	.st0{fill:#1E3433;}
	.st1{fill:#115458;}
</style>
<g id="Group_1123" transform="translate(-1 -366.24)">
	<path id="Path_315" class="st0" d="M1091.3,723.5c0.03,0.07,0.1,0.25,0.2,0.58C1091.42,723.89,1091.35,723.7,1091.3,723.5z"/>
	<path id="Path_316" class="st0" d="M1921,931.77H808.85c0,0,179.79-85.83,236.05-136.52c50.77-45.73,47.69-67.41,46.61-71.18
		c1.12,2.45,7.92,10.08,44.79-23.14c42.16-38,74.51-85.86,116.7-105.56s82.95-56.31,194.02-67.56c72.86-7.4,145.7-8.11,190.4-8.54
		c23.46-0.23,39.15-0.35,43.02-1.32c3.9-0.97,54.13-2.15,118.04-3.28c7.52-0.14,15.21-0.27,23.06-0.39
		c32-0.53,66.64,83.62,99.56,83.15L1921,931.77z"/>
	<g id="Group_1116" transform="translate(1794.89 366.24)">
		<path id="Path_318" class="st0" d="M126.11,186.82c-0.24,0.41-0.78,3.68-1.02,4.07c-2.24-5.11-4.49-10.62-6.68-16.19
			c2.42,0.87,4.89,1.58,7.4,2.11v-1.36c-3.23-4.29-7.43-13.47-11.35-23.08c1.41,0.52,3.69,1.42,7.29,2.91
			c-6.2-5.43-18.79-41.12-18.79-41.12s-7.64,22.77-21.67,41.64c2.07,0,7.65-2.59,7.65-2.59l1.94-0.13
			c-4.02,9.02-8.69,17.73-13.98,26.07c3.89-1.23,7.71-2.69,11.42-4.39c-2.04,4.77-4.26,9.76-6.69,14.82
			c-2.55-4.01-5.64-10.87-8.55-18c1.2,0.45,3.11,1.2,6.15,2.46c-5.22-4.57-15.86-34.71-15.86-34.71s-6.44,19.21-18.3,35.14
			c1.74,0,6.44-2.18,6.44-2.18l1.65-0.1c-3.18,7.12-6.83,14.01-10.93,20.65c-1.99-3.83-3.71-7.8-5.15-11.87
			c1.49,0.51,3.4,1.18,5.43,1.98c-1.67-1.38-4.14-6.24-6.33-11.14c1.68-0.1,3.37,0.19,4.92,0.84c-3.28-3.04-9.9-23.01-9.9-23.01
			c-2.76,8.24-6.6,16.07-11.42,23.3c2.07-0.32,4.11-0.76,6.13-1.31c-2.18,4.07-4.7,7.94-7.54,11.59c2.04-0.27,4.06-0.64,6.06-1.11
			c-2.13,4.61-4.58,9.06-7.33,13.33c1.36,0,5.04-1.95,5.04-1.95l1.28-0.1c-2.06,5.27-4.4,10.44-7,15.47
			c-0.7,1.36-1.43,2.74-2.19,4.08c1.24-0.41,2.46-0.89,3.66-1.43c0.91-0.42,1.87-0.89,2.84-1.35c-0.49,1.2-0.98,2.39-1.5,3.6
			c-0.22,0.52-0.45,1.04-0.69,1.56c-0.25,0.59-0.51,1.2-0.79,1.8c-3.58,8.18-7.67,16.12-12.25,23.78c3.26-1.07,6.45-2.35,9.55-3.83
			c-3.33,8.35-7.16,17.02-11.45,25.5c-1.17,2.29-2.36,4.57-3.59,6.82c0.21-0.07,0.42-0.08,0.63-0.16l-0.24,0.3l125.71-31.64V186.82z
			 M80.57,191.77c-0.83,1.69-1.67,3.39-2.55,5.11c-0.86-2.22-1.72-4.49-2.55-6.75C77.21,190.76,78.94,191.33,80.57,191.77
			L80.57,191.77z M41.49,194.02l-0.13,0.21c0.11-0.03,0.24-0.08,0.35-0.11c0.6,0.28,1.27,0.59,2.04,0.96
			c-0.36-0.39-0.69-0.82-0.97-1.28c2.62-0.87,5.85-2.21,8.96-3.6c-2.11,5.33-4.5,10.93-7.17,16.61c-2.1-4.54-3.97-9.18-5.61-13.91
			C39.53,193.13,40.38,193.5,41.49,194.02L41.49,194.02z"/>
	</g>
	<g id="Group_1117" transform="translate(1628.621 381.73)">
		<path id="Path_319" class="st0" d="M203.92,155.26c-2.74-5.03-5.32-10.18-7.7-15.34c-1.15-2.47-2.26-4.92-3.31-7.36
			c-1.42-3.24-2.76-6.44-4.03-9.61c3.1,1.48,6.29,2.75,9.56,3.83c-5.84-9.85-10.93-20.13-15.24-30.74c2.11,1.06,4.28,1.99,6.5,2.77
			c-2.08-3.69-4-7.52-5.7-11.3c-0.42-0.9-0.82-1.79-1.2-2.67c0.56,0.27,1.28,0.6,1.99,0.87c0.64,0.3,1.32,0.49,2.03,0.56
			c-0.46-0.7-0.92-1.41-1.34-2.12c-0.46-0.75-0.92-1.51-1.34-2.25c-0.52-0.87-1-1.76-1.46-2.63c-1.62-2.98-3.04-5.94-4.28-8.73
			c2.29,0.51,6.29,1.37,7.16,1.37c-3.56-4.6-6.64-9.56-9.19-14.79h0.03c0,0,6.66,1.72,7.76,1.72c-4.83-7.23-8.67-15.07-11.43-23.31
			c0,0-6.63,19.98-9.9,23.01c1.93-0.79,4.04-1.05,6.1-0.76c-2.42,5.69-5.52,12.2-7.5,13.84c2.48-0.97,4.76-1.76,6.33-2.3
			c-1,2.74-2.06,5.55-3.1,8.07c-2.76-3.39-6.46-11.46-9.91-19.93c1.18,0.45,3.1,1.2,6.14,2.46c-5.22-4.58-15.86-34.71-15.86-34.71
			s-6.45,19.21-18.3,35.15c1.74,0,6.45-2.18,6.45-2.18l1.65-0.1c-2.87,6.41-6.12,12.65-9.73,18.68c-2.22-5.11-4.49-10.63-6.67-16.19
			c2.85,1.06,5.8,1.85,8.8,2.35c-3.34-3.07-8.22-13.6-12.75-24.69c1.41,0.52,3.69,1.42,7.29,2.91C115.56,35.68,102.96,0,102.96,0
			s-7.64,22.76-21.68,41.64c2.07,0,7.64-2.59,7.64-2.59l1.94-0.13c-4,9.02-8.68,17.74-13.97,26.08c3.89-1.22,7.71-2.69,11.42-4.39
			c-2.03,4.77-4.25,9.76-6.69,14.82c-2.55-4.01-5.65-10.87-8.56-18c1.2,0.45,3.11,1.2,6.15,2.46c-5.22-4.58-15.86-34.71-15.86-34.71
			S56.9,44.4,45.05,60.33c1.74,0,6.45-2.18,6.45-2.18l1.65-0.1c-3.18,7.12-6.84,14.02-10.94,20.65c-1.98-3.84-3.7-7.81-5.14-11.88
			c1.49,0.51,3.39,1.18,5.42,1.98c-1.68-1.38-4.12-6.24-6.32-11.13c1.68-0.1,3.36,0.19,4.91,0.84c-3.27-3.04-9.9-23.01-9.9-23.01
			c-2.76,8.24-6.6,16.08-11.42,23.31c2.06-0.32,4.11-0.76,6.12-1.31c-2.17,4.07-4.69,7.95-7.53,11.58c2.04-0.27,4.06-0.64,6.07-1.11
			c-2.13,4.61-4.58,9.06-7.33,13.33c1.37,0,5.04-1.94,5.04-1.94l1.28-0.1c-2.62,6.71-5.7,13.24-9.21,19.54
			c2.23-0.78,4.4-1.71,6.5-2.77c-4.31,10.61-9.4,20.89-15.23,30.74c3.26-1.07,6.45-2.35,9.54-3.83c-1.92,4.79-4,9.7-6.24,14.61
			c-2.7,5.96-5.63,11.92-8.8,17.71c0.21-0.07,0.42-0.08,0.63-0.16l-0.24,0.3H203.2l-0.25-0.39
			C203.3,155.11,203.61,155.16,203.92,155.26z M164.37,78.08c-0.73,1.73-1.45,3.29-2.11,4.59c-0.86-1.93-1.72-3.87-2.56-5.83
			C161.23,77.34,162.79,77.76,164.37,78.08L164.37,78.08z M131.36,76.93c-1.01,2.15-2.07,4.36-3.18,6.59
			c-0.69-1.44-1.38-2.91-2.07-4.48C127.76,78.43,129.56,77.71,131.36,76.93L131.36,76.93z M80.57,77.6
			c-0.83,1.69-1.68,3.39-2.55,5.1c-0.86-2.21-1.72-4.48-2.55-6.74C77.21,76.59,78.94,77.17,80.57,77.6L80.57,77.6z M41.48,79.85
			l-0.13,0.21c0.11-0.03,0.24-0.08,0.35-0.11c0.61,0.28,1.27,0.59,2.06,0.96c-0.37-0.39-0.7-0.82-0.99-1.28
			c2.63-0.87,5.86-2.21,8.97-3.6c-2.11,5.32-4.5,10.92-7.18,16.61c-2.1-4.54-3.97-9.18-5.6-13.91
			C39.54,78.97,40.37,79.33,41.48,79.85L41.48,79.85z"/>
	</g>
	<line id="Rectangle_1328" class="st0" x1="1920.99" y1="831.77" x2="1920.7" y2="831.77"/>
	<g id="Group_1118" transform="translate(1362.295 378.052)">
		<path id="Path_320" class="st0" d="M1.57,52.24c1.93,0.9,4.18,0.85,6.07-0.14c2.06-1.01,5.8-2.86,5.8-2.86L10.73,57l1.46,0.68
			l1.92-5.82c0,0-0.36,6.32-0.23,8.45c0.11,2.49-0.13,4.98-0.71,7.4c-0.57,2.38-0.39,3.5,0.09,4.49s0.34,2.63,0.41,3.89
			s0.59,1.24,1.05,1.86c0.43,0.39,0.54,1.02,0.27,1.53c-0.25,0.6-0.5,0.62-0.34,0.99s0.21,0.62,0.32,0.92s-1.51,5.91-1.38,7.07
			s-0.76,3.51-0.76,5.29s-0.3,6.73,0.18,8.88s1.72,5.08,2.17,7.77s1.24,9.25,1.26,10.3c-0.01,0.68,0.03,1.35,0.14,2.02
			c0.09,0.39,1.21,0.25,1.21,0.25s0.18,1.38,0.28,3.14c0.65,4.68,1.59,9.32,2.82,13.88c0.82,3.25,1.31,6.58,1.44,9.94
			c0.12,0.93-0.01,1.87-0.39,2.72c-0.05,0.1-1.31-0.71-2.27-0.94s-2.66-0.04-2.52,0.76s1.56,0.32,2.08,0.25
			c0.93-0.05,1.86,0.02,2.77,0.21c0.05,0.14-2.73,1.33-3.23,1.81s-3.57,2.02-4.92,1.85s-5.77-0.84-6.5,0.37s-0.59,1.99,0.14,2.73
			s3.07,1.85,6.96,1.81c4.03,0.08,8.05,0.47,12.02,1.17c1.92,0.39,5.31-0.59,5.52-3.04s-0.14-5.11-0.64-5.7
			c-0.31-0.37-0.8-0.55-1.28-0.46c-0.07,0.02-0.89-7.4-0.92-9.3s0.34-8.7,0.48-10.33c0-2.54-0.21-5.07-0.64-7.58
			c-0.23-0.85-0.76-4.19-0.76-4.19s3.11,4.03,4.85,6.16s6.09,7.47,6.55,8.24c0.6,1.4,1.13,2.83,1.58,4.28
			c0.55,1.49,0.9,3.05,1.05,4.63c-0.03,0.55-2.32,1.47-2.59,2.59s-0.55,1.35,0.55,1.4s1.63-2.5,1.63-2.5s-0.14,2.08-0.14,2.38
			s-0.85,5.24-1.53,5.98s-1.26,1.01-1.35,1.7s0.82,2.63,1.19,2.47s8.43-2.63,10.05-5.11s4.24-6.11,4.51-6.66s0.92-2.55-0.18-3.03
			c-0.45-0.16-0.87-0.37-1.26-0.64c0,0-3-3.57-3.32-3.83c-0.6-0.22-1.24-0.35-1.88-0.39c0,0-2.34-5.52-3.21-7.38
			s-5.34-11.98-6.32-13.51c-0.65-1-1.4-1.93-2.22-2.79c-0.12-0.26-0.28-0.51-0.46-0.74c-0.3-0.37-0.43-0.32-0.43-0.69
			s0.25-3.87,0.37-5.24c0.14-1.19,0.35-2.38,0.62-3.55c1.31-2,2.37-4.14,3.18-6.39c1.31-3.67,3.03-8.13,3.48-9.78
			c0.5-1.81,0.87-3.65,1.1-5.52c-0.02-0.62,0.82-0.53,0.69-1.4c-0.09-0.54-0.24-1.06-0.46-1.56l-0.14-3.11l1.37-4.63
			c0.77,1.62,1.27,3.35,1.47,5.13c0.04,2.15-0.37,2.43-0.37,2.43l0.82-0.05c0.28-1.43,0.23-2.9-0.14-4.3
			c-0.64-1.88-1.15-3.2-1.15-3.2s5.86,0.82,6.55-1.92s-0.46-4.63-0.46-5.22s2.38-5.45,2.15-6.69s1.51-11.82,1.51-14.29
			s0.18-9.85-3.39-12s-3.48-1.7-3.48-1.7s-0.32-1.28-2.43-2.33s-3.53,1.19-3.53,1.19c-0.35-1.48-1.25-2.78-2.52-3.62
			c-2.06-1.28-6.09-2.7-6.37-3.02s-0.41,0.05-1.51-1.92c-0.37-0.99-1.47-1.49-2.45-1.12c-0.08,0.03-0.17,0.07-0.25,0.11
			c0,0-0.21-2.36-0.27-2.33s0.21-0.3,0.32-0.78s2.22-8.08,1.76-10.19S30.64,3.1,28.3,1.85c-1.27-0.81-2.7-1.35-4.19-1.56
			c-0.47-0.07-0.94-0.16-1.4-0.27v0.34L21.79,0.2l0.12,0.25c0,0-1.92-0.07-2.2-0.09s-0.8-0.07-0.8-0.07l0.41,0.32
			c0,0-0.92,0.25-1.19,0.32s-1.4,0.18-1.4,0.18l1.01,0.53l-1.35,0.11l0.14,0.14c-0.17,0.14-0.36,0.26-0.55,0.37
			c-0.09,0.02-0.87,0.07-0.87,0.07l0.3,0.39l-0.3,0.23l0.23,0.3l-0.89,0.39l0.69,0.25l-0.9,0.91l0.53,0.02
			C14.3,5.87,13.98,6.97,13.8,8.1c-0.14,1.08-0.19,2.17-0.15,3.26c0,0-1.21-0.16-1.21,0c0.02,0.84,0.19,1.67,0.5,2.45
			c0.17,0.32,0.43,0.6,0.73,0.8l0.14,0.16c0.1,0.2,0.2,0.41,0.28,0.62v0.92c0,0-2.52-0.3-2.96,0.62s-1.58,4.26-1.88,4.99
			c-0.5,1.16-0.76,2.42-0.76,3.69c0.09,1.37,0.11,1.72,0.11,1.72c-0.56-0.12-1.11,0.23-1.23,0.79c0,0.01,0,0.02-0.01,0.03
			c-0.22,1.06-0.63,2.08-1.22,3c-0.43,0.66-2.31,1.28-3.18,3.68c-0.81,2.07-1.48,4.19-1.99,6.35c-0.43,2.2-0.75,4.43-0.96,6.66
			C-0.04,49.1-0.15,51.34,1.57,52.24z M13.07,29.36c-0.03-0.3,1.92-1.56,2.41-2.41c0.45-0.9,0.69-1.89,0.7-2.9
			c0.03-0.86,0.15-1.77,0.15-1.77c0.79,0.14,1.55,0.43,2.23,0.86c0.61,0.55,1.92,2.23,1.96,3.27s-0.43,1.83-0.89,1.86
			c-0.97,0.03-1.93,0.16-2.87,0.37c-0.74,0.32-1.44,0.73-2.08,1.22C14.26,30.15,13.1,29.66,13.07,29.36z"/>
	</g>
	<g id="Group_1119" transform="translate(1408.464 382.958)">
		<path id="Path_321" class="st0" d="M55,23.79c0.91,0.4,1.51,1.28,1.53,2.27c-0.13,0.93-1.66-0.53-1.66-0.53S54.49,23.79,55,23.79z
			"/>
		<path id="Path_322" class="st0" d="M25.63,33.42c0.04,0.3,0.05,0.61,0.04,0.92C25.64,34.03,25.63,33.72,25.63,33.42z"/>
		<path id="Path_323" class="st0" d="M48.26,25.92c-0.06,0.04-0.12,0.08-0.18,0.12c-0.31-0.59-0.56-1.22-0.75-1.86
			C47.16,23.39,48.14,25.35,48.26,25.92z"/>
		<path id="Path_324" class="st0" d="M0.2,80.25c0.46,0.48,1.01,0.87,1.29,0.83s0.92,0.39,1.29,0.19s1.1,0.29,1.69-0.02
			S6.04,81,6.56,80.43s-0.17-0.73,0.77-1.86c1.27-1.24,2.23-2.76,2.81-4.44c0.77-2.36,1.09-4.25,4.96-6.78
			c3.9-2.85,7.54-6.04,10.88-9.54c0.33-0.39,0.64-0.79,0.92-1.22c0,0,0.96,11.7,0.15,14.64s-1.42,3.79-0.77,4.25
			c0.44,0.29,0.92,0.51,1.43,0.64c0,0-2.7,8.04-2.89,8.96s-0.79,13.54-1.32,15.05s-0.85,1.21-0.88,2.45s-0.59,2.02-0.66,3.4
			s0.15,2.25,0.81,2.8s0.75,1.93,1.1,2.81s-0.18,1.72,0.15,2.73s3.31,11.24,3.49,12.27c0.32,0.93,0.72,1.84,1.18,2.71
			c0.16,0.6,1.41,7.68,1.73,8.76s1.01,3.19,0.68,4.02s-0.18,1.24-0.07,1.24c-0.98,1.86-2.72,3.21-4.76,3.7
			c-3.2,0.67-5.66,1.95-3.18,3.26s5.95,0.6,9.24,0.67s6.25,0.3,7.88-0.25s2.48-1.08,2.13-2.69s-0.46-1.5-0.46-1.5
			s0.16-2.78-0.44-3.22s-0.07-0.42-0.35-1.15s-0.35-1.12-0.64-1.77s0.35-1.26,0.42-2.3s-1.29-3.88-2.02-5.74s-1.27-9.01-1.58-10.34
			s-2.48-9.08-2.48-9.08c2.02,1.52,3.95,3.16,5.77,4.92c1.82,1.93,6.78,8.34,8.42,9.54s4.95,3.88,4.74,4.48
			c-0.36,0.78-0.06,1.7,0.68,2.14c0.92,0.39,0.31,0.5,1.1,1.45c0.65,0.86,1.24,1.76,1.75,2.71c-0.11,1.45-0.44,2.87-0.97,4.23
			c-0.74,1.52-1.75,2.62-1.45,3.45s1.89,1.33,4.12-1.38c1.98-2.35,4.21-4.46,6.67-6.3c1.49-1.05,3.07-3.77,2.37-4.73
			c-0.56-0.72-1.35-1.23-2.24-1.43c-1.1-0.43-2.11-1.05-2.98-1.83c-0.13-0.41-0.57-2.8-1.54-2.85s-1.23,0.05-1.8-1.15
			c-0.3-0.72-0.84-1.31-1.54-1.66c-0.61-0.46-2.19-4.69-5.57-8.36c-1.99-2.31-4.1-4.52-6.32-6.62c-1.23-1.01-3.03-2.2-3.03-2.76
			s-0.7-0.55-1.05-0.55s-0.22-0.96-0.62-0.96s1.1-0.46,0.44-1.01s-0.31-1.88,0.08-2.3s0.97-0.64,0.53-1.15s0.61-0.55,0.57-1.06
			s4.25-11.9,4.56-12.69s0.75-0.55,0.83-1.33s0.7-3.12,0.7-3.12l1.14,0.23l1.41-4.09c0.24,0.94,0.41,1.89,0.52,2.85
			c0,0.69,1.67,4.59,1.82,5.29s0.68,1.22,1.38,0.92l0.7-0.3c0,0,0.63,0.64,1.01,0.16c0.24-0.34,0.41-0.73,0.48-1.15
			c0,0,0.57,0.09,0.81-0.26c0.16-0.42,0.24-0.88,0.22-1.33c0,0,0.77-0.02,0.5-0.83c-0.34-1.52-0.79-3.01-1.34-4.46
			c-0.63-1.06-1.18-2.16-1.63-3.31c-0.45-2.03-0.64-4.1-0.56-6.17c0.19,0.89,0.35,1.53,0.46,1.87c0.64,1.9,1.17,3.84,1.58,5.81
			l1.36-0.41l-1.36-2.45c0,0-1.41-5.57-0.79-5.01s5.23,0.17,7.41-3.53c1.69-3.07,3-6.32,3.92-9.7c0.18,0.24,0.43,0.43,0.71,0.53
			c0.38,2.61,0.19,5.28-0.57,7.81l-1.4,3.74h1.28c0,0,1.79-4.01,1.66-5.61c-0.08-1.01-0.26-4.02-0.39-6.12
			c0.8-0.65,1.15-1.7,0.89-2.7c-0.16-0.5-0.85-2.21-1.36-3.45C68.68,47.58,67.1,43.24,66.6,40c0.19,0.03,0.39,0.03,0.57-0.02
			c0.49-0.14,0.96-0.33,1.41-0.57c0.06,0.45,0.37,2.98,0.37,3.47c-0.05,0.65-0.13,1.3-0.25,1.94h0.57l0.26-1.14
			c0.05-1.57-0.08-3.14-0.38-4.68l-0.2,0.11c0.18-0.18,0.29-0.42,0.32-0.67c-0.07-1.25-0.3-2.49-0.7-3.68l-0.19-0.15
			c-0.5-0.96-1.11-1.87-1.81-2.7c-2.53-3.17-9.3-5.34-9.3-5.34c0.07-1.18-0.19-2.35-0.75-3.39c-0.89-1.32-2.4-1.01-3.15-0.86
			c-0.61,0.12,0.26,2.27,0.61,3.08c-0.41-0.4-0.9-0.7-1.44-0.87c-1.17-0.48-3.1,0.59-4.17,1.28c-0.07-0.4-0.15-0.82-0.19-1.1
			c-0.09-0.62-0.51-0.73-0.66-1.24s-1.4-5.82-1.1-7.58s0.42-11.28-3.66-13.88c-3.03-2.06-6.86-2.58-10.33-1.4
			c-2.61,0.85-4.12,3.52-4.52,8.14s-1.29,10.34-2.72,12.8s-2.15,2.92-1.84,5.45c0.08,1.12,0.29,2.22,0.64,3.29
			c-0.15-1.05-0.24-2.11-0.26-3.17c0.09-0.53,0.16,2.42,0.66,3.67l0.51,1.26c0,0-0.33-1.65-0.37-2.41s0.35,2.67,0.68,3.63
			c0.1,0.39,0.26,0.76,0.46,1.1c0,0.54-0.01,1.23-0.06,1.93c-0.11,1.54-0.42,1.98-0.2,2.07s0.31,0.6,0.31,0.6S23.9,46.85,23.15,48
			s-3.29,3.74-4.81,6.36s-5.02,8.18-6.45,9.49c-1.43,1.31-4.65,5.1-5.92,6.25s-4.65,3.81-5.24,5.93S-0.26,79.76,0.2,80.25z
			 M25.67,34.33c-0.03-0.3-0.04-0.61-0.04-0.92C25.67,33.72,25.68,34.03,25.67,34.33L25.67,34.33z M54.87,25.52
			c0,0-0.38-1.74,0.13-1.74c0.91,0.4,1.51,1.28,1.53,2.27C56.4,26.99,54.87,25.52,54.87,25.52L54.87,25.52z M48.25,25.92
			c-0.06,0.04-0.12,0.08-0.18,0.12c-0.31-0.59-0.56-1.22-0.75-1.86C47.16,23.39,48.14,25.35,48.25,25.92L48.25,25.92z"/>
	</g>
	<g id="Group_1120" transform="translate(1488.29 421.373)">
		<path id="Path_325" class="st0" d="M31.12,47.1c0.1-1.04,0.01-2.09-0.27-3.1c-0.32-1.64-1.55-1.05-1.55-1.05s-0.14-1.64-0.37-3.51
			s-0.64-4.7-0.96-6.89c-0.35-2.32-0.84-4.62-1.46-6.89c-0.46-1.51-3.38-3.15-4.56-4.06c-0.3-0.22-0.63-0.41-0.97-0.57
			c-0.01-0.79-0.17-1.58-0.44-2.32c-0.73-0.44-1.59-0.61-2.43-0.48c-0.64,0.17-1.13,0.7-1.26,1.35c-0.9-0.26-1.82-0.47-2.74-0.62
			l-0.35-1.14v-0.91c0-0.46-0.12-1.11-0.12-1.4c0-0.16-0.05-0.74-0.09-1.25c0.07-0.24,0.19-0.7,0.37-1.5
			c0.32-1.48-0.09-1.6-0.03-2.95c0.04-1.66-0.2-3.32-0.7-4.91c-0.64-1.65-1.67-3.11-3-4.27C9.53,0.08,8.65-0.12,7.82,0.1
			c0,0-0.67,0.23-0.91,0.12s-0.17,0.4-0.35,0.37S6.27,0.8,6.1,0.74S5.57,1.17,5.48,1.17C4.71,0.95,3.91,0.88,3.11,0.96
			C1.77,1.1,2.41,0.9,0.36,1.9c-1.55,0.79-2.82,2.01-3.69,3.5c-0.57,1.14-0.91,2.39-1,3.67c0.02,1.06,0.32,2.1,0.88,3
			c0.23,0.29,0.46,0.93,0.32,0.99c-0.14,0.03-0.29,0.02-0.43-0.02l0.08,0.09c0.08,0.09,0.44,0.08,0.44,0.08l-0.05,0.29
			c-0.13,0.4-0.34,0.77-0.61,1.09c-0.22,0.24-0.26,0.6-0.09,0.88c0.15,0.24,0.76,0.46,0.76,0.46c0.05,0.12,0.07,0.25,0.08,0.38
			c-0.04,0.36-0.01,0.72,0.09,1.07c0.15,0.29,0.84,0.23,0.84,0.23c-0.17,0.15-0.31,0.32-0.44,0.5c-0.18,0.27,0.31,0.56,0.43,0.67
			c0.23,0.27,0.41,0.58,0.55,0.91c0.04,0.37,0.18,0.73,0.4,1.04c0.29,0.27,1.43,0.14,1.43,0.14l-0.02,0.17
			c-0.01,0.17-0.43,1.05-0.38,0.97s0.73-0.97,0.73-0.97s-0.52,1.14-0.65,1.44s-0.67,1.6-0.76,1.84C-0.85,24.65-0.94,25-1,25.35
			c0,0.05,0.02,0.11,0.05,0.15c0,0,0.05-0.12,0.17-0.64C-0.54,24.22-0.24,23.6,0.1,23c0.23-0.5,0.93-2.1,0.94-2.01
			s-0.79,2.46-1.25,3.54c-0.69,1.43-1.49,2.81-2.4,4.11c-0.36,0.38-0.78,0.68-1.25,0.91l0.43,0.06l-0.49,0.33
			c0.14,0,0.29-0.01,0.43-0.03c0.15-0.03,0.94-0.64,0.79-0.36c-0.12,0.23-0.22,0.46-0.3,0.7l0.67-0.64l-0.09,0.24
			c-0.09,0.24-0.52,1.16-0.52,1.16l0.3-0.33c0.19-0.21,0.34-0.44,0.46-0.7c0,0,0.09,0.64,0.15,1.22c0,0.47-0.12,0.93-0.33,1.34
			l0.33-0.27c0.22-0.22,0.36-0.51,0.4-0.82c0.04,0.23,0.04,0.47,0,0.7c-0.17,1.15-0.4,2.28-0.7,3.41c-0.45,1.69-0.62,3.45-0.52,5.2
			C-2.79,43.07-3.18,48-3.18,48c-0.15,0.19-0.28,0.41-0.36,0.64c-0.16,0.37-0.21,0.79-0.12,1.19c0.09,0.46-0.4,0.79-0.58,1.07
			s-0.7,1.03-0.7,1.03l0.55,0.03c-0.31,0.38-0.64,0.73-1,1.06c-0.66,0.66-1.2,1.44-1.6,2.28c-0.23,0.59-0.71,1.57-0.78,1.92
			C-7.84,57.57-8.3,58-7.68,58.06s1.12-0.98,1.12-0.98s-0.07,0.8-0.07,0.92c-0.07,0.32-0.19,0.62-0.34,0.91
			c-0.15,0.14-0.23,0.34-0.23,0.55c0,0.3,0.66,0.39,0.84,0.46c0.47,0.07,0.94,0.08,1.42,0.02c0.36-0.06,0.7-0.22,0.98-0.46
			c0.49-0.28,0.93-0.63,1.32-1.03c0.37-0.94,0.68-1.91,0.91-2.9c0.54,0.25,1.11,0.45,1.69,0.59c-0.37,1.56-0.66,3.15-0.87,4.74
			c-0.05,1.19-1.14,5.02-1.23,7.21s-0.46,6.43-0.64,8.53c-0.05,1.39,0.46,2.74,1.42,3.74c0.72,2.61,1.21,5.28,1.46,7.98
			c-0.05,1.46,0.55,1.14,0.46,1.92s0.91,1.42,0.41,2.33s0.14,2.14,0,2.14c-0.38,0-0.75,0.17-1,0.46c-0.19,0.35-0.24,0.76-0.14,1.14
			c-1.54,1.05-3.17,1.95-4.88,2.69c-1.1,0.25-1.79,1.36-1.54,2.46c0.04,0.19,0.12,0.38,0.21,0.55c0.73,1.05,2.55,1.05,4.7,0.96
			c1.43-0.11,2.82-0.49,4.1-1.14c0,0-0.64,1.64-0.27,2.42s2.1,1.69,3.47,2.1c1.82,0.44,3.71,0.54,5.57,0.27
			c0.82-0.32,3.15-0.09,4.24-0.18s3.19-0.05,3.74-1.1s-0.82-5.02-0.82-5.02s0.27-0.68,0.36-0.87s-0.27-1.14-0.18-1.32
			c0.25-0.47,0.42-0.98,0.5-1.51c0-0.46-0.36-0.73-0.41-1.05s-0.59-1.28-0.46-1.55s0.78-0.18,0.82-1.05
			c0.02-1.25-0.09-2.51-0.32-3.74c-0.23-1.05-1-6.02-1.14-6.57s-0.91-1.6-0.64-2.19s-0.32-0.37-0.78-0.87s-0.5-2.37-0.23-3.33
			s-1.1-1.92-0.96-2.6c0.09-0.85,0-1.7-0.27-2.51c-0.18-2.12-0.05-4.25,0.36-6.34c0.27-0.37-0.09-1,0.32-1.14s0.73-0.96,0.73-0.96
			l0.68-0.41c0.69-0.41,0.27-1.6,0.27-1.6l0.64-0.05l-0.5-2.42c0.19,0.18,0.43,0.3,0.69,0.36c0.32,0.03,0.64,0.07,0.96,0.14
			l1.32,1.19c0,0,1,0.5,1.14,0.59c0.38,0.25,0.75,0.53,1.1,0.82c0.36,0.32-0.14,0.87-0.14,0.87l1.28-0.18
			c-0.2-0.53-0.46-1.04-0.78-1.51c-0.23-0.14-2.74-2.19-2.74-2.19s3.24-0.23,4.11-0.14s3.28,0.18,4.15-0.27s1.6-3.92,1.82-4.74
			s0.41-5.48,0.41-5.48s0.68,1.5,1,1.55s0.55-0.09,0.55-0.23S30.98,47.51,31.12,47.1z M12.2,95.36c-0.09,0.24-0.94,0.73-0.94,0.94
			s0.46,0.94,0.31,1.13s-0.06,1.03-0.06,1.03c-0.54,0.14-1.05,0.37-1.52,0.67c-0.17,0.21-0.35,0.41-0.55,0.61
			c-0.51,0.19-1.04,0.35-1.58,0.46c-0.21-0.03-0.03-0.46-0.15-0.94s-0.12-2.1-0.21-2.68c-0.07-0.38-0.23-0.75-0.46-1.07
			c0,0,0.18-1.06-0.24-1.49s0.18-0.49-0.09-1.1s-0.58-0.97-0.48-1.37s0.43-0.39,0.24-0.88c-0.29-1.56-0.43-3.15-0.43-4.74
			C6,84.41,5.84,82.89,5.55,81.4c-0.03-0.35-0.14-0.69-0.31-1c-0.17-0.43-0.31-0.88-0.39-1.34c-0.15-0.52-0.24-0.36-0.18-0.85
			s0.15-0.91,0.18-1.07c0.35-0.84,0.57-1.73,0.64-2.64c0-1.19,0.3-1.25,0.43-2.13c0.18-0.87,0.42-1.72,0.73-2.55l-0.12,1.07
			c0,0,0.58,2.8,0.7,3.62c0.22,1.49,0.6,2.94,1.13,4.35c0.27,0.55,0.5,1.12,0.7,1.7c0.15,0.3,0.73,0.7,0.76,1.19
			s0.43,0.46,0.43,0.46s-0.21,0.03,0.12,0.37s0.46,0.27,0.52,0.43s0.43,3.71,0.64,5.11s0.61,3.59,0.61,4.35s-0.49,1.31-0.3,1.77
			S12.29,95.11,12.2,95.36z M13.48,13.41c0.01-0.15,0.2-2.02,0.2-2.02c0.07,0.52,0.1,1.05,0.08,1.58c-0.04,0.33-0.15,0.85-0.22,1.2
			C13.5,13.79,13.47,13.47,13.48,13.41L13.48,13.41z M17.32,19.74c0.16-0.15,0.36-0.35,0.6-0.6c0.91-0.97,2.06,0.24,2.06,0.67
			c0.02,0.28,0.05,0.57,0.11,0.85C19.09,20.28,18.02,19.98,17.32,19.74L17.32,19.74z"/>
	</g>
	<g id="Group_1121" transform="translate(1569.685 405.294)">
		<path id="Path_326" class="st0" d="M27.5,23.02c0.28,0.03,0.4,0.54,0.45,1.05c-0.32-0.12-0.65-0.19-0.98-0.22
			c-0.1,0-0.19-0.01-0.29-0.02C26.82,23.49,27.11,22.97,27.5,23.02z"/>
		<path id="Path_327" class="st0" d="M-14.96,118.15c0.39,2.07,2.29,2.64,4.18,3.09c1.76,0.27,3.55,0.18,5.27-0.25
			c1.38-0.27,2.78-0.38,4.18-0.32c1.62,0.1,5.24,0.14,6.08-0.46s1.12-2.43,0.63-3.76c-0.46-1.26,0.04-2.67-0.02-3.12
			c0.32-0.06,0.7-0.14,1.18-0.24c2.82-0.59-1.65-1.29,0.23-2.59s0-2.59,0.23-3.41s-1.65-1.65-1.29-2.47
			c0.41-2.69,0.61-5.4,0.59-8.12c0.1-0.77,0.29-1.52,0.59-2.24c0.33-0.86,0.37-1.81,0.12-2.7c-0.47-1.18-0.82-0.94-0.71-2.35
			s0.12-2.35,1.06-3.18s1.41-2.47,2.35-3.88c0.34-0.51,0.65-1.04,0.92-1.6c0.44,1.73,1.02,3.41,1.74,5.04
			c0.69,1.55,1.77,2.89,3.13,3.9c2.11,1.58,2.81,1.79,3.48,2.64s2.49,3.87,3.34,4.85s1.27,1.3,1.27,1.86
			c0.1,0.55,0.4,1.03,0.84,1.37c0.25,0.21,0.95,0.21,0.84,1.16s0.6,1.58,1.02,2.42s1.23,0.46,1.06,1.23s-0.28,1.44-0.28,1.44
			s-0.67,2.92-1.09,4.22c-0.27,1-0.93,1.84-1.83,2.35c-0.84,0.56-1.93,1.48-1.23,3.02s3.27,1.27,4.78,0.77s4.6-3.45,5.2-4.11
			s5.2-2.92,5.17-3.94c-0.25-1.67-1.04-3.21-2.25-4.39c1.39-1.64-0.57-1.66-0.81-2.95s-1.77-2.23-2.23-3.65s-2.12-2.23-2.59-4.71
			s-3.41-2.59-3.53-3.77s-3.65-4.12-3.29-5.06s-0.82-0.71-0.35-1.41s-1.65-0.82-1.53-1.65s-1.3-1.41-1.53-3.41
			c-0.15-1.3-0.36-5.12-0.48-7.61c0.42-1.43,1.14-3.42,1.44-4.24c0.29-1.07,0.46-2.16,0.49-3.27c0,0,1.02,1.97,0.7,2.81
			c-0.26,1.1-0.41,2.21-0.46,3.34c-0.25,0.69-0.54,1.36-0.88,2c-0.07,0.14,1.09,0.25,1.09,0.25c0.25-0.63,0.43-1.29,0.53-1.97
			c0.04-0.7,0.04-3.27,0.04-3.27c0.27,1.06,0.48,2.12,0.63,3.2c0,0.56-0.18,1.9-0.18,1.9L24,71.05c0.06-1.07,0-2.14-0.18-3.2
			c-0.38-1.29-0.66-2.61-0.84-3.94c0-0.4-0.03-0.8-0.11-1.2l1.18,0.04c0,0,9.86-1.32,10.23-10.49s0.47-7.75,0.47-7.75
			s-0.37,1.32,0.26,1c0.13-0.06,0.27-0.14,0.39-0.21c0.25,0.88,0.73,0.88,0.79,0.65c0.04-0.15-0.23-0.55-0.49-0.88
			c0.33-0.33,0.4-0.84,0.15-1.24c-0.53-1-1.15-1.96-1.84-2.85c-0.45-0.79-0.79-1.64-1-2.53c0.19-2.16,0.23-4.32,0.1-6.48
			c-0.26-2.79-0.84-4.95-1.64-5.9c-0.77-0.74-1.68-1.32-2.68-1.71c0-0.02,0.01-0.03,0.01-0.05c0.16-1.09-0.54-2.13-1.62-2.39
			c-0.92-0.14-1.14,1.01-1.19,1.74c-0.35-0.08-0.68-0.19-1.01-0.34c0,0-7.33-0.28-4.43-4.73c0.04-0.06,0.08-0.14,0.13-0.21
			c0.15,0.14,0.29,0.22,0.28,0c-0.01-0.18-0.01-0.39,0-0.58c0.05-0.12,0.1-0.25,0.16-0.38l0.38,0.62l-0.07-1.49l0,0l0.36,0.92
			L21.93,15l-0.02,0.04c0.31-1.1,0.48-2.24,0.49-3.38v-0.01c0.18-0.82,1.17-1.7,0.95-3.06c-0.24-1.61-0.86-3.14-1.8-4.47
			c-0.4-0.88-1.02-1.64-1.79-2.22c-0.87-0.58-1.84-0.98-2.86-1.2c-0.25-0.08-0.5-0.16-0.76-0.22c-3.22-0.8-6.81-0.57-8.23,0.3
			S3.4,3.2,2.62,5.5s-0.3,3.08-0.3,3.08S-0.74,8.4-1.2,9.16s0.71,1.76,2.08,2.18c1.1,0.34,1.19,0.24,2.66,0.7
			c0.11,0.4,0.1,0.83-0.03,1.23c-0.32,0.4-0.66,0.78-1.02,1.14c-0.25,0.26-0.51,0.58-0.11,0.95s0.79,0.56,0.77,0.83
			c-0.02,0.35-0.12,0.69-0.3,0.98c-0.16,0.14-0.23,0.3,0.07,0.6c0.16,0.17,0.36,0.3,0.58,0.37c0,0-0.49,0.65-0.32,0.9
			c0.09,0.14,0.23,0.23,0.39,0.26c0.21,0.23,0.33,0.52,0.35,0.83c-0.04,0.4-0.09,1.55,1,1.83c0.84,0.18,1.69,0.25,2.55,0.23
			c0.54,0.08,1.04,0.32,1.44,0.7c0.17,0.93,0.24,1.88,0.23,2.83c-0.31,0.61-0.87,1.06-1.53,1.23c-0.53,0.07-0.95,0.26-0.91,0.37
			s0.33,0.28,0.46,0.56s-1.76,1.6-1.99,2.13s-1.62,6.22-1.7,6.91s-1.46,12-1.56,14.53c-0.1,2.53-0.77,7.03-0.63,8.22
			c0.14,0.83,0.61,1.56,1.3,2.04c0.32,0.32-0.49,2.25-0.49,2.25l-0.1,0.74c0,0-0.95,2.39-1.41,3.48c-0.47,1.14-0.51,2.42-0.1,3.58
			c0.42,1.23,0.88,1.41,0.88,1.41s-1.93,4.15-2.46,5.17s-1.97,4.01-2.35,4.88c-0.26,1.07-0.45,2.15-0.56,3.23
			c-0.29,1.06-0.28,2.18,0.04,3.23c0.32,0.53-0.18,0.98,0.1,1.34s0.14,0.84,0.39,1.3s1.26,9.21,1.3,10.44s-0.7,3.41-0.63,4.74
			s-0.74,1.48-0.49,2.21c0.12,0.48-0.03,0.99-0.39,1.34c-0.66,0.34-1.23,0.82-1.69,1.41c-0.42,0.74-1.76,0.74-2.99,1.23
			s-3.09,1.58-3.9,1.62S-15.34,116.08-14.96,118.15z M26.68,23.82c0.14-0.33,0.43-0.85,0.82-0.8c0.28,0.03,0.4,0.54,0.45,1.05
			c-0.32-0.12-0.65-0.19-0.98-0.22C26.88,23.84,26.78,23.83,26.68,23.82z"/>
	</g>
	<g id="Group_1122" transform="translate(1528.664 409.5)">
		<path id="Path_328" class="st0" d="M34.14,37.92c0.11-1.54-1.06-3.48-1.62-5.47s-0.45-2.73-1.85-4.97
			c-0.24-0.39-0.54-0.74-0.89-1.04c0.2-0.49,0.37-0.98,0.5-1.49c0.06-0.4-0.28-1.84-1.51-1.69c-0.78,0.09-1.23,1.09-1.45,1.81
			c-0.52-0.15-1.03-0.34-1.52-0.57c-0.5-0.41-0.98-0.86-1.43-1.33c0.29-0.66,0.51-1.34,0.64-2.05c0.08-1.06,0.06-2.13-0.08-3.19
			c0.1,0.56,0.24,1.11,0.42,1.65c-0.15-1.01-0.13-2.03,0.06-3.03c0.34-1.29-0.56-4.32-0.17-3.23s0.84,3.98,0.9,3.58
			c0.05-1.41-0.2-2.82-0.73-4.13c-0.84-1.64-1.5-3.38-1.96-5.17c-0.62-2.24-3.12-4.18-4.05-5.01c-1.68-1.12-3.52-1.98-5.46-2.55
			C11.77,0.02,9.62,0.34,7.55,1C5.74,1.51,4.19,2.67,3.18,4.26c-0.61,1.56-1,3.2-1.15,4.87c-0.02,0.58,0.06,1.16,0.24,1.71
			c0.07,0.14,0.12,0.29,0.15,0.45L2.25,11.3l0.25,0.2c0.05,0.1,0.07,0.21,0.07,0.32c0.01,0.25-0.42,1.38-0.62,2.36
			s-0.07,1.89-0.27,2.55c-0.12,0.54-0.2,1.09-0.23,1.64c-0.14,0.35-0.28,0.73-0.41,1.13c-0.23,0.66-0.26,1.38-0.08,2.06
			c-0.71,0.72-1.59,1.38-2.01,1.91c-0.62,0.81-1.13,1.14-1.34,1.55c-0.38,0.52-0.8,1.01-1.26,1.45c0.27-0.11,0.52-0.26,0.73-0.46
			c0.31-0.35,0.58-0.73,0.83-1.13c-0.2,0.44-0.44,0.86-0.73,1.24c-0.45,0.58-1.12,1.09-1.37,1.49c-0.17,0.32-0.27,0.67-0.29,1.03
			c0,0,0.04-0.11,0.1-0.25c0.01,0,0.1,0.07,0.45,0.02c0.29-0.05,0.58-0.12,0.87-0.21c-0.24,0.15-0.43,0.35-0.57,0.58
			c-0.22,0.39-0.3,0.66-0.09,0.42c0.14-0.15,0.33-0.23,0.53-0.25c-0.13,0.19-0.29,0.36-0.46,0.52c-0.27,0.18-0.59,0.25-0.91,0.21
			c0,0,0.07,0.29,0.64,0.24S-3.57,30-3.57,30c-0.53,0.66-1.03,1.35-1.48,2.06c-0.62,0.99,0.77,1.97-0.01,3.33
			c-0.47,0.88-0.66,1.89-0.53,2.88c-0.12,0.58-0.14,1.18-0.07,1.76c0.07,0.61,0,1.24-0.2,1.82c0.16,0.98,0.45,1.92,0.86,2.82
			l0.28,2.35c-0.14,0.59-0.18,1.19-0.11,1.79c0.18,1.16,0.57,2.27,1.18,3.28c0,0-0.22,0.1-0.56,0.94s1.62,3.53,1.62,3.53
			s-0.56,3.38-0.78,4.47s-1.91,9.64-2.24,11.43s0.06,1.84-0.67,3.38s-0.28,3.73,0.11,5.47S-5,84.1-4.66,85.69
			c0.34,1.59,1.01,6.56,1.34,9.69s0.34,3.83-0.11,5.02c-0.24,1.39-0.31,2.81-0.2,4.21c-0.23,0-0.47,0.01-0.7,0.02
			c0.01,0.7,0.34,1.32,0.22,1.32c-0.44,0-0.85,0.17-1.17,0.47c-0.22,0.35-0.28,0.78-0.16,1.18c-1.81,1.09-3.7,2.02-5.68,2.78
			c-1.59,0.38-2.39,2.02-1.54,3.11s2.97,1.08,5.46,0.99c1.65-0.1,3.27-0.5,4.77-1.18c0.86,0,1.72-0.05,2.58-0.15
			c-0.4,0.69-0.34,1.54,0.14,2.18c0.99,1.26,3.46,1.26,6.36,1.15c1.92-0.12,3.8-0.59,5.56-1.37c0,0,6.49,0.07,7.35-1.99
			c0.28-0.67-0.04-0.55-0.21-1.13l-0.02-0.07c0.23-0.79,0.16-1.63-0.19-2.37c-0.02-0.31-0.05-0.59-0.08-0.77
			c-0.11-0.47-0.32-0.9-0.62-1.28c0,0,0.25-1.28-0.33-1.79c-0.02-0.02-0.03-0.03-0.05-0.04c0.11-0.37,0.22-1.72,0.33-1.97
			s-0.45-1.79-0.39-2.24c-0.08-0.98-0.1-1.95-0.06-2.93c0.17-1.09-0.28-5.77-0.17-6.91s-0.84-3.73-0.56-4.18s-0.95-3.23-0.95-3.23
			c-0.28-0.47-0.45-1-0.5-1.54c0-0.7-0.56-1.79-0.34-2.39c0.18-0.49,0.2-1.03,0.06-1.54c-0.12-1.07-0.02-2.15,0.28-3.18
			c0.39-1.64,0.34-4.47,1.01-5.82s1.85-2.09,2.91-4.62s0.11-7.8,0.11-7.8c0.44,0.4,0.95,0.7,1.51,0.89
			c0.79,0.11,1.59,0.06,2.35-0.15c0,0,0.9,4.02,1.18,4.82c0.32,0.95,0.57,1.92,0.73,2.91c0,1-0.19,1.98-0.56,2.91l1.51,0.15
			c0.37-0.84,0.52-1.77,0.45-2.68c-0.28-0.9-0.67-2.73-0.84-3.03s-1.18-5.17-1.18-5.17l2.02-0.2c2.02-0.2,3.92-2.29,4.98-3.88
			s0.79-4.62,0.79-4.62s0.95,0.15,1.23-0.2c0.26-0.76,0.13-1.59-0.34-2.24c-0.5-0.85-1.45-1.79-1.34-2.44
			c0.15-1.04,0.18-2.09,0.11-3.13c-0.11-0.45-0.34-2.09-0.34-2.09S34.03,39.46,34.14,37.92z M-3.41,28.05
			c-0.08,0.2-0.96,0.36-0.97,0.36c0.07-0.16,0.16-0.32,0.27-0.46c0.22-0.29,0.94-0.72,0.91-0.57C-3.25,27.61-3.32,27.83-3.41,28.05
			L-3.41,28.05z M3.32,81.26c0.43-2.22,0.98-4.41,1.64-6.56c0,0,1.2,2.52,1.2,2.72s-0.37,3.51-0.3,4.9s0.07,1.33,0.9,3.32
			s1.87,1.52,2.02,2.98s0.67,3.58,0.75,5.37s0,2.19,0.07,3.05s0.15,2.32,0.22,3.18c-0.01,0.98-0.08,1.95-0.22,2.92
			C9.55,103.8,9.34,104.43,9,105l-2.46,2.32H5.12c-0.27-0.86-0.37-1.76-0.3-2.65c0.26-1.54,0.26-3.1,0-4.64
			c-0.3-1.33-0.52-8.88-0.6-10.01s-0.97-4.77-0.97-5.57S3.32,82.26,3.32,81.26L3.32,81.26z M1.73,17.28
			c0.06-0.37,0.17-0.73,0.34-1.06v0.08c0.04,0.16,0.09,0.31,0.16,0.46c0,0-0.28,0.5-0.6,1.25C1.67,17.75,1.71,17.49,1.73,17.28z
			 M1.64,19.63c0.32-0.69,0.67-1.37,1.06-2.02c-0.19,0.98-0.49,1.93-0.88,2.85c-0.15,0.29-0.33,0.56-0.55,0.8
			C1.4,20.66,1.57,19.88,1.64,19.63L1.64,19.63z M23.74,22.53l0.88-2.3l-0.31,2.88C24.1,22.89,23.9,22.68,23.74,22.53L23.74,22.53z
			 M29.58,26.27c-0.56-0.43-1.17-0.78-1.82-1.03c0.34-0.33,0.66-0.67,0.96-1.03c0.79-0.94,0.84,0,0.9,0.74
			C29.63,25.39,29.62,25.83,29.58,26.27L29.58,26.27z"/>
	</g>
	<g id="Group_1116_1_" transform="translate(1794.89 366.24)">
		<path id="Path_318_1_" class="st0" d="M92.73,209.65v-71.01c-0.24,0.41-0.48,0.82-0.72,1.21c-2.24-5.11-4.49-10.62-6.68-16.19
			c2.42,0.87,4.89,1.58,7.4,2.11v-1.36c-3.23-4.29-7.43-13.47-11.35-23.08c1.41,0.52,3.69,1.42,7.29,2.91
			c-6.2-5.43-18.79-41.12-18.79-41.12s-7.64,22.77-21.67,41.64c2.07,0,7.65-2.59,7.65-2.59l1.94-0.13
			c-4.02,9.02-8.69,17.73-13.98,26.07c3.89-1.23,7.71-2.69,11.42-4.39c-2.04,4.77-4.26,9.76-6.69,14.82
			c-2.55-4.01-5.64-10.87-8.55-18c1.2,0.45,3.11,1.2,6.15,2.46c-5.22-4.57-15.86-34.71-15.86-34.71s-6.44,19.21-18.3,35.14
			c1.74,0,6.44-2.18,6.44-2.18l1.65-0.1c-3.18,7.12-6.83,14.01-10.93,20.65C7.16,137.97,5.44,134,4,129.93
			c1.49,0.51,3.4,1.18,5.43,1.98c-1.67-1.38-4.14-6.24-6.33-11.14c1.68-0.1,3.37,0.19,4.92,0.84c-3.28-3.04-9.9-23.01-9.9-23.01
			c-2.76,8.24-6.6,16.07-11.42,23.3c2.07-0.32,4.11-0.76,6.13-1.31c-2.18,4.07-4.7,7.94-7.54,11.59c2.04-0.27,4.06-0.64,6.06-1.11
			c-2.13,4.61-4.58,9.06-7.33,13.33c1.36,0,5.04-1.95,5.04-1.95l1.28-0.1c-2.06,5.27-4.4,10.44-7,15.47
			c-0.7,1.36-1.43,2.74-2.19,4.08c1.24-0.41,2.46-0.89,3.66-1.43c0.91-0.42,1.87-0.89,2.84-1.35c-0.49,1.2-0.98,2.39-1.5,3.6
			c-0.22,0.52-0.45,1.04-0.69,1.56c-0.25,0.59-0.51,1.2-0.79,1.8c-3.58,8.18-7.67,16.12-12.25,23.78c3.26-1.07,6.45-2.35,9.55-3.83
			c-3.33,8.35-7.16,17.02-11.45,25.5c-1.17,2.29-2.36,4.57-3.59,6.82c0.21-0.07,0.42-0.08,0.63-0.16l-0.24,0.3h125.7v-8.87h-0.29
			V209.65z M47.49,140.72c-0.83,1.69-1.67,3.39-2.55,5.11c-0.86-2.22-1.72-4.49-2.55-6.75C44.12,139.71,45.85,140.29,47.49,140.72
			L47.49,140.72z M8.4,142.97l-0.13,0.21c0.11-0.03,0.24-0.08,0.35-0.11c0.6,0.28,1.27,0.59,2.04,0.96
			c-0.36-0.39-0.69-0.82-0.97-1.28c2.62-0.87,5.85-2.21,8.96-3.6c-2.11,5.33-4.5,10.93-7.17,16.61c-2.1-4.54-3.97-9.18-5.61-13.91
			C6.45,142.09,7.29,142.45,8.4,142.97L8.4,142.97z"/>
	</g>
	<path class="st0" d="M757.3,739.77c0.01,0,0.02,0.01,0.03,0.01L757.3,739.77L757.3,739.77z"/>
	<path class="st0" d="M757.33,739.78c0.35,0.04,0.68,0.08,1.04,0.12l-0.29,0.21C757.83,740,757.59,739.89,757.33,739.78z"/>
	<path class="st0" d="M1177.57,697.7c0,0.01,0.01,0.01,0.02,0.01c-0.01,0.01-0.01,0.01-0.02,0.02
		C1177.56,697.72,1177.56,697.71,1177.57,697.7z"/>
	<path class="st0" d="M1187.71,668.29v264.3H97.69l-0.09,0.48l-2.64-0.48H1.08l0-364.3c0.97,0.55,2.5,0.65,1.64,2.42
		c-0.25,0.51,0.55,1.45,1.13,2.8c0.8-1.63,1.34-2.73,1.87-3.82c0.37,0.33,0.73,0.66,1.08,1c0.32,2.94-0.59,5.89-2.51,8.14
		c3.1-0.89,5.52-4.85,7.66-0.51c-1.6,2.04-3.21,4.1-4.75,6.08c2.37,1.49,4.41,2.76,6.27,3.92c-2.13,1.75-3.78,3.1-5.46,4.45
		c2.53,0.36,2.95,5.96,6.68,1.84c0.16,0.7,0.28,1.26,0.42,1.85c0.72-0.04,1.45-0.08,2.52-0.15c-0.97,1.99-1.84,3.71-2.71,5.53
		c0.96-0.46,1.93-0.92,3.15-1.5c0.19,0.63,0.37,1.27,0.56,1.92h0.81c-0.11,0.55-0.22,1.1-0.32,1.64c0,0,0,0,0,0.01
		c0.12,0.4,0.24,0.81,0.35,1.23c0.66,0.66,1.31,1.32,1.97,1.97c1.14-0.97,2.27-1.69,3.33-1.28c-0.13-0.28-0.26-0.56-0.41-0.84
		c-0.51-0.93-1.55-1.62-3.03-3.07c2.32,0.52,3.87,0.86,6.32,1.41c-1.17-1.01-1.68-1.46-2.15-1.87c0.45-0.7,0.91-1.44,1.45-2.27
		c0.49,0.27,1.1,0.58,1.7,0.9c0.2-0.17,0.39-0.32,0.59-0.49c-0.92-0.98-1.83-1.97-2.86-3.06c0.37-0.1,0.72-0.21,1.08-0.28
		c0.3-0.06,0.62-0.09,1.27-0.16c-1.05-0.62-1.87-1.11-3.35-1.98c1.34-0.65,2.31-1.11,3.24-1.55c-0.41-0.34-1.04-0.87-2.03-1.69
		c1.1-0.27,1.82-0.45,2.3-0.58c0.15-2,0.3-3.95,0.45-5.9c0.25,0,0.5,0.01,0.76,0.01v4.18c2.19,0.1,4.2,0.18,7.17,0.31
		c-2.69,1.1-4.54,1.84-6.4,2.6c0.04,0.15,0.1,0.32,0.14,0.48c0.87-0.12,1.73-0.24,3.15-0.43c-1.76,2.54,0.24,5.7-2.88,7.47
		c-0.25,0.43-0.25,0.96,0.01,1.38c0.49,0.24,1.06,0.26,1.56,0.04c2.04-0.86,4.02-1.83,6.02-2.77c0.18,0.25,0.37,0.51,0.55,0.75
		c-0.96,0.81-1.93,1.64-2.79,2.36c0.3,0.07,0.96,0.22,1.65,0.38c-0.41,0.91-0.78,1.71-1.14,2.51v0.01c0.87-0.38,1.74-0.78,2.73-1.2
		c0.67,0.46,1.68,1.15,2.35,1.6c0.21,1.39,0.39,2.57,0.63,4.16c1.26-1.24,2.11-2.05,2.97-2.87c0.28,0.17,0.57,0.32,0.87,0.48
		c-0.7,2.56-1.41,5.1-2.25,8.21c2.56-2.23,4.85-4.25,7.44-6.5c-0.31-0.53-0.93-1.56-1.49-2.6c-0.38-0.73-0.7-1.49-1.04-2.25
		c1-0.12,2.02-0.16,3.03-0.11c0.5,0.07,0.92,0.67,1.54,1.18c-0.62-1.97-1.17-3.75-1.9-6.17c2.02,0.88,3.72,2.7,3.86-0.76
		c0.06-1.55,2.44-0.26,4.14-0.6c-0.8,1.67-1.41,2.92-2.1,4.34c0.97-0.04,1.87-0.08,2.78-0.12c0.5,3.88,2.17,5.85,5.22,5.93
		c-1.05,1.65-3.67,3.12-0.25,5.33c-1.32,0.31-2.25,0.52-3.16,0.73c-0.12,0.16-0.22,0.32-0.33,0.49c1.27,0.38,2.52,0.75,3.77,1.13
		c0.66,0.2,1.76,0.28,1.89,0.63c0.32,0.18,0.61,0.39,0.88,0.61c0.23-0.06,0.49-0.12,0.78-0.19c-0.96-0.4-1.67-0.69-2.74-1.15
		c0.98-0.89,1.83-1.66,2.53-2.29c-0.83-0.99-1.64-1.99-2.48-2.96c0.21-0.27,0.42-0.53,0.61-0.79c1.35,0.39,2.71,0.75,4.06,1.15
		c0.09-0.15,0.2-0.29,0.3-0.42c-2.36-1.53-4.73-3.05-7.11-4.56c0.11-0.15,0.21-0.28,0.31-0.42l8.13,1.48l1.13-6.2
		c0.38,0.03,0.74,0.05,1.13,0.08c-0.21,2.7-0.41,5.38-0.64,8.43c0.67,0.3,1.62,0.7,3,1.28c-1.65,0.67-2.83,1.14-3.98,1.61
		c3.51,0.77,5.38,2.53,3.7,3.67c-1.04,0.72-2.54,0.88-4.48,1.47c1.76,0.72,2.71,1.11,3.65,1.46c-1.58,1.34-2.85,2.42-4.13,3.48
		c0.3,0.31,0.58,0.61,0.87,0.9c0.67-0.35,1.31-0.72,1.86-1.04c0.59,1.36,1.14,2.57,1.75,3.94c-0.38,0.22-1.16,0.65-1.93,1.1
		c0.07,0.21,0.14,0.42,0.19,0.64c0.55-0.03,1.1-0.05,1.67-0.07c0.36-0.3,0.72-0.62,1.08-0.94c1.12-1.11,1.68-2.65,2.65-3.91
		c0.42-0.56,1.06-0.91,1.76-0.95c2.4,0.48,3.15-0.93,3.9-2.49c-1.31-0.42-2.56-0.82-4.37-1.38c3.35-2.04,2.23-3.67,0.7-5.72
		c-1.24-1.68-1.68-3.86-2.74-6.51c3.27,1.44,6.11,2.68,7.96,3.5c-0.54-0.45-1.76-1.45-2.99-2.44c0.3-0.28,0.6-0.55,0.9-0.83
		c0.67-0.64,1.34-1.31,2.02-1.95c-0.5-0.24-0.99-0.48-1.68-0.82c0.75-0.81,1.34-1.46,1.56-1.69c-0.69-0.88-1.22-1.6-1.77-2.3
		c1.08-0.07,2.15-0.14,3.95-0.27c-2.44-1.18-4.6-2.22-6.97-3.37h7.34v-5.5c0.3-0.02,0.57-0.03,0.87-0.06
		c0.14,2.32,0.27,4.63,0.42,7.21c0.52,0.05,1.04,0.1,1.58,0.14c0.9-0.44,1.74-0.23,2.58,0.24c0.46,0.04,0.94,0.09,1.44,0.13
		c-0.89-1.97-1.67-3.68-2.29-5.05c1.1-0.79,2.02-1.45,3.35-2.4c0.31,0.64,0.63,1.28,0.96,1.93c0.23-0.5,0.47-1.06,0.75-1.68
		c0.85,1.12,1.64,2.17,2.82,3.73c0.68-1.36,1.31-2.63,2.34-4.66c0.36-0.18,1.76-0.78,3.1-1.36c2.2,1.44,2.6,2.77,2.15,4.06
		c0.05,1.2,0.1,2.97,0.15,5.09c0.53,0.07,1,0.14,1.45,0.19c-0.06,1.55-0.55,3.28-0.04,4.76c0.39,1.16,2.01,1.96,3.12,2.96
		c-0.63,0.36-1.55,0.89-3.01,1.73c2.86,0.85,4.9,1.45,7.41,2.19c-1.87,1.26-4.27,2.08-4.99,3.63c-0.55,1.16,1.02,3.25,1.83,5.42
		c-1.29-0.07-2.99-0.17-5.36-0.31c0.01,0.3,0.01,0.6,0.02,0.9c1.95,3.56,7.11,2.52,10,5.66c-1.59,0.09-2.7,0.05-3.78,0.19
		c-1.02-0.03-2.04,0.22-2.95,0.71c-1.13,0.98-2.15,1.51-3.1,1.57c0.01,0.45,0.02,0.91,0.03,1.37c0.02,1.03,0.04,2.07,0.06,3.13
		c1.89,0.68,2.61,2.18,2.43,4.8c-0.27,3.87,0.99,5.15,5.15,5.16c2.59,0.01,5.2-0.05,8.14-0.08c-0.4-1.64-0.93-3.71-1.39-5.68
		c1.34-0.78,2.46-1.43,3.67-2.13c0.77,0.78,1.82,1.83,2.74,2.75c-0.02,1.49-0.07,3.07-0.12,5.22c1.79-1.36,2.89-2.2,4-3.06
		c0.36,0.27,0.74,0.51,1.12,0.77c-1.39,2.99-2.79,5.98-4.24,9.09c2.88-0.58,6.73-4.32,8.38,1.95c-1.82,0.75-3.73,1.52-5.02,2.06
		l-0.88,4.85c1.45,1.43,5.84,1.41,4.9,4.92c-2.63,1.29-5.02,2.49-7.25,3.6c2.53,3.13,4.55,5.66,6.59,8.16
		c-0.22,0.21-0.47,0.41-0.72,0.62l-7.19-1.31c4.2,2.39,0.77,4.73,0.44,7.14c3.51,2.51,6.27,4.56,8.76,4.95
		c-0.28-0.29-0.52-0.6-0.64-0.95c0.41-0.18,0.83-0.38,1.53-0.68c-0.83-0.19-1.43-0.31-2.36-0.52c0.66-0.86,1.22-1.6,1.7-2.21
		c-0.82-0.68-1.62-1.35-2.42-2.01c0.12-0.24,0.25-0.48,0.36-0.72c1.14,0.11,2.28,0.21,3.42,0.32c0.06-0.12,0.13-0.25,0.18-0.38
		c-2.11-0.87-4.22-1.74-6.35-2.61c0.07-0.13,0.12-0.26,0.18-0.38h6.74v-5.14c0.31-0.02,0.6-0.07,0.91-0.1
		c0.23,2.2,0.45,4.38,0.72,6.85c0.57,0.14,1.39,0.33,2.59,0.59c-1.23,0.78-2.1,1.33-2.96,1.87c2.93,0.1,4.69,1.24,3.5,2.4
		c-0.73,0.73-1.91,1.07-3.37,1.83c1.52,0.33,2.33,0.49,3.13,0.65c-1.07,1.29-1.92,2.35-2.8,3.39c0.28,0.2,0.55,0.39,0.83,0.59
		c0.48-0.38,0.95-0.78,1.34-1.1c0.67,1,1.28,1.88,1.97,2.9c-0.27,0.22-0.83,0.69-1.38,1.15c0.08,0.17,0.17,0.33,0.24,0.49
		c1.76-0.39,3.5-0.78,5.99-1.36c-1.72,1.77-2.87,2.94-4.02,4.12c0.18,0.24,0.38,0.48,0.56,0.73c3.1-0.81,6.19-1.63,8.83-2.32
		c0.08-1.77,0.06-3.54-0.07-5.3c-0.05-0.45-1.01-1.08-1.6-1.12c-0.88,0.05-1.76,0.23-2.6,0.53c-0.22-0.21-0.45-0.42-0.66-0.63
		c1.8-1.76,3.6-3.52,5.77-5.63c-0.35-0.92-0.86-1.76-1.52-2.49c-0.83-0.7-2.15-0.91-3.64-2.22c1.95-1.11,3.92-2.22,5.61-3.19
		c-0.1-0.97-0.21-1.93-0.37-3.42c-0.87-0.62-2.38-1.7-3.73-2.66c2.16-5.26,5.28,0.07,8.2-0.35c-1.32-1.69-2.3-2.95-3.36-4.29
		c0.23-0.9,0.51-2.07,0.93-3.78c0.85,0.77,1.63,1.5,2.8,2.57c0.35-1.18,0.68-2.29,1.2-4.08c0.27-0.18,1.3-0.87,2.28-1.53
		c4.36,1.84,1.62,4.51,0.01,7.19c2.04-0.13,3.29-0.2,4.36-0.26c0.19,1.26,0.05,2.72,0.66,3.83c0.48,0.87,1.9,1.28,2.93,1.91
		c-0.45,0.38-1.11,0.94-2.15,1.83c2.42,0.27,4.13,0.45,6.26,0.67c-1.31,1.28-3.13,2.3-3.48,3.63c-0.27,1.02,1.3,2.46,2.27,4.08
		c-1.1,0.14-2.58,0.32-4.65,0.58c1.9,3.51,6.29,1.5,9.29,3.75c-1.27,0.3-2.16,0.44-3,0.7c-0.83,0.14-1.61,0.48-2.27,1
		c-1.64,2.06-3.15,2.37-5.03,0.79c-0.54-0.46-1.27-0.66-1.97-0.53c0.77,1.67,1.53,3.36,2.4,5.24c0.41-0.07,0.84-0.18,1.29-0.22
		c2.84-0.28,4.12,0.73,4.43,3.53c0.35,3.13,1.55,3.98,4.88,3.37c2.08-0.36,4.17-0.8,6.51-1.25c-0.56-1.25-1.28-2.84-1.94-4.34
		c0.96-0.82,1.76-1.5,2.63-2.24c0.73,0.51,1.73,1.2,2.6,1.8c0.2,1.2,0.4,2.46,0.66,4.19c1.24-1.35,2-2.18,2.76-3.02
		c0.34,0.15,0.68,0.3,1.01,0.45c-0.67,2.6-1.36,5.2-2.06,7.9c2.22-0.89,4.75-4.45,7,0.33c-1.35,0.88-2.77,1.78-3.73,2.4v4
		c1.38,0.95,4.88,0.28,4.64,3.24c-1.91,1.42-3.66,2.73-5.27,3.94c2.47,2.13,4.47,3.86,6.47,5.58c-0.16,0.2-0.33,0.39-0.5,0.59h-5.95
		c3.72,1.31,1.31,3.69,1.4,5.67c5.1,2.4,8.46,4.12,11.01,1c1.03,1.05,2.01,2.1,3.29,3.43c-1.15,0.38-2.12,0.69-3.84,1.24
		c-0.45,0.98-0.01,1.59,3.67,2.98c-1.26,0.89-2.28,1.57-3.67,2.53c0.7,0.25,1.67,0.94,2.21,0.72c1.68-0.68,3.26-1.59,4.7-2.7
		c0.69-0.55,1.39-1.94,1.1-2.52c-0.78-1.49-3.35-2.22-1.89-4.68c0.2-0.34-1.56-1.63-2.39-2.5c-0.43-0.48-0.8-1-1.7-2.14
		c2.32,0.73,3.87,1.21,5.42,1.69c0.08-0.12,0.17-0.24,0.25-0.37c-0.62-0.53-1.24-1.07-1.87-1.6c0.58-0.77,1.15-1.55,1.74-2.36
		c0.51,0.39,1,0.77,1.48,1.14c0.25-0.21,0.49-0.42,0.75-0.64c-0.89-0.91-1.76-1.84-2.82-2.93c0.54-0.27,1.1-0.54,1.66-0.82
		c-1.12-3.21-1.12-3.21,1.3-3.09c-1.2-0.62-2-1.05-3.22-1.69c4.9-1.11,1.68-4.92,3.37-7.32c0.59,1.66,0.69,3.49,1.72,4.34
		c1.02,0.84,2.98,0.69,4.92,1.04c-1.63,0.71-2.97,1.29-4.44,1.94c0.8,0.41,1.46,0.74,1.98,1.01c-0.9,2.88-1.77,5.64-2.8,8.93
		c2.7-1.21,5.13-2.29,8.4-3.77c-1.87,4.49-3.36,8.08-5.06,12.14c0.16,0.28,0.63,1.12,1.1,1.97c3.27-0.21,3.15-0.16,4.68,3.13
		c0.43,0.95,1.8,1.54,2.76,2.25c0.92,0.68,1.88,1.33,3.05,2.14c-1.16,0.48-1.58,0.66-2.79,1.16c2.93-0.13,4.39-0.5,5-2.83
		c0.33-1.32,2.05-2.34,3.3-3.66c-0.68-0.32-1.32-0.7-1.92-1.14c-1.14-0.95-2.16-2.14-0.49-3.33c3.32-2.35,3.35-2.9-0.42-5.22
		c1.17-2.26,2.7-2.64,4.81-0.91c-0.35-1.6-0.69-3.21-1.15-5.35c1.29,0.68,2.05,1.06,2.81,1.47c0.62-3.43,1.1-3.7,4.39-2.38
		c-0.44,1.01-0.89,2.02-1.7,3.91c2.57-1.6,4.43-2.76,6.9-4.3c-1.93-1.6-3.58-2.98-5.68-4.73c1.59-1.02,3.61-2.34,5.54-3.6
		c-0.15-0.77-0.37-1.91-0.66-3.37c-0.98-0.66-2.39-1.59-3.87-2.57c2.26-1,4.79-1.2,7.17-0.58c-0.7-2.28-1.44-4.71-2.18-7.16
		c0.2-0.14,0.4-0.3,0.6-0.45c0.62,0.37,1.24,0.73,1.85,1.1c0.46,0.27,1.07,0.83,1.35,0.73c0.49-0.28,0.87-0.73,1.05-1.26
		c0.52-1.3,0.92-2.62,1.28-3.73c1.59,0.66,2.63,1.08,3.84,1.59c-0.73,1.61-1.56,3.49-2.47,5.52c1.58-0.07,2.92-0.14,4.6-0.22
		c-0.23,1.22-0.44,2.31-0.64,3.33c1.31,0.73,2.59,1.47,4.04,2.27c-0.34,0.2-0.82,0.46-1.27,0.76c-0.22,0.16-0.57,0.46-0.52,0.6
		c0.12,0.33,0.41,0.85,0.66,0.87c1.44,0.07,2.89,0.03,4.65,0.03c-0.05,2.5-6.4,4.62,0.02,7.96l-5.43,0.84
		c0.17,1.34,3.37,3.14,5.49,2.35c2.1-0.79,2.53,0.03,3,1.53c-1.62,1.35-5.47-0.55-5.23,2.59c-1.16,0.38-1.99,0.65-3,0.97
		c-0.59-0.7-1.32-1.59-2.07-2.49c-0.31,0.07-0.62,0.16-0.91,0.23c0.25,1.67,0.67,3.32,1.25,4.92c0.72,1.56,1.9,0.31,3.01,0.1
		c2.98-0.58,6.05-0.79,9.04-1.35c0.76-0.14,1.35-1.07,2.11-1.73c-2.25-0.19-3.81-0.31-5.58-0.47c1.57-1.6,2.8-2.82,3.84-3.88
		c-1.73-1.33-3.12-2.42-5-3.85c2.54-0.31,4.34-0.54,6.46-0.8c-0.66-0.63-1.2-1.17-1.46-1.44c1.32-1.07,2.56-2.08,3.72-3.02
		c-0.39-1.11-0.73-2.08-1.07-3.05h4.64c-0.8-1.72-1.5-3.24-2.25-4.8c1.03-0.8,1.97-1.54,2.7-2.11c0.99,0.6,1.95,1.21,3.06,1.9
		c-0.13,0.53-0.31,1.24-0.57,2.29c0.89-0.45,1.83-0.63,2.13-1.14c1.5-2.57,2.94-1.77,4.36-0.03c3.56-1.14,7-2.23,10.2-3.25
		c-1-1.03-1.84-2.2-2.52-3.47c-0.13-0.34,1.73-1.32,2.97-2.21h-6.5c0.41-3.06,3.42-3.82,6.06-5.68c-1.86-1.39-3.63-2.73-6.01-4.53
		c1.76-1.11,3.86-2.43,5.6-3.53c-0.12-1.04-0.25-1.98-0.42-3.37c-0.98-0.44-1.88-1.03-2.68-1.75c-0.47-0.79-0.62-1.72-0.4-2.61
		c0.04-0.24,1.42-0.62,2.01-0.44c1.52,0.53,3,1.13,4.45,1.81c-0.88-2.56-1.72-5.06-2.56-7.56c0.24-0.16,0.49-0.31,0.73-0.47
		c0.91,0.66,1.83,1.31,3.33,2.39c0.31-1.2,0.59-2.27,0.87-3.36c-0.21-0.04-0.42-0.08-0.63-0.14c1.11-0.71,2.22-1.45,3.4-2.21
		c0.1,0.52,0.22,1.14,0.34,1.7c0.73-0.08,1.39-0.16,2.53-0.3c-1.06,2.16-1.96,4-2.95,6.03c1.63-0.09,2.92-0.14,4.31-0.2
		c-0.01,2.63-0.71,5.62,4.25,5.29c-1.17,0.88-1.98,1.5-3.11,2.35c2.44,0.22,4.17,0.38,6.26,0.56c-1.11,1.22-2.26,2.5-3.32,3.68
		c0.11,0.75,0.23,1.56,0.38,2.65c0.28,0.12,1.1,0.48,1.93,0.84c0.01,0.18,0.01,0.38,0.03,0.58c-1.47,0.24-2.94,0.48-4.43,0.73
		c0.05,1.29,2.82,2.69,5.07,2.43c0.76-0.1,1.53,0.03,2.21,0.37c2.29,1.45,4.43,3.09,6.75,4.48c0.62,0.38,1.68,0.16,2.53,0.2
		c-0.1-0.81-0.3-1.61-0.6-2.37c-0.61-1.27-1.43-2.44-2.32-3.87c0.38-0.46,0.96-1.13,1.6-1.89c-0.62-0.25-1.45-0.35-1.74-0.77
		c-0.27-0.38,0.03-1.11,0.08-1.95c1.16,0.42,2.01,0.74,2.87,1.07c0.14-0.26,0.27-0.5,0.4-0.74c-2.07-0.88-4.14-1.77-6.71-2.86
		c2.76-0.2,4.92-0.37,7.31-0.54v-5.24l0.87-0.05c0.14,2.31,0.27,4.62,0.4,6.91c0.91,0.25,0.9,1.6,0.12,3.11
		c1.31,0.36,2.7,0.76,4.08,1.15c-0.05,0.27-0.11,0.52-0.17,0.79c-1.16,0.49-2.34,0.97-4.16,1.73c1.41,0.41,2.2,0.63,2.86,0.83
		c-0.83,1.26-1.69,2.59-2.55,3.92c0.34,0.17,0.69,0.35,1.03,0.52c0.35-0.56,0.69-1.14,1.1-1.83c1.43,0.58-0.54,3.66,3.75,1.86
		c-1.98,1.65-2.78,2.31-3.58,2.97c0.14,0.21,0.28,0.42,0.42,0.62c2.97-1.54,5.93-3.07,9.3-4.81c-1.68-2.14-3.25-4.15-4.88-6.23
		c1.97-4.81,4.78,0.21,6.92,0.22c-0.86-2.71-1.66-5.19-2.45-7.68c0.25-0.17,0.52-0.34,0.79-0.5c0.9,0.71,1.8,1.44,2.87,2.3
		c0.88-1.81,1.83-3.74,2.77-5.7c1.36,1.01,2.28,1.68,3.33,2.46c-0.58,1.35-1.32,3.08-2.28,5.29c1.45-0.56,2.45-0.96,3.65-1.42
		c0.6,0.51,1.54,1.31,1.97,1.66c0.3,1.59,0.53,2.71,0.81,4.18c1.53-1.2,2.46-1.92,3.78-2.93c-0.3,2.31-0.5,4.05-0.75,6.09
		c1.05-0.11,2.11-0.08,3.16,0.07c0.89,0.29,1.67,0.84,2.25,1.58c0.24,0.3-0.1,1.5-0.41,1.59c-3.09,0.87-3.21,3.25-3.39,5.37
		c2.83,1.55,5.61,3.06,8.38,4.57c0.23-0.24,0.44-0.49,0.67-0.73c-0.86-0.62-1.72-1.24-2.4-1.72c0.65-1.02,1.31-2.06,2.11-3.33
		c0.37,0.67,0.69,1.27,1,1.84c0.34-0.18,0.67-0.35,1-0.53c-0.77-1.18-1.53-2.38-2.41-3.74c0.43-0.14,1.18-0.4,2.23-0.75
		c-1.11-0.62-2.04-1.15-3.84-2.16c1.6-0.74,2.73-1.24,4.3-1.96c-0.53-0.32-1.38-0.83-2.51-1.5c0.91-0.22,1.63-0.39,2.46-0.6
		c0.2-2.32,0.4-4.72,0.6-7.12c0.36,0,0.73,0.02,1.1,0.03c-0.09,1.68-0.19,3.34-0.27,5.18h8.24c-3,1.24-5.25,2.15-7.48,3.06
		c0.05,0.2,0.11,0.4,0.18,0.59c1.08-0.14,2.18-0.26,3.26-0.39c0.29,0.32,0.57,0.65,0.83,0.97c-0.77,0.46-1.56,0.94-2.46,1.49
		c0.51,0.59,1.09,1.24,1.41,1.62c-1.35,2.23-2.59,4.27-3.83,6.31c0.3,0.19,0.58,0.37,0.86,0.55c2.69-1.12,5.39-2.23,8.08-3.39
		c0.12-0.05-0.09-0.69,0.07-0.81c0.67-0.62,1.44-1.12,2.29-1.47c1.84-0.52,3.78-0.75,5.62-1.25c0.34-0.08,0.47-0.84,0.66-1.25
		c-1.81-0.2-3.4-0.37-5.83-0.63c0.83-0.42,1.62-0.92,2.36-1.49c1.11-1.13,2.65-2.23,0.3-3.69c-0.9-0.72-1.72-1.55-2.43-2.46
		c1.88-0.21,3.6-0.41,5.78-0.65c-0.77-0.81-1.41-1.49-2.11-2.22c3.23,0.1,4.39-1.8,3.29-5.47c1.39,0.07,2.71,0.14,4.74,0.25
		c-0.63-1.02-1.13-1.67-1.48-2.4c-0.36-0.77-0.57-1.6-0.88-2.48c0.95-0.74,1.9-1.49,2.74-2.15c0.86,0.55,1.74,1.13,2.46,1.6
		c0.18,1.3,0.35,2.58,0.58,4.28c1.3-1.26,2.16-2.08,3.25-3.14c1.01,3.47,0.05,5.79-2.32,7.69l0.38,0.76c1.4-0.73,2.75-1.91,4.2-2.02
		c1.21-0.09,2.53,1.08,4.14,1.85c-1.89,1.21-3.39,2.2-4.67,3.01v3.21c0.62,2.15,5.38,0.31,4.43,4.8c-1.18,0.93-5.04,0.38-4.12,3.85
		c1.87,1.6,3.8,3.27,6.16,5.3h-6.97c-0.05,0.22-0.1,0.43-0.15,0.62c0.83,0.28,1.64,0.57,2.45,0.82c-0.4,1.56-0.76,3.05-1.17,4.68
		c2.72,0.94,5.48,1.74,8.28,2.39c0.9,0.17,2.07-0.97,3.12-1.5l3.28,3.32l0.67-0.17c-0.14-0.84-0.28-1.69-0.45-2.63
		c0.9-0.58,1.93-1.24,3.2-2.05c0.1,0.5,0.21,1.04,0.32,1.64c0.72-0.05,1.43-0.11,2.56-0.2c-1.06,2.16-1.96,4-2.93,5.97
		c1.59-0.07,2.8-0.13,4.27-0.2c-0.1,2.67-0.22,5.43,4.24,5.37c-1.11,0.84-1.92,1.46-3.05,2.29c2.43,0.21,4.16,0.37,6.3,0.55
		c-0.97,0.82-1.83,1.75-2.57,2.78c-0.41,1.1-0.66,2.25-0.73,3.42c0.59,0.25,1.4,0.62,2.22,0.97c0,0.2,0.01,0.4,0.03,0.59
		c-1.48,0.24-2.94,0.48-4.7,0.78c0.1,2.35,3.01,2.29,4.12,2.25c1.75-0.08,3.49,0.3,5.05,1.11c1.67,0.79,4.64,1.01,5.16-2.21
		c0.36-1.04,0.84-2.04,1.43-2.97c-0.77,0.15-1.53,0.39-2.25,0.7c-1.39,1.17-3.47,0.99-4.64-0.41c-0.08-0.09-0.15-0.2-0.22-0.3
		c-0.41-0.51-1.38-0.68-2.13-0.9c-0.83-0.24-1.69-0.38-2.54-0.57c-0.02-0.38-0.05-0.74-0.06-1.11c1.66-0.12,3.32-0.36,4.95-0.71
		c1.51-0.6,2.97-1.32,4.36-2.16c-2.55-0.35-4.14-0.56-5.77-0.78c1.23-1.58,2.14-2.77,2.79-3.62c-1.58-1.12-2.94-2.1-4.3-3.06
		c0.34-0.34,0.66-0.66,1-0.99c1.84-0.26,3.68-0.53,5.96-0.85c-1.07-0.67-1.84-1.14-2.3-1.42c1.36-0.85,2.8-1.73,4.16-2.56
		c-0.41-1.3-0.73-2.4-1.04-3.39h4.7c-0.9-1.93-1.69-3.63-2.34-5.02c1.02-0.74,1.94-1.38,2.86-2.04c0.81,0.57,1.83,1.28,2.63,1.84
		c0.15,1.25,0.3,2.46,0.49,4.12c1.28-1.25,2.14-2.08,2.98-2.91c0.3,0.15,0.59,0.3,0.89,0.45c-0.69,2.56-1.37,5.1-2.1,7.85
		c1.22-0.72,2.49-1.97,3.85-2.1c1.07-0.09,2.28,1.23,4.25,2.44c-4.38,0.96-5.74,2.99-5.09,5.84c1.84,1.28,3.58,2.49,5.14,3.57
		c-2.18,1.68-3.86,2.95-5.8,4.43c2.49,1.69,4.55,3.08,7.37,4.98c-0.9-1.79-1.44-2.83-1.97-3.88c2.75-2.28,3.08-2.14,4.5,2.25
		c0.64-0.69,1.18-1.23,1.7-1.77c0.31,0.08,0.62,0.18,0.91,0.26c-0.49,1.83-1,3.67-1.48,5.4c0.95-0.49,2.14-1.1,3.52-1.8
		c0.56,1.56,1.91,2.7-0.46,3.8c-0.7,0.34-0.76,1.9-0.96,2.49c1.59,1.06,2.77,1.86,4.29,2.87c-1.59,1.13-2.93,2.08-4.3,3.05
		c0.77,1.66,4.44,1.65,3.44,4.66c0.68,0.32,1.55,0.73,2.2,1.04c1.26-0.9,2.45-1.87,3.58-2.93c1.23-1.12,2.21-2.49,2.87-4.02
		c0.54-1.66,1.6-1.26,2.79-1.47c1.02-0.32,1.99-0.77,2.9-1.34c-0.44-0.56-0.87-1.11-1.32-1.66c-0.23-0.28-0.72-0.62-0.66-0.83
		c0.98-3.71-3.18-5.88-3.08-9.54c2.63,1.02,5.26,2.02,7.9,3.01c-1.05-3.38-1.92-6.17-2.9-9.39c1.2,0.21,1.88,0.34,2.56,0.45
		c0.07-0.14,0.12-0.28,0.18-0.42c-1.65-0.75-3.29-1.48-4.94-2.21c0.06-0.23,0.13-0.45,0.2-0.68c1.27,0.24,2.55,0.48,4.49,0.86
		c0.46-1.5,0.97-3.16,1.48-4.82c0.21-0.04,0.42-0.07,0.61-0.11c0.19,1.95,0.36,3.92,0.54,6.13c0.48,0.13,1.29,0.32,3.04,0.74
		c-1.73,0.48-2.53,0.7-3.98,1.11c1.82,0.6,3.12,1,5.14,1.65c-1.78,0.84-2.82,1.32-4.23,1.98c1.03,0.34,1.76,0.58,2.52,0.83
		l-2.14,2.14c1.28,0.85,2.17,1.42,3.23,2.13c-0.67,0.77-1.23,1.43-2.02,2.33c1.94-0.42,3.61-0.79,5.95-1.31
		c-1.13,1.1-1.79,1.65-2.32,2.29c-0.75,0.9-3.01,1.26-1.32,3.18c0.23,0.27-0.93,1.54-1.41,2.37c-0.56,1.01-1.08,2.03-1.81,3.43
		c2,0.57,3.8,1.11,5.26,1.53c1.44-1.76,2.75-3.37,4.19-5.13c-1.9-0.21-3.3-0.37-4.71-0.54c1.95-1.21,2.88-5.72,6.03-1.6
		c3.44-1.26,6.76-2.47,9.76-3.57c-0.86-1.04-1.59-2.19-2.17-3.42c-0.11-0.31,1.39-1.08,2.48-1.88c-2.03-0.11-3.9-0.21-6.09-0.34
		c0.33-3.01,3.64-3.57,5.99-5.7c-1.8-1.33-3.62-2.7-5.88-4.39c1.7-1.02,3.75-2.27,5.86-3.55c-0.15-0.31-1-1.19-0.78-1.65
		c0.88-1.97-0.64-2.28-1.92-2.98c-0.6-0.35-1.01-0.97-1.08-1.66c0.14-1.87,1-2.93,3.19-1.65c1.08,0.64,2.2,1.23,3.17,1.78
		c-0.83-2.72-1.59-5.26-2.37-7.81c0.19-0.13,0.38-0.25,0.57-0.38c0.92,0.7,1.85,1.42,3.36,2.58c0.31-1.4,0.56-2.52,0.92-4.14
		c0.38-0.3,1.37-1.05,2.1-1.6c0.83,0.62,1.75,1.29,3,2.21c-0.61,1.26-1.5,3.11-2.19,4.53c2.35,0.5,4.51,0.83,6.57,1.45
		c2.32,0.68,4.77-0.64,5.45-2.97c0.15-0.5,0.21-1.02,0.17-1.53c-0.02-1.61,1.27-2.92,2.87-2.94c0.38-0.01,0.76,0.06,1.11,0.21
		c0.36,0.11,0.76,0.53,0.96,0.45c1.42-0.59,2.28-4.55,1.69-5.37c-1.7,0.6-3.19,1.15-4.73,1.6c-0.18,0.05-0.55-0.54-0.87-0.75
		c-1.15-0.82-2.41-1.47-3.75-1.91c-1.28-2.15-0.93-2.6,1.64-2.22c2.7,0.4,5.06-0.88,5.09-2.24c-1.63-0.37-3.12-0.7-4.7-1.06
		c1.44-1.47,2.55-2.64,3.67-3.81c-0.55,0.34-1.11,0.66-1.66,1c-1.08-1.42-2.16-2.84-3.53-4.64c2.87-0.31,4.78-0.5,7.55-0.8
		c-1.46-0.8-2.13-1.16-3.01-1.64c3.04-0.75,4.14-2.5,3.87-5.84c1.27,0.17,2.52,0.32,4.4,0.58c-1.05-2.07-1.91-3.73-2.82-5.51
		c1.1-0.62,2.06-1.17,3.05-1.73c0.77,0.43,1.74,0.97,2.95,1.63c-0.34,0.66-0.72,1.39-1.08,2.11c0.66,0.4,1.32,0.83,1.88,1.18
		c0.94-0.78,1.82-1.5,2.84-2.34v3.63c0.16-0.01,0.31-0.01,0.47-0.03c-0.83,1.45-1.66,2.9-2.9,5.05c3.23-1.17,5.93-4.8,8.11,0.14
		c-3.71,0.59-4.09,3.49-4.6,5.82c1.92,1.16,3.91,2.38,5.7,3.46c-2.19,1.72-4.01,3.15-5.67,4.46c2.35,2.04,4.27,3.72,6.7,5.81h-7.17
		c1.2,1.07,2.5,1.81,2.39,2.24c-0.49,1.18-1.13,2.28-1.92,3.29c1.54,0.89,3.16,1.64,4.83,2.23c2.11,0.45,4.26,0.73,6.41,0.85
		c-1.46-1.75-2.52-3-4.15-4.94c2.65,0.86,4.38,1.42,6.12,1.98c0.25-0.3,0.52-0.63,0.79-0.94c-0.75-0.45-1.48-0.88-2.05-1.22
		c0.42-0.82,0.9-1.77,1.74-3.43c0.34,0.7,0.69,1.42,1.04,2.16c2.9-3.02-1.18-2.85-2.12-4.4c1.04-0.21,1.84-0.39,3.25-0.69
		c-1.4-0.8-2.3-1.32-4-2.32c1.56-0.77,2.73-1.33,4.12-2.03c-0.84-0.31-1.66-0.6-3.05-1.12c5.12-1.33,1.56-5.85,4.8-8.42
		c-0.63,5.11,1.35,7.36,6.82,5.92c-2.01,0.83-4.02,1.68-6.02,2.5c0.06,0.16,0.13,0.31,0.19,0.45c0.85-0.14,1.7-0.27,3.38-0.55
		c-0.88,1.37-1.42,2.2-2.1,3.22c0.34,0.3,0.99,0.82,1.96,1.62l-2.43,0.73c0.24,0.09,0.47,0.19,0.71,0.28
		c-0.91,1.79-1.81,3.56-3.09,6.08c3.97-1.59,7-2.81,9.94-4.01c-0.06,1.37-0.29,2.73-0.66,4.05c-0.45,1.07-1.62,1.87-2.11,2.93
		c-0.61,1.29-0.76,2.76-0.43,4.16c-0.75,0.41-1.5,0.81-2.49,1.36c0.57,1.16,1.11,2.25,1.66,3.36c0.15-0.22,0.32-0.46,0.47-0.69
		c1.88,0.85,5.45,1.99,5.33,2.5c-0.63,3.25,2.89,3.83,3.87,5.91c0.63,0.94,1.38,1.8,2.22,2.55c1.38-0.92,3.13-2.07,5.35-3.53
		c-2.1-0.45-3.69-0.8-5.28-1.14c-0.02-0.34-0.05-0.66-0.08-1c1.15-0.35,2.33-0.58,3.53-0.69c2.73,0.05,5.06-1.18,5.05-2.39
		c-1.69-0.27-3.25-0.54-4.82-0.79c1.35-1.58,2.47-2.86,3.31-3.84c-1.54-1.29-2.88-2.4-4.2-3.5c0.17-0.34,0.34-0.66,0.51-0.98
		c2.93,0.64,5.87,1.29,9.66,2.12c-2.38-1.48-4.1-2.57-5.8-3.64c1.35-0.93,2.63-1.82,4-2.76c-0.35-1.04-0.75-2.18-1.16-3.39
		c1.52,0.13,2.89,0.23,4.36,0.34c-1.1-4.27-1.05-4.75,0.54-7.44c1,0.7,2,1.41,2.64,1.87c0.19,1.34,0.35,2.56,0.57,4.22
		c3.31-3.11,3.38-3.11,6.79-0.04c0.35-1.35,0.63-2.39,0.9-3.42c-0.2-0.06-0.41-0.11-0.6-0.15c0.94-0.7,1.9-1.41,2.71-2.02
		c0.89,0.52,1.86,1.1,3,1.78c-0.38,0.9-0.76,1.85-1.2,2.8c-0.42,0.88-0.9,1.75-1.39,2.71c1.94-0.17,3.64-0.32,5.34-0.46
		c0.31-2.49,0.62-4.93,0.93-7.34c0.4,0.02,0.79,0.04,1.2,0.07c-0.17,1.71-0.35,3.41-0.53,5.34h7.68c-2.59,1.14-4.81,2.12-7.05,3.11
		l0.25,0.42c1.07-0.07,2.14-0.14,3.23-0.23c-0.38,0.74-0.76,1.48-1.34,2.6c0.21,0.27,0.8,1,0.96,1.2c-0.47,1.23-0.78,2.04-1.16,3.07
		c0.83-0.17,1.52-0.31,2.21-0.44c0.14,0.16,0.27,0.33,0.41,0.5c-1.03,1.07-2.05,2.15-3.38,3.53c2.94-1.17,5.57-2.21,8.19-3.25
		c0.21,0.21,0.43,0.42,0.65,0.63c-1.38,2.25-2.86,4.43-4.07,6.75c-0.45,0.86-0.51,1.88-0.17,2.79c1.2,2.47,1.31,2.4-1.53,2.43
		c-0.32,0-0.66,0.42-1,0.65c1.04,1.49,1.97,2.51,4.23,2.65c1.41,0.1,4,1.07,3.56,3.63c0,0.34,0.13,0.67,0.37,0.92
		c1.19,1.32,2.4,2.63,3.62,3.92c1.34,1.43,4.62,1.36,5.64-0.35c0.47-0.76,2.48-1.27,1.06-2.7c0.39-0.28,0.81-0.51,1.25-0.68
		c0.49-0.11,1.06,0.1,1.55-0.01c1.07-0.23,2.1-0.56,3.95-1.08c-1.91-0.43-3.07-0.66-4.42-0.96c0.76-1.03,1.28-1.74,1.82-2.47
		c-0.85-1.12-1.63-2.16-2.56-3.38h4.68c-0.79-0.65-1.35-1.1-1.46-1.2c0.88-1.34,1.69-2.53,2.78-4.19c0.12-0.01,1.03-0.1,2.18-0.2
		c-0.46-1.79-2.53-3.74,0.97-5.05c0.72,1.15,1.5,2.43,2.31,3.7c0.6-0.48,1.24-0.98,1.87-1.49c0.2,0.07,0.39,0.15,0.59,0.24
		c-0.37,1.62-0.73,3.22-1.17,5.09c1.16-0.42,2.16-0.77,3.38-1.22c0.46,0.66,0.93,1.36,1.48,2.13c-0.73,0.41-1.42,0.86-2.09,1.35
		c-1.43,1.24-1.12,2.8,0.51,3.56c0.64,0.38,1.22,0.85,1.72,1.41c1.16,1.27,2.51,2.36,4,3.23c-0.78-2.53-1.56-5.07-2.33-7.61
		c0.17-0.12,0.34-0.26,0.51-0.4c0.92,0.64,1.87,1.28,3.41,2.33c0.3-1.24,0.57-2.42,0.9-3.81c0.51-0.44,1.39-1.18,2.48-2.08
		c0.18,0.59,0.39,1.24,0.64,2c0.51-0.18,1.05-0.37,1.44-0.51c-0.56-1.85-1.1-3.58-1.83-6.02c3.03,1.41,5.49,2.56,8.88,4.14
		c-0.96-2.15-1.6-3.59-2.24-5.02c0.22-0.06,0.46-0.11,0.7-0.17c-0.65-0.32-1.31-0.66-2.18-1.08c0.67-0.54,1.2-0.95,1.76-1.4
		c-0.85-0.91-3.66-1.88,0.5-2.88c-1.85-0.65-3.29-1.15-4.74-1.65c0.03-0.22,0.06-0.43,0.09-0.66h6.03c0.16-1.64,0.28-2.92,0.41-4.2
		h0.83c0.11,2,0.22,3.99,0.35,6.1c0.66,0.13,1.34,0.24,2.43,0.45c-1.07,0.59-1.84,1.01-2.54,1.4c1.16,0.52,2.25,1,3.74,1.66
		c-1.66,0.93-2.62,1.47-3.97,2.23c1.11,0.22,1.8,0.36,2.45,0.49c-0.87,0.94-1.69,1.81-2.5,2.68c0.22,0.2,0.46,0.4,0.69,0.59
		c0.48-0.35,0.95-0.7,1.81-1.33c0.45,1.45,0.86,2.73,1.31,4.16l3-0.72l-3.75,7.39c1.75,0.97,1.47,0.77,2.7-0.68
		c1.26-1.5,3.15-2.59,4.92-3.98c-0.23-0.74-0.54-1.77-0.92-2.98c1.56,0.1,2.9,0.18,4.59,0.3c-0.79-1.73-1.48-3.25-2.11-4.63
		c1.9-0.01,3.56-0.01,5.2-0.01c0.56,0.62,1.31-4.23,3.64-4.11l0.42-0.76c-1.66-1.28-3.3-2.57-5.33-4.13
		c0.03-2.62,2.99-2.59,5.33-3.18c-0.87-2.6-0.7-5.71-4.7-6.36c2.07-1.4,4.43-1.53,8-0.42c-1.81-2.57-2.84-5.06-2.22-8.25
		c0.99,0.84,1.82,1.53,3.35,2.82c0.31-1.59,0.55-2.77,0.87-4.37c0.34-0.23,1.29-0.82,2.35-1.46c0.7,0.49,1.64,1.18,2.73,1.95
		c-0.75,1.69-1.5,3.42-2.35,5.36c1.81-0.1,3.09-0.16,4.56-0.23c-0.34,1.16-0.64,2.11-0.92,3.08l4.02,2.79
		c-1.66,1.04-3.4,2.12-5.66,3.53c3.53-0.75,6.45-1.36,10.21-2.17c-1.9,2.75-3.32,4.79-4.8,6.92c1.33,0.47,2.33,0.8,3.33,1.14
		c0,0.18,0,0.37,0.01,0.54c-1.46,0.22-2.92,0.46-4.5,0.7c-0.01,1.37,2.76,2.88,5.4,2.51c0.68-0.08,1.37,0.05,1.97,0.37
		c0.24,0.15,0.24,1.15-0.04,1.42c-0.28,0.27-1.17,0-1.6,0.25c-1.17,0.66-2.25,1.49-3.69,2.46l-2.2,0.42
		c-0.47-0.6-1.13-1.44-1.79-2.3c-1.07,0.84-1.07,0.84,0.9,5.62c4.35-0.63,4.82-0.3,5.56,4.08c0.43,2.56,1.96,3.48,4.74,3.01
		c1.4-0.22,2.86-0.18,4.3-0.27c0.05,0.31,0.11,0.62,0.16,0.92c-0.92,0.43-1.87,0.87-2.8,1.29c2.76-0.66,4.56,0.58,6.23,2.37
		c0.57,0.48,1.32,0.68,2.04,0.53c0.69-0.46,1.21-1.13,1.48-1.91c0.17-0.96,0.55-1.87,1.11-2.66c0.24,1.14,1.04,2.54,0.59,3.36
		c-1.26,2.26-0.11,2.87,2.04,3.5c-0.83,0.28-1.66,0.55-2.77,0.91c1.62,0.48,2.87,0.85,4.12,1.2l-0.08,0.93
		c-1.02,0.41-2.03,0.82-3.67,1.49c1.25,0.37,2,0.58,2.74,0.8c-0.8,0.79-1.63,1.6-2.46,2.44c0.14,0.18,0.28,0.38,0.42,0.56
		c0.6-0.3,1.22-0.6,1.76-0.87c0.5,0.92,0.97,1.77,1.46,2.65c-0.42,0.33-1,0.78-1.56,1.24c0.07,0.14,0.14,0.28,0.22,0.44
		c1.5-0.38,3-0.76,4.05-1.01c-1.8,3.67-3.6,7.32-5.56,11.32c2.25,0.54,4.17,1.02,6.35,1.57c-0.21-0.88-0.39-1.67-0.46-1.98
		c1.31-1.15,2.35-2.08,3.73-3.29c-1.67-0.21-2.88-0.35-3.96-0.49c1.11-0.78,2.23-1.54,3.34-2.31c-0.33-0.46-0.66-0.94-1-1.42
		c0.87,0.63,1.73,1.26,2.7,1.97c3.29-1.18,6.63-2.38,9.46-3.4c-0.64-1.28-1.18-2.61-1.63-3.97c-0.06-0.2,1.11-0.7,2.55-1.56h-6.4
		c0.22-3.21,3.68-3.64,5.92-5.93c-1.79-1.33-3.59-2.68-5.84-4.34c1.6-1.07,3.63-2.4,5.75-3.82c-0.87-1.77-0.49-5.08-4.82-5.15
		c1.22-1.4,2.21-3.15,2.73-3.04c1.61,0.34,3.05,1.4,4.99,1.85c-0.34-0.46-0.62-0.96-0.84-1.48c-0.59-2.04-1.13-4.11-1.68-6.18
		c0.24-0.12,0.47-0.25,0.7-0.38c0.79,0.76,1.56,1.52,2.96,2.87c0.39-1.4,0.71-2.54,1.22-4.29c0.27-0.16,1.29-0.84,2.5-1.63
		c0.11,0.51,0.24,1.09,0.37,1.68c0.73-0.04,1.44-0.09,2.54-0.16c-1.05,2.07-1.94,3.84-2.68,5.33c2.44,0.54,4.72,1.03,6.99,1.56
		c2.82,0.68,5.02-1.21,5.11-4.41c0.08-2.4,1.73-3.4,4.28-2.59c0.22,0.07,0.45,0.31,0.62,0.27c1.6-0.43,2.56-4.64,1.38-5.98
		c-1.76,2.7-3.17,2.69-5.57,0.53c-1.17-1.04-3.05-1.4-4.63-2.08c-0.01-0.28-0.03-0.57-0.04-0.87c2.9-0.42,5.79-0.84,8.69-1.25
		c0.11-0.28,0.23-0.55,0.35-0.83c-0.79-0.24-1.57-0.49-2.36-0.72c-0.94-0.28-1.9-0.56-2.81-0.83c1.15-1.49,2.13-2.75,2.81-3.63
		c-1.5-1.46-2.79-2.7-4.05-3.92c2.12-0.3,4.04-0.56,6.58-0.91c-1.22-0.64-1.9-1-2.49-1.31c1.42-0.99,2.7-1.89,3.81-2.66
		c-0.14-1.22-0.26-2.34-0.39-3.49c1.53,0.14,2.81,0.27,4.49,0.44c-0.96-1.94-1.75-3.56-2.56-5.2c1.04-0.73,2.11-1.48,3.53-2.48
		c0.98,1.92,1.96,3.86,2.93,5.77c1-0.85,1.87-1.59,2.75-2.32c0.3,0.11,0.57,0.22,0.87,0.34c-0.7,2.58-1.42,5.16-2.17,7.89
		c2.35-1.07,4.85-4.21,7.27,0.23c-3.02,1.02-4.8,2.97-4.47,5.98c1.77,1.13,3.74,2.41,5.39,3.46c-2.17,1.76-3.87,3.15-5.52,4.49
		c2.28,1.94,4.25,3.61,6.2,5.27c-0.15,0.21-0.31,0.41-0.46,0.62h-5.93c0.01,0.24,0.01,0.49,0.01,0.73c0.66,0.11,1.32,0.23,1.69,0.3
		c0.18,1.79-0.28,4.38,0.67,4.95c2.4,1.47,5.46,2.01,8.26,2.94c0.14-0.28,0.3-0.56,0.43-0.84c-1.08-1.25-2.18-2.52-3.88-4.49
		c2.65,0.85,4.38,1.41,6.1,1.97c0.3-0.34,0.59-0.66,0.89-0.98c-0.92-0.33-1.84-0.65-2.18-0.76c0.6-1.42,1.01-2.39,1.52-3.56
		c0.59,0.52,1.2,1.04,1.85,1.62c2.32-2.69-1.87-2.52-2.02-4.32c0.59-0.09,1.32-0.2,2.77-0.42c-1.49-0.9-2.45-1.48-4.14-2.49
		c1.59-0.76,2.79-1.32,4.11-1.94c-0.9-0.44-1.79-0.88-2.67-1.31c0.07-0.23,0.14-0.44,0.21-0.66c0.95-0.17,1.91-0.34,2.92-0.52v-6.95
		c0.27-0.06,0.54-0.1,0.8-0.16c0.28,0.56,0.48,1.15,0.6,1.76c0.3,3.6,0.89,4.09,4.69,3.83c0.69-0.07,1.4,0.06,2.02,0.38
		c-2,0.83-4,1.66-6,2.49c0.07,0.17,0.14,0.33,0.2,0.49c0.83-0.16,1.67-0.31,3.36-0.62c-0.85,1.35-1.37,2.19-2.04,3.29
		c0.3,0.24,0.94,0.76,1.91,1.55c-0.98,0.31-1.66,0.53-2.35,0.74c0.23,0.1,0.45,0.19,0.68,0.27c-0.92,1.79-1.82,3.56-3.11,6.12
		c3.94-1.59,6.96-2.82,10.58-4.28c-1.72,4.08-3.14,7.43-4.87,11.53c-3.29,0.67-0.69,2.76,0.35,4.67c3.73-0.9,4.76-0.18,5.64,3.87
		c0.03,0.13,0.23,0.23,0.35,0.34c1.79,1.66,3.58,3.32,5.43,5.05c-0.62,0.11-1.26,0.24-1.91,0.36c0.11,0.27,0.22,0.54,0.32,0.8
		c1.85-0.69,3.69-1.37,5.83-2.18l-3.03-1.71c1.13-0.38,1.96-0.65,3.42-1.13c-1.69-0.73-2.83-1.21-3.98-1.7
		c-0.1-0.28-0.21-0.55-0.32-0.83c1.37-0.53,2.77-1.08,4.16-1.61c-0.68-0.41-1.49-0.92-2.29-1.41c0.76-0.44,1.53-0.89,2.35-1.35
		c0.12-2.24,0.25-4.54,0.38-6.85c0.3,0.03,0.57,0.04,0.85,0.07v5.4h7.61c-2.63,1.24-4.81,2.26-6.99,3.28
		c0.09,0.11,0.17,0.24,0.25,0.35c1.17-0.13,2.35-0.25,3.52-0.37l0.25,0.93c-0.78,0.48-1.57,0.97-2.4,1.49
		c0.57,0.62,1.16,1.27,1.9,2.07c-0.7,0.34-1.2,0.58-1.8,0.86c0.95,0.67,1.86,1.31,2.87,2.02c-1.57,0.87-3.12,1.75-4.65,2.6
		c0.18,0.3,0.38,0.59,0.56,0.89c5.02-1.5,9.27-4.3,13.38-7.48c0.02-2.8-2.3-3.46-4.76-3.77c0.06-3.55,3.05-3.46,5.39-4.11
		c-1.1-2.45-0.68-5.72-4.78-6.3c1.47-1,5.41-1.21,8.11-0.45c-2.01-2.21-2.83-5.26-2.21-8.18l3.18,2.74c0.39-1.42,0.69-2.49,1-3.57
		l-0.55-0.13c0.93-0.72,1.86-1.42,2.83-2.17c0.7,0.54,1.56,1.18,2.73,2.07c-0.68,1.56-1.45,3.36-2.27,5.29
		c1.82-0.07,3.1-0.13,4.52-0.19c-0.32,1.07-0.6,1.97-0.93,3.04c1.18,0.85,2.45,1.76,3.92,2.82c-1.5,0.95-3.27,2.11-5.45,3.51
		c3.43-0.76,6.38-1.4,10.07-2.21c-1.92,2.83-3.32,4.9-4.78,7.06c1.26,0.37,2.22,0.65,3.16,0.93c0.03,0.21,0.04,0.42,0.07,0.65
		c-1.43,0.24-2.87,0.48-4.51,0.74c0.04,0.14,0.01,1.18,0.35,1.31c1.63,0.51,3.3,0.92,4.98,1.24c0.75,0.05,1.5,0.18,2.22,0.39
		c0.28,0.14,0.18,0.96,0.27,1.47c-0.73,0.01-1.47,0.01-2.18,0.05c-0.41,0.03-0.97,0-1.17,0.23c-0.56,0.89-1.2,1.72-1.91,2.49
		c-0.43,0.32-1.47-0.02-2.84-0.1c-0.19-0.23-0.86-1.07-1.55-1.9c-1,0.67-1,0.67,0.84,5.48c4.47-0.45,4.94-0.11,5.63,4.07
		c0.45,2.71,2.14,3.64,5.29,3.1c1.26-0.13,2.53-0.16,3.8-0.1c0.01,0.26,0.04,0.52,0.07,0.78c-0.9,0.42-1.8,0.84-2.14,1
		c1.73,0.55,3.7,1.18,5.99,1.9c-2.18,1.45-3.92,2.59-5.78,3.82c1.03,1,2.46,1.48,3.88,1.3h0.01c0-0.09,0-0.19-0.02-0.28l0.42,0.21
		c1.04-0.17,1.97-0.73,2.59-1.58c1.6-3,4.33-0.65,6.37-2.38c-0.1-2.16,0.42-4.52,3.95-5.19c0.75-0.14,1.21-1.5,1.41-2.64
		c-1.54,1.6-2.73,2.8-4.35,0.24c-0.05-0.09-0.12-0.16-0.21-0.2c-0.97-0.49-1.94-0.97-2.91-1.45c1.21-0.35,2.42-0.69,3.61-1.07
		c0.86-0.28,1.7-0.6,3.17-1.14c-2.03-0.31-3.17-0.48-4.87-0.74c4.37-2.59-0.01-3.87,0.1-5.63c1.13-0.1,2.39-0.22,3.77-0.35
		c-0.56-0.48-0.99-0.86-1.45-1.25c1.74-0.97,4.04-1.58,2.05-4.36c1.28,0.17,2.2,0.3,3.3,0.45c0.16-1.84-2.71-3.86,1.3-5.2
		c0.63,1.1,1.39,2.44,2.12,3.75c0.56-0.48,1.17-1.01,2.21-1.91c-0.1,1.97-0.17,3.37-0.24,4.95c1.86-0.14,3.85-0.28,5.89-0.44
		c0.13-1.25,0.24-2.29,0.36-3.33c0.32-3.04,0.87-3.32,4.19-2.69c0.53,0.12,1.56-0.61,1.87-1.18c0.77-1.45,1.19-3.06,1.25-4.7
		c-1.06,0.8-2.11,1.6-3.6,2.76c-0.34-0.32-0.83-0.77-1.27-1.17l-0.07,0.11c-2.2-1.12-4.15-2.1-6.18-3.15
		c0.2-1.1,0.47-1.73,2.48-1.35c1.73,0.33,3.76-0.61,5.63-1.08c0.24-0.07,0.58-0.7,0.48-0.88c-0.23-0.37-0.6-0.63-1.03-0.72
		c-1.25-0.1-2.5-0.04-3.98-0.04c1.2-1.59,2.18-2.93,3.11-4.17c-1.42-1.23-2.67-2.32-4.16-3.61c2.33-0.31,4.06-0.53,6.41-0.83
		c-0.91-0.68-1.63-1.21-2.48-1.83c3.17-0.66,5.04-2.29,3.24-5.7h4.6c-0.72-1.69-1.46-3.42-2.1-4.91c0.98-0.69,1.9-1.32,2.88-2.01
		c0.8,0.54,1.84,1.23,2.31,1.54c0.24,1.58,0.41,2.82,0.67,4.62c1.41-1.5,2.2-2.33,2.99-3.16c0.39,0.2,0.77,0.39,1.15,0.6
		c-0.86,2.4-1.73,4.81-2.72,7.59c2.04,0.68,5.07-5.5,6.98-0.28c-1.59,2.07-3.14,4.09-4.7,6.13c2.34,1.41,4.44,2.7,6.34,3.84
		c-2.16,1.73-3.88,3.1-5.52,4.4c1.73,2.59,5.78,2.67,5.66,6.18c-3.05-0.47-3.05-0.47-3.26,2.01c-0.01,0.1-0.01,0.22-0.08,0.28
		c-1.59,1.25-1.93,2.74-0.12,3.88c1.13,0.7,2.75,0.77,4.13,1.17c0.57,0.15,1.1,0.46,1.66,0.63c0.63,0.3,1.33,0.44,2.03,0.41
		c3.25-0.85,3.24-0.89,5.53,1.59c-0.65,0.26-1.26,0.55-1.91,0.79c-0.73,0.26-1.49,0.52-2.24,0.77c1.04,0.7,2.11,2,3.15,1.98
		c1.39-0.01,2.76-1.05,4.62-1.85c-2.93-1.2,0.22-6.01-4.79-5.63c-0.12-0.87-0.25-1.72-0.36-2.57c2.77-0.33,4.71-1.89,4.68-4.29
		c-0.01-1.06-2.25-2.08-3.87-3.45c0.27-0.77,0.19-2.7,2.97-2.53c0.32,0.03,0.84-0.94,1.07-1.53c0.31-0.94,0.58-1.89,0.79-2.86
		c-1.1-0.71-2.52-1.64-4.01-2.61c0.49-0.88,0.98-1.78,1.63-2.94c1.93,0.86,3.71,1.66,6.02,2.68c-1.6-2.7-2.97-5.09-2.24-8.25
		c1,0.79,1.89,1.48,3.39,2.66c0.25-1.52,0.45-2.65,0.73-4.25c0.41-0.28,1.41-0.94,2.39-1.59c0.75,0.55,1.66,1.21,2.72,1.98
		c-0.7,1.72-1.45,3.53-2.31,5.66c1.89-0.41,3.15-0.68,4.77-1.02c-0.41,1.31-0.76,2.44-1.13,3.58c1.27,0.88,2.55,1.77,4,2.77
		c-1.65,1.02-3.42,2.12-5.8,3.6c3.68-0.78,6.61-1.4,9.57-2.03c0.18,0.3,0.36,0.58,0.53,0.87c-1.28,1.11-2.56,2.24-4.06,3.56
		c0.07,0.41,0.25,1.41,0.49,2.66c0.41,0.08,1.45,0.3,2.49,0.51c0,0.22,0.01,0.43,0.01,0.66c-1.45,0.31-2.88,0.62-4.56,0.98
		c-0.08,1.06,2.76,3.15,4.94,2.48c3.42-1.06,2.79,0.7,2.48,2.46l0.01,0.01c1.3,0.29,2.61,0.58,3.79,0.86
		c-0.35-1.41-0.75-3.03-1.15-4.64l0.8-0.34c0.66,0.34,1.32,0.67,1.8,0.93c0.78-1.27,1.48-2.42,2.01-3.3
		c1.07,0.48,1.79,0.79,2.84,1.25c1.17,0.82-4.15,3.68,1,3.8c-0.19,2.96,2.06,5.51,5.02,5.7c0.08,0,0.15,0.01,0.23,0.01
		c-0.84,1.01-1.55,1.83-2.49,2.94c0.39,0.5,1.01,1.29,1.89,2.43c-1.03,0.28-2.03,0.56-3.91,1.07c2.37,0.62,4.09,1.07,6.18,1.62
		c-0.01,0.04-0.17,0.6-0.31,1.16c-2.43-0.87-3.93,4.52-6.79,0.67c0.1,2.09,0.1,2.09,4.95,4.66c-0.53,3.68,0.82,4.58,5.01,3.38
		c3.5,3.61,4.94,4.04,10.25,3.02c-2.51-1.4-5.02-2.78-7.69-4.26c1.38-0.58,2.77-1.16,4.51-1.9c0.19,0.07,0.92,0.4,2.6,1.1
		c-1-1.28-1.44-1.88-2.27-2.95c0.88-0.1,1.81-0.21,2.72-0.3c1.82-0.18,3.63-0.35,5.26-0.52c0.26-1.58,0.76-2.74,0.57-3.81
		c-0.57-3.05,2.94-2.8,3.43-2.48c1.97,1.23,2.14-0.1,2.56-1.1c0.52-1.26,0.88-2.58,1.32-3.88c-0.34-0.14-0.69-0.28-1.03-0.42
		c-0.7,0.73-1.4,1.45-2.25,2.32c-0.52-0.46-1.05-0.93-1.59-1.39c-0.1,0.2-0.2,0.39-0.25,0.49c-2.1-1.11-4.02-2.14-6.14-3.26
		c0.39-0.74,0.21-1.94,2.44-1.26c2.55,0.88,5.33-0.47,6.21-3.01c0-0.01,0-0.03,0.01-0.04c-1.17,0.52-2.03,1.2-2.81,1.16
		c-0.7-0.05-1.35-0.91-1.96-1.37c0.9-1.15,1.89-2.4,2.34-2.98c-1.5-1.34-2.75-2.43-4.22-3.73c4.44-2.06,7.27,0.1,10.42,0.3
		c-2.01-1.08-4.04-2.18-6.57-3.54c4.27-0.49,5.22-2.63,4.04-5.54h4.5c-0.82-1.9-1.57-3.63-2.13-4.97c1.07-0.8,1.97-1.47,2.79-2.08
		c0.9,0.6,1.91,1.3,2.27,1.54c0.3,1.64,0.51,2.85,0.8,4.45c1.35-1.37,2.16-2.2,2.96-3.02c0.36,0.21,0.74,0.41,1.11,0.62
		c-0.83,2.52-1.66,5.03-2.55,7.75c2.3-0.42,4.62-4.83,6.81-0.51c-1.5,2.08-2.99,4.14-4.47,6.18c2.47,1.63,4.26,2.81,5.98,3.93
		c-2.07,1.69-3.75,3.06-5.57,4.53c2.27,1.83,4.64,3.51,7.11,5.05c2.34,1.12,4.74,2.09,7.2,2.89c0.17-0.27,0.34-0.52,0.51-0.79
		c-1.6-0.92-3.19-1.84-5.09-2.94c1.02-0.14,1.83-0.25,2.9-0.41c-0.48-0.84-0.93-1.63-1.47-2.56c0.4-0.44,0.9-1.01,1.43-1.58
		c-0.65-0.73-1.26-1.41-2.25-2.54h3.64c0.07-0.2,0.15-0.41,0.22-0.6c-2.13-0.77-4.27-1.54-6.41-2.31c0.03-0.15,0.04-0.3,0.07-0.43
		h7.31c-0.18-1.83-0.36-3.6-0.53-5.36c0.38-0.06,0.77-0.11,1.15-0.15c0.38,2.39,0.75,4.76,1.15,7.38c0.52,0.1,1.27,0.24,2.52,0.48
		c-1.28,0.71-2.16,1.22-3.11,1.75c1.55,0.6,2.63,1.05,3.72,1.47c-0.78,0.87-1.55,1.74-2.38,2.7c0.49,0.1,1.21,0.24,2.49,0.49
		c-1.13,0.93-1.97,1.6-2.83,2.32c1.73,0.77,3.31,1.48,4.88,2.19c0.07-0.14,0.14-0.28,0.21-0.4c-0.48-0.26-0.95-0.51-1.12-0.6
		c1.81-1.96,3.58-3.87,5.51-5.94c-0.23-0.33-0.44-0.68-0.62-1.04c1.42-0.94,2.88-1.81,4.39-2.66c1.08-0.6,2.74-0.91,3.15-1.76
		c0.34-0.7-0.79-2.01-1.03-3.12c-0.72-1.23-1.28-2.56-1.66-3.94c-0.11-0.83-2.22-1.84-1.87-2.7c-0.6-1.06-1.22-2.15-1.83-3.22
		c0.31-0.39,0.64-0.8,0.94-1.21c2.89,1.16,5.76,2.31,8.74,3.5c2.21-2.59-1.73-2.73-1.82-4.72c0.07-0.04,0.51-0.31,1.13-0.68
		c-0.72-0.15-1.34-0.28-2.31-0.49c0.73-0.88,1.33-1.6,1.89-2.29c-0.7-0.52-1.41-1.06-2.94-2.22c1.98-0.09,3.11-0.14,4.22-0.2
		c0.07-0.13,0.13-0.27,0.2-0.41c-2.11-0.87-4.22-1.73-6.48-2.67c1.92-1.77,4.34,1.6,5.82-0.93c0.04-0.06,1.57-4.33,2.18-4.89v7.15
		c1.24,0.27,2.04,0.44,3.25,0.69c-1.27,0.76-2.13,1.27-3.17,1.89c1.83,0.39,3.29,0.72,4.77,1.04c0,0.28,0.01,0.56,0.01,0.86
		c-1.3,0.66-2.63,1.31-3.93,1.97c0.05,0.17,0.12,0.32,0.18,0.47c0.72-0.04,1.42-0.08,2.78-0.18c-1.23,1.63-2.18,2.87-3.13,4.12
		c0.25,0.19,0.52,0.37,0.77,0.55c0.47-0.39,0.93-0.77,1.32-1.11c0.69,0.9,1.33,1.72,2.16,2.8c-0.33,0.27-0.93,0.75-1.54,1.22
		c0.09,0.17,0.17,0.36,0.26,0.52c1.74-0.39,3.48-0.78,6.01-1.36c-1.73,1.76-2.88,2.94-4.03,4.11c0.18,0.28,0.36,0.55,0.55,0.83
		c2.97-0.82,5.97-1.5,8.83-2.56c0.45-0.17,0.73-2.4,0.21-2.87c-2.73-2.5,0.35-2.08,1.46-3.24h-5.75c0.18-3.17,3.57-3.77,5.51-6.14
		c-1.53-1.25-3.23-2.66-5.56-4.57c1.9-1.07,4.03-2.28,6.66-3.74c-1.63-1.71-3.17-3.49-4.63-5.35c-0.3-0.41,0.37-2.07,0.86-2.18
		c1.1-0.14,2.21-0.01,3.24,0.4c0.85,0.34,1.67,0.78,2.44,1.29c-0.87-2.62-1.64-4.98-2.43-7.33c0.3-0.18,0.58-0.36,0.87-0.55
		c0.82,0.6,1.65,1.2,2.54,1.84c1.82-0.67,2.41-1.61,0.61-2.88c1.28-0.84,2.32-1.55,3.01-2.01c1.05,0.52,1.95,0.97,3.04,1.53
		c-0.64,1.45-1.46,3.25-2.37,5.29h4.76c-0.35,1.16-0.66,2.18-0.94,3.07c0.6,0.63,1.25,1.32,2.11,2.22l2.67-0.21
		c-1.26,0.96-2.1,1.57-3.27,2.47c2.4,0.23,4.07,0.4,6.28,0.6c-1.26,1.28-3.01,2.25-3.2,3.45c-0.2,1.2,1.13,2.62,2,4.33
		c-1.09,0.14-2.56,0.34-4.1,0.55c-0.1,0.82,1.38,2.21,3.29,2.52c1.66,0.26,3.38,0.28,5.4,0.45c-1.26,2.88-6.32-0.13-5.27,5.16
		c-1.86-2.73-2.46-1.39-2.9-0.48c-1.83,0.07-1.6-3.28-4.26-1.73c1.15,2.02,2.21,3.9,2.95,5.22c1.42-0.19,2.56-0.65,3.17-0.31
		c0.81,0.43,1.97,0.56,1.63,2.53c-0.66,3.8,2.57,5.27,6.75,3.88c1.57-0.52,3.4-0.41,5.44-0.62c-0.76-1.56-1.52-3.09-2.25-4.57
		c1.08-0.8,1.98-1.48,2.83-2.11c0.9,0.55,1.85,1.14,2.6,1.59c0.24,1.34,0.46,2.55,0.73,3.98c1.2-1.2,1.93-1.94,2.91-2.92
		c0.39,1.75,0.66,2.94,0.82,3.61c-0.96,1.69-1.73,3.08-2.5,4.47c2.88-1.01,5.24-3.67,7.56,0.66c-1.25,0.83-2.8,1.87-4.09,2.72v3.98
		c0.89,1.05,5.1-0.21,4.6,3.74c-1.94,0.67-4.54,1.21-4.39,3.91c2,1.69,3.94,3.35,5.88,4.99c-0.18,0.2-0.37,0.38-0.53,0.56
		c-2.03-0.11-4.05-0.21-6.08-0.32c-0.04,0.27-0.07,0.54-0.11,0.8c0.77,0.25,1.54,0.49,2.53,0.82c-0.37,1.42-0.75,2.85-1.23,4.71
		c2.76,0.81,5.57,1.8,8.48,2.38c0.79,0.15,1.87-0.99,2.82-1.52c1.08,1.05,2.19,2.13,3.37,3.27c-1.2,0.21-2.43,0.44-4.47,0.79
		c1.01,1.2,2.01,2.36,3.35,3.94c-0.57,0.38-1.65,1.1-2.86,1.91c0.62,0.37,1.25,0.73,1.3,0.76c2.12-1,3.68-2.11,5.43-2.45
		c2.02-0.39,1.73-1.63,1.36-2.54c-0.78-1.84-1.72-3.61-2.81-5.29c-0.76-1.25-1.75-2.4-3.06-4.18c2,0.57,3.45,0.97,4.88,1.38
		c0.09-0.11,0.16-0.22,0.24-0.34c-0.53-0.43-1.05-0.88-1.57-1.32c0.58-0.79,1.15-1.57,1.78-2.43c0.48,0.41,0.96,0.8,1.44,1.2
		l0.76-0.63c-0.89-0.92-1.76-1.85-2.8-2.94c0.53-0.28,1.1-0.6,1.91-1.06c-0.97-0.39-1.69-0.7-3.11-1.29
		c1.38-0.82,2.41-1.42,3.4-2.01c-0.42-0.19-1.18-0.52-2.5-1.1c4.7-1.37,1.94-4.85,3.74-7.26c0.16,1.28,0.33,2.56,0.48,3.91
		c0.75,0.31,1.63,0.69,2.27,0.96c1.73-0.95,3.39-1.85,5.2-2.84c0.45,0.18,1.25,0.5,2.04,0.81c0.78-1.32-3-2.1-0.13-2.71
		c2.25-0.19,4.51-0.38,6.62-0.57c0.27-1.64,0.52-2.75,0.65-3.88c0.17-1.66,1.66-2.86,3.32-2.69c0.14,0.02,0.28,0.04,0.42,0.08
		c0.58,0.14,1.67,0.11,1.83-0.17c0.94-1.65,1.52-3.48,1.71-5.37c-1.05,0.75-2.11,1.5-3.4,2.4l-1.46-1.24
		c-0.11,0.18-0.24,0.36-0.31,0.48c-2.12-1.07-4.12-2.11-6.88-3.53c1.65-0.36,2.73-0.6,3.82-0.85c1.68-0.38,3.37-0.74,5.03-1.22
		c0.28-0.09,0.37-0.76,0.55-1.17c-0.44-0.15-1.15-0.55-1.25-0.45c-1.56,1.62-2.44-0.44-3.69-0.3c1.11-1.42,2.1-2.69,3.05-3.92
		c-1.39-1.2-2.61-2.25-4.1-3.53c2.27-0.33,4.12-0.59,6.56-0.95c-1.16-0.74-1.95-1.25-3.06-1.96c4.41-0.2,4.82-2.56,3.71-5.38h4.53
		c-0.82-1.91-1.56-3.64-2.14-4.98c1.07-0.8,2-1.47,3.07-2.27C1186.99,667.46,1187.35,667.87,1187.71,668.29z"/>
	<path class="st0" d="M2673.54,197.21c0.36,0.05,0.7,0.09,1.07,0.12l-0.3,0.21C2674.06,197.43,2673.81,197.32,2673.54,197.21z"/>
	<path id="Path_317" class="st1" d="M906.1,882c0,0,82.74-36.06,139.05-86.74c56.3-50.67,46.45-71.79,46.45-71.79
		s2.81,15.48,45.04-22.52s74.6-85.86,116.83-105.57c-4.05,24.88-2.51,30.43-47.55,57.18c-23.21,13.78-9.59,57.54-29.78,77.17
		c-10.65,10.35-60.31,21.36-60.31,21.36s-11.45,28.86-25.34,38.01C996.75,850.79,906.1,882,906.1,882z"/>
</g>
</svg>
